<svg xmlns="http://www.w3.org/2000/svg" xmlns:xlink="http://www.w3.org/1999/xlink" width="676.971" height="456.727" viewBox="0 0 676.971 456.727">
  <defs>
    <linearGradient id="linear-gradient" y1="0.5" x2="1" y2="0.5" gradientUnits="objectBoundingBox">
      <stop offset="0" stop-color="#bfe3ee"/>
      <stop offset="1" stop-color="#dfefea"/>
    </linearGradient>
    <linearGradient id="linear-gradient-2" x1="-0.637" y1="0.084" x2="0.373" y2="0.084" xlink:href="#linear-gradient"/>
    <linearGradient id="linear-gradient-3" x1="17.71" y1="0.5" x2="18.71" y2="0.5" gradientUnits="objectBoundingBox">
      <stop offset="0" stop-color="#dfefea"/>
      <stop offset="1" stop-color="#bfe3ee"/>
    </linearGradient>
  </defs>
  <g id="Grupo_10955" data-name="Grupo 10955" transform="translate(-306.707 -236.738)">
    <g id="Grupo_10874" data-name="Grupo 10874" transform="translate(699.414 312.941)">
      <path id="Trazado_20567" data-name="Trazado 20567" d="M2115.945,798.861l-33.252,6.432c-1.484-34.365,17.614-60.583,27.19-75.2,13.826-21.1,48.175-32.1,53.935-44.354s7.533-31.989,3.4-58.9,20.685-47.53,44.225-45.332,48.74,25.134,45.382,64.71-55.833,52.05-70.652,76.635,2.133,40.047-4.063,75.828c-4.356,25.155-32.777,40.007-56.766,48.752Z" transform="translate(-2082.612 -581.347)" fill="#00666b"/>
      <path id="Trazado_20568" data-name="Trazado 20568" d="M2257.471,839.021c15.083-20.861,20.519-40.076,26.156-60.029,3.919-13.87,7.972-28.214,15.564-43.233,11.4-22.546,21.664-34.651,30.722-45.33,9.838-11.6,18.335-21.618,26.17-41.824,4.868-12.553,5.638-32.2,4.8-51.094.557.238,1.109.5,1.661.756.753,18.955-.114,38.516-4.929,50.933-7.935,20.464-16.515,30.579-26.45,42.293-9,10.61-19.2,22.636-30.509,45.009-7.521,14.878-11.551,29.143-15.449,42.938-5.8,20.521-11.382,40.268-27.309,61.8Z" transform="translate(-2218.804 -593.937)" fill="#01888b"/>
    </g>
    <path id="Trazado_20569" data-name="Trazado 20569" d="M2834.923,472.426s5.39,3.62,6.464,14.74-7.343,18.208-7.343,18.208-8.026-7.274-7.331-17.148C2827.539,476.5,2834.923,472.426,2834.923,472.426Z" transform="translate(-1962.722 -183.57)" fill="#00666b"/>
    <path id="Trazado_20570" data-name="Trazado 20570" d="M2263.56,1204.047a261.4,261.4,0,0,1,36.77,10.026c15.027-28.391,43.019-96.425-7.026-137.418-13.43-11-35.818-2.538-44.187,17.527C2228.707,1143.119,2251,1185.671,2263.56,1204.047Z" transform="translate(-1506.448 -650.402)" fill="#afd8c8"/>
    <g id="Grupo_10875" data-name="Grupo 10875" transform="translate(489.326 297.983)">
      <path id="Trazado_20571" data-name="Trazado 20571" d="M1175.523,652.469c40.569,42.466,59.237,71.763,67.482,87.5A283.592,283.592,0,0,1,1271.855,727c1.747-46.287.983-156.267-42.649-193.186-25.759-21.8-47.641-22.806-64.141-17.282-30.332,10.156-42.39,52.291-23.4,89.653C1148.713,620.06,1159.462,635.657,1175.523,652.469Z" transform="translate(-1132.548 -513.704)" fill="url(#linear-gradient)"/>
    </g>
    <g id="Grupo_10876" data-name="Grupo 10876" transform="translate(680.703 358.053)">
      <path id="Trazado_20572" data-name="Trazado 20572" d="M2010.31,868.965c-1.717,45.888-7.979,72.318-12.315,85.516a221.809,221.809,0,0,1,22.991,9.115c26.912-24.235,88.179-84.577,85.116-129.161-1.809-26.321-13.162-39.144-25.249-45.389-22.22-11.48-52.421,4.711-63.032,35.715C2013.882,836.274,2010.99,850.8,2010.31,868.965Z" transform="translate(-1997.995 -785.352)" fill="url(#linear-gradient-2)"/>
    </g>
    <g id="Grupo_10878" data-name="Grupo 10878" transform="translate(774.515 286.988)">
      <g id="Grupo_10877" data-name="Grupo 10877" transform="translate(0 0)">
        <path id="Trazado_20573" data-name="Trazado 20573" d="M2517.042,744.24c22.293-34.422-2.343-71.906,16.446-93.585s42.932-18.093,53.442-33.965-17.243-51.574,9.383-73.766,48.648-42.7,17.43-72.711c-15.028-14.447-32.941-1.319-39.67,14.472-7.25,17.012-2.924,37.61-8.752,44.521-11.239,13.326-29.968,2.979-49.385,22.056s-15.833,44.893-25.911,61.37-45.639,18.414-61.1,61.578.686,120.888.686,120.888S2488.334,788.569,2517.042,744.24Z" transform="translate(-2422.233 -463.982)" fill="#add7c5"/>
        <path id="Trazado_20574" data-name="Trazado 20574" d="M2458.723,802.217c40.158-33.553,42.305-61.651,44.2-86.44,1.665-21.789,3.1-40.608,29.362-58.927,22.966-16.022,27.935-30.69,33.2-46.219,5.726-16.9,11.646-34.38,39.9-57.115,20.379-16.4,26.194-38.082,27.484-53.383a95.416,95.416,0,0,0,.313-9.728q-.749-.657-1.5-1.229a94.63,94.63,0,0,1-.28,10.833c-1.265,15.013-6.965,36.284-26.937,52.357-28.586,23-34.847,41.486-40.371,57.791-5.18,15.293-10.073,29.737-32.641,45.482-26.833,18.72-28.3,37.861-29.99,60.025-1.872,24.5-3.995,52.266-43.673,85.42q-4.663,3.9-9.26,7.05c.1.556.189,1.094.278,1.6Q2453.722,806.386,2458.723,802.217Z" transform="translate(-2442.705 -483.605)" fill="#64c0c2"/>
      </g>
      <path id="Trazado_20575" data-name="Trazado 20575" d="M3243.573,877.278s1.029,7.447-7.751,16.939-21.4,7.674-21.4,7.674.1-12.539,9.164-19.542C3234.361,874.029,3243.573,877.278,3243.573,877.278Z" transform="translate(-3039.246 -785.399)" fill="#1a898f"/>
    </g>
    <g id="Grupo_10881" data-name="Grupo 10881" transform="translate(306.707 236.738)">
      <g id="Grupo_10879" data-name="Grupo 10879" transform="translate(0 172.267)">
        <path id="Trazado_20576" data-name="Trazado 20576" d="M448.4,1179.5h28.181c-4.219-28.308-23.964-46.708-34.1-57.132-14.629-15.051-44.428-18.609-51.07-27.71s-11.21-24.942-12.083-47.584-24.409-35.56-43.292-30.044-35.845,28.235-26.848,60.035,53.837,33.7,69.829,51.44,4.586,33.052,15.3,61.3c7.534,19.861,33.1,27.5,54.077,30.855Z" transform="translate(-306.707 -1015.764)" fill="#fcd14a"/>
        <path id="Trazado_20577" data-name="Trazado 20577" d="M511.108,1224.537c-15.619-14.658-23.1-29.5-30.854-44.906-5.394-10.712-10.971-21.788-19.547-32.858-12.873-16.617-23.174-24.884-32.261-32.176-9.871-7.922-18.4-14.763-27.989-30.031-5.96-9.486-9.694-25.416-12-40.981-.417.282-.828.58-1.237.88,2.38,15.6,6.18,31.447,12.076,40.829,9.716,15.464,18.324,22.371,28.291,30.37,9.029,7.245,19.262,15.458,32.036,31.947,8.495,10.966,14.042,21.982,19.407,32.635,7.98,15.847,15.662,31.1,32.076,46.172Z" transform="translate(-369.418 -1037.432)" fill="#f6a40d"/>
      </g>
      <g id="Grupo_10880" data-name="Grupo 10880" transform="translate(94.047 0)">
        <path id="Trazado_20578" data-name="Trazado 20578" d="M779.649,572.743H882.97c4.832-16.749,8.007-33.772,7.435-48.628-2-52.111-39.918-66.373-45.217-87.694s7.419-48.1-7.119-75.435-38.4-22.516-46.03-40.816c-3.96-9.491,7.778-30.355,5.731-51.29-1.9-19.431-16.842-39.8-38.085-29.267-44.13,21.88-27.254,51.658-5.959,84.838s-21.023,62.418-15.05,83.231,33.39,25.178,46.358,55.122S758.458,524.985,770.87,569.95a107.683,107.683,0,0,0,8.779,21.932Z" transform="translate(-732.005 -236.738)" fill="#64c0c2"/>
        <path id="Trazado_20579" data-name="Trazado 20579" d="M895,466.328c22.221,28.853,17.345,49.76,11.7,73.966-3.036,13.017-6.262,26.856-5.433,43.125h1.7c-.842-16.132,2.355-29.846,5.363-42.744,5.743-24.623,10.7-45.888-12-75.372-19.1-24.8-19.465-42.141-19.854-60.5-.416-19.577-.887-41.767-24.029-76.5-16.169-24.266-15.078-49.29-11.317-66.01a107.763,107.763,0,0,1,3.4-11.848q-1.015.36-2.052.819a108.567,108.567,0,0,0-2.988,10.66c-3.834,17.039-4.941,42.549,11.557,67.309,22.871,34.325,23.316,55.31,23.747,75.6C875.192,423.481,875.566,441.092,895,466.328Z" transform="translate(-813.865 -247.414)" fill="#add7c5"/>
      </g>
      <path id="Trazado_20580" data-name="Trazado 20580" d="M658.1,650.082s-3.663,7.726,2.615,21.026,20.588,15.643,20.588,15.643,4.185-13.634-3.257-24.333C669.207,649.708,658.1,650.082,658.1,650.082Z" transform="translate(-579.572 -558.678)" fill="#1a898f"/>
      <path id="Trazado_20581" data-name="Trazado 20581" d="M391.693,1489.639s-3.624-4.007-12.909-3.566-14.119,8.218-14.119,8.218,6.947,5.742,15,3.992C389.222,1496.2,391.693,1489.639,391.693,1489.639Z" transform="translate(-351.849 -1209.779)" fill="#f9ba49"/>
    </g>
    <g id="Grupo_10890" data-name="Grupo 10890" transform="translate(626.304 343.02)">
      <g id="Grupo_10887" data-name="Grupo 10887">
        <path id="Trazado_20582" data-name="Trazado 20582" d="M2535.468,968.062l2.556-2.224-2.685-4.147-4.536,4.147Z" transform="translate(-2358.584 -907.663)" fill="#f7b58e"/>
        <g id="Grupo_10882" data-name="Grupo 10882" transform="translate(175.634 52.517)">
          <path id="Trazado_20583" data-name="Trazado 20583" d="M2556.928,963.388c-3.283-.274-4.636-1.157-5-1.449a15.217,15.217,0,0,1-4.189-.884,16.7,16.7,0,0,1-1.488,1.162c.155.958.383,2.445.383,2.445l5.5,3.355c1.892.864,5.076,1.646,6.874.892,0,0,3.129-2.126,5.951-3.648C2566.147,962.349,2559.873,963.633,2556.928,963.388Z" transform="translate(-2546.248 -959.685)" fill="#f7b58e"/>
          <path id="Trazado_20584" data-name="Trazado 20584" d="M2557.333,958.409a2.369,2.369,0,0,0,.327.353c-.391.157-.769.334-1.138.522-1.542.042-3.083.131-4.625.189.1-.889.226-2.138.219-2.228l10.022-2.386s.811,1.056-1.021,2.191A10.243,10.243,0,0,1,2557.333,958.409Z" transform="translate(-2550.648 -954.859)" fill="#f7b58e"/>
        </g>
        <path id="Trazado_20585" data-name="Trazado 20585" d="M1822.594,1054.842l-2.556-2.224,2.684-4.147,4.536,4.147Z" transform="translate(-1804.991 -975.253)" fill="#f7b58e"/>
        <g id="Grupo_10883" data-name="Grupo 10883" transform="translate(0 71.707)">
          <path id="Trazado_20586" data-name="Trazado 20586" d="M1760.166,1050.168c3.282-.274,4.636-1.157,5-1.449a15.219,15.219,0,0,0,4.189-.884,16.721,16.721,0,0,0,1.488,1.162c-.155.958-.383,2.445-.383,2.445l-5.5,3.354c-1.892.864-5.076,1.646-6.874.892,0,0-3.129-2.126-5.95-3.648C1750.947,1049.129,1757.22,1050.413,1760.166,1050.168Z" transform="translate(-1751.993 -1046.465)" fill="#f7b58e"/>
          <path id="Trazado_20587" data-name="Trazado 20587" d="M1789.46,1045.19a2.372,2.372,0,0,1-.327.353c.391.157.769.334,1.137.522,1.543.042,3.084.131,4.625.189-.1-.89-.226-2.138-.219-2.228l-10.021-2.386s-.812,1.055,1.021,2.191A10.242,10.242,0,0,0,1789.46,1045.19Z" transform="translate(-1777.293 -1041.64)" fill="#f7b58e"/>
        </g>
        <g id="Grupo_10885" data-name="Grupo 10885" transform="translate(75.249)">
          <path id="Trazado_20588" data-name="Trazado 20588" d="M2141.454,828.2l-1.052,10.36,11.1.44-2.225-16.061Z" transform="translate(-2129.761 -799.592)" fill="#f39f85"/>
          <g id="Grupo_10884" data-name="Grupo 10884" transform="translate(3.643 7.264)">
            <path id="Trazado_20589" data-name="Trazado 20589" d="M2113.4,773.452a5.572,5.572,0,0,1-3.111-.738c-3.72-5.41.518-19.994.518-19.994l5.945-2.5,7.555,4.712.43,9.773a7.931,7.931,0,0,1-3.373,6.741h0A15.479,15.479,0,0,1,2113.4,773.452Z" transform="translate(-2108.757 -750.216)" fill="#f7b58e"/>
          </g>
          <path id="Trazado_20590" data-name="Trazado 20590" d="M2110.283,734.882c-.415-1.642-.2-5.43-1.87-5.156-1.219.2-5.4-.917-6.8-.917-3.351,0-9.324-.023-9.324-5.122,0-2.55,2.473-4.748,4.039-5.4,1.537-.642,5.42-1.255,6.993-.705,3.69,1.29,6.4,2.975,8.389,3.1,9.178.573,4.909,12.806,3.444,15.654a15.667,15.667,0,0,1-3.347,4.378h0Z" transform="translate(-2092.284 -717.367)" fill="#212b53"/>
          <path id="Trazado_20591" data-name="Trazado 20591" d="M2174.965,796.749a2.521,2.521,0,0,0-3.122.279c-.977.813-1.165,2.008-.418,2.667a2.522,2.522,0,0,0,3.122-.279C2175.525,798.6,2175.712,797.409,2174.965,796.749Z" transform="translate(-2153.568 -778.866)" fill="#f7b58e"/>
        </g>
        <path id="Trazado_20592" data-name="Trazado 20592" d="M2079.973,951.906h38.876l-.659-36.487s3.611,22.133,24.717,23.433,38.046-37.084,38.046-37.084l-4.443-5.142s-19.718,24.293-27.772,23.079-13.828-26.733-30.548-36.766a43.293,43.293,0,0,0-17.71-6.4,24.071,24.071,0,0,0-26.4,23.11C2073.171,923.321,2079.973,951.906,2079.973,951.906Z" transform="translate(-2002.789 -841.244)" fill="#63c0c4"/>
        <path id="Trazado_20593" data-name="Trazado 20593" d="M1882.924,938.079s-8.927,22.594-23.255,31.773c-11.551,7.4-29.16-5-29.16-5l-5,4.443s18.607,21.384,35.27,18.607,20.756-9.72,20.756-9.72Z" transform="translate(-1809.253 -889.273)" fill="#63c0c4"/>
        <g id="Grupo_10886" data-name="Grupo 10886" transform="translate(71.271 66.622)">
          <path id="Trazado_20594" data-name="Trazado 20594" d="M2080.082,1062.78c-.308-1.3-7.528-31.969-5.389-44.136l.821.144c-2.109,12,5.3,43.483,5.379,43.8Z" transform="translate(-2074.297 -1018.644)" fill="#fffdff"/>
        </g>
        <path id="Trazado_20595" data-name="Trazado 20595" d="M2136.368,866.829l1.7-4.313,9.09-1.967,3.043,3.776Z" transform="translate(-2051.371 -828.887)" fill="#01888b"/>
      </g>
      <g id="Grupo_10888" data-name="Grupo 10888" transform="translate(18.239 268.72)">
        <path id="Trazado_20596" data-name="Trazado 20596" d="M1850.21,1956.6s-3.64,3.376-11.937,5.489c-1.827.465-3.8-.156-3.8,2.857h10.07l8.375-1.448v1.448h4.524s1.26-7.4-1.382-8.346Z" transform="translate(-1834.476 -1951.289)" fill="#212b53"/>
        <path id="Trazado_20597" data-name="Trazado 20597" d="M1906.137,1932.573l-.51,5.314h0a5.117,5.117,0,0,0,5.542.186l.31-.186,1.879-5.314Z" transform="translate(-1889.894 -1932.573)" fill="#f7b58e"/>
      </g>
      <g id="Grupo_10889" data-name="Grupo 10889" transform="translate(117.106 268.72)">
        <path id="Trazado_20598" data-name="Trazado 20598" d="M2290,1956.6s3.64,3.376,11.938,5.489c1.827.465,3.8-.156,3.8,2.857h-10.07l-8.375-1.448v1.448h-4.524s-1.26-7.4,1.383-8.346Z" transform="translate(-2282.265 -1951.289)" fill="#212b53"/>
        <path id="Trazado_20599" data-name="Trazado 20599" d="M2288.794,1932.573l.51,5.314h0a5.117,5.117,0,0,1-5.542.186l-.311-.186-1.878-5.314Z" transform="translate(-2281.573 -1932.573)" fill="#f7b58e"/>
      </g>
      <path id="Trazado_20600" data-name="Trazado 20600" d="M1980.09,1377.182l-20.363-131.741s-6.845,38.979-53.431,131.741h-10.052l44.841-160.722h39.794s12.177,30.645,8.763,160.722Z" transform="translate(-1864.346 -1106.095)" fill="#053c5e"/>
    </g>
    <g id="Grupo_10896" data-name="Grupo 10896" transform="translate(569.169 349.677)">
      <g id="Grupo_10892" data-name="Grupo 10892" transform="translate(27.953 0)">
        <path id="Trazado_20601" data-name="Trazado 20601" d="M1633.382,842.786l-2.231,10.584-11.125-3.072,7.275-15.19Z" transform="translate(-1620.026 -815.729)" fill="#f39f85"/>
        <g id="Grupo_10891" data-name="Grupo 10891" transform="translate(7.198 5.957)">
          <path id="Trazado_20602" data-name="Trazado 20602" d="M1661.51,798.464a5.787,5.787,0,0,0,3.311.252c5.39-4.178,5.8-19.947,5.8-19.947l-5.093-4.355-8.964,2.276-3.513,9.534a8.237,8.237,0,0,0,1.208,7.736h0A16.073,16.073,0,0,0,1661.51,798.464Z" transform="translate(-1652.575 -774.413)" fill="#f7b58e"/>
        </g>
        <path id="Trazado_20603" data-name="Trazado 20603" d="M1647.96,761.563c.929-1.494,1.912-5.31,3.479-4.511,1.144.583,5.224,2.073,6.615,2.517,3.316,1.059,9.641,1.649,11.252-3.4.805-2.523-.947-5.479-2.291-6.621a7.057,7.057,0,0,0-4.776-1.591c-4.059.11-9.8,1.38-11.608.376-3.04-1.69-6.89-.82-7.726,1.955-.893,2.964-.77,7.892-.22,11.172a16.272,16.272,0,0,0,1.928,5.39h0Z" transform="translate(-1637.34 -747.473)" fill="#212b53"/>
        <path id="Trazado_20604" data-name="Trazado 20604" d="M1649.3,807.5a2.62,2.62,0,0,1,3,1.263c.71,1.114.518,2.354-.429,2.771a2.62,2.62,0,0,1-3-1.262C1648.159,809.16,1648.351,807.919,1649.3,807.5Z" transform="translate(-1642.157 -794.122)" fill="#f7b58e"/>
      </g>
      <path id="Trazado_20605" data-name="Trazado 20605" d="M1553,892.977c-20.708-1.158-22.462,17.261-24.2,37.278-1.995,22.97-.454,48.044-.454,48.044h48.192s-.011-21.343-.515-42.687C1575.534,914.908,1574.9,894.2,1553,892.977Z" transform="translate(-1520.224 -860.761)" fill="#00666b"/>
      <path id="Trazado_20606" data-name="Trazado 20606" d="M1736.588,1218.808s4.731-3.268,6.489-2.488.374,4.068.374,4.068Z" transform="translate(-1682.859 -1112.55)" fill="#f39f85"/>
      <path id="Trazado_20607" data-name="Trazado 20607" d="M1755.176,1069.469c8.448-2.985,3.292-32.047,3.292-32.047l-4.994-.048S1746.728,1072.453,1755.176,1069.469Z" transform="translate(-1694.024 -973.267)" fill="#f39f85"/>
      <path id="Trazado_20608" data-name="Trazado 20608" d="M1713.906,939.373l-5.9,3.543s-24.891-40.27-12.586-29.665C1708.257,924.314,1713.906,939.373,1713.906,939.373Z" transform="translate(-1648.133 -875.206)" fill="#00666b"/>
      <g id="Grupo_10893" data-name="Grupo 10893" transform="translate(26.208 245.459)">
        <path id="Trazado_20609" data-name="Trazado 20609" d="M1622.415,1882.651s.025,5.77,11.615,9.234c2.377.71,1.6,1.414,2.051,2.414h-13.338l-5.223-5.871-1.624,1.4-3.766-3.7s1.759-5.354,4.626-5.4Z" transform="translate(-1612.131 -1875.585)" fill="#212b53"/>
        <path id="Trazado_20610" data-name="Trazado 20610" d="M1640.875,1859.558l-2.167,5h0a5.228,5.228,0,0,1-5.42-1.647l-.239-.281,1.751-5.138Z" transform="translate(-1628.424 -1857.488)" fill="#f7b58e"/>
      </g>
      <path id="Trazado_20611" data-name="Trazado 20611" d="M1499.8,935.01s7.9-36.767,26.587-35.914-8.121,38.557-8.121,38.557Z" transform="translate(-1498.429 -865.556)" fill="#00666b"/>
      <path id="Trazado_20612" data-name="Trazado 20612" d="M1710.257,977.9c11.71-9.458-11.293-58.886-11.293-58.886l-5.574.56S1693.818,985.121,1710.257,977.9Z" transform="translate(-1649.214 -881.085)" fill="#f7b58e"/>
      <path id="Trazado_20613" data-name="Trazado 20613" d="M1633.382,881.927l-.708-3.622-9.568-1.9-3.08,3.826Z" transform="translate(-1592.073 -847.891)" fill="#01888b"/>
      <path id="Trazado_20614" data-name="Trazado 20614" d="M1687.973,866.08l.709-9.424s-4.7-7.212-9.15-5.276c-.817,1.973.6,5.957.6,5.957l2.263,9.3Z" transform="translate(-1638.223 -828.146)" fill="#f7b58e"/>
      <path id="Trazado_20615" data-name="Trazado 20615" d="M1645.88,1279s6.714,42.111,5.136,61.591-22.925,70.374-22.925,70.374l-9.293-2.7s-.7-34.047,8.419-56.4a20.8,20.8,0,0,0,.006-15.343,257.68,257.68,0,0,1-10.415-32.3l.712-25.222Z" transform="translate(-1589.566 -1161.466)" fill="#212b53"/>
      <g id="Grupo_10894" data-name="Grupo 10894" transform="translate(40.607 22.452)">
        <path id="Trazado_20616" data-name="Trazado 20616" d="M1685.806,864.1l.166-.017.669-8.892c-.624-.908-4.629-6.444-8.336-5.056-.489,1.539.312,4.44.69,5.508l.026.107a5.829,5.829,0,0,0-.991-.162c-.32-.988-1.242-4.163-.495-5.969l.07-.167.167-.074c4.734-2.051,9.507,5.136,9.706,5.443l.084.128-.749,9.953-.552.056A6.081,6.081,0,0,0,1685.806,864.1Z" transform="translate(-1677.249 -849.007)" fill="#f39f85"/>
      </g>
      <g id="Grupo_10895" data-name="Grupo 10895" transform="translate(9.787 249.503)">
        <path id="Trazado_20617" data-name="Trazado 20617" d="M1546.487,1903.239s4.16,3.858,13.643,6.274c2.088.532,4.339-.179,4.339,3.266H1552.96l-9.572-1.655v1.655h-5.17s-1.439-8.455,1.58-9.54Z" transform="translate(-1537.875 -1897.166)" fill="#212b53"/>
        <path id="Trazado_20618" data-name="Trazado 20618" d="M1552.243,1875.777l1.017,6.073h0a5.848,5.848,0,0,1-6.333.213l-.355-.213.515-6.073Z" transform="translate(-1544.649 -1875.777)" fill="#f7b58e"/>
      </g>
      <path id="Trazado_20619" data-name="Trazado 20619" d="M1558.8,1279l-22.357,133.766H1527.5s-7.706-36.035-1.754-65.134a43.939,43.939,0,0,0,.4-15.344c-5.667-37.574-1.345-53.288-1.345-53.288Z" transform="translate(-1516.672 -1161.466)" fill="#053c5e"/>
      <path id="Trazado_20620" data-name="Trazado 20620" d="M1513.448,1064.2l-2.252,15.265,36.9,18.395-4.024,4s-41.436-7.459-47.291-12.934-1.8-27.365-1.8-27.365Z" transform="translate(-1493.615 -992.106)" fill="#f7b58e"/>
      <path id="Trazado_20621" data-name="Trazado 20621" d="M1711.619,1226.082l8.691,5.584c3.5,1.606,6.6-.9,9.116-4.449a3.271,3.271,0,0,0-2.729-5.173c-3.126.047-6.918.682-8.8.814Z" transform="translate(-1663.412 -1117.102)" fill="#f7b58e"/>
    </g>
    <g id="Grupo_10898" data-name="Grupo 10898" transform="translate(427.02 502.704)">
      <g id="Grupo_10897" data-name="Grupo 10897" transform="translate(0)">
        <path id="Trazado_20622" data-name="Trazado 20622" d="M1119.721,1456.991c9.943-12.569,18.966-15.446,38.655-16.51s211.979-.523,226.6-.949,21.1,2.7,27.132,14.085,23.844,42.61,23.844,42.61l-348.307,3.536S1109.779,1469.561,1119.721,1456.991Z" transform="translate(-1035.268 -1439.495)" fill="#ffd147"/>
        <path id="Trazado_20623" data-name="Trazado 20623" d="M932.087,2031.149s-20.711,41.528-21.275,42.358-1.876,2.474-3.748,2.035-2.3-2.621-1.522-4.573l16.018-39.917Z" transform="translate(-893.145 -1900.24)" fill="#053c5e"/>
        <path id="Trazado_20624" data-name="Trazado 20624" d="M2633.768,2037.38l11.01,41.967s.914,3.717,4.1,3.45,2.516-4.915,2.516-4.915l-6.144-40.811Z" transform="translate(-2239.496 -1904.928)" fill="#053c5e"/>
        <path id="Trazado_20625" data-name="Trazado 20625" d="M865.1,1756s-16.547-10.95-14.062-42.257,19.488-35.844,19.488-35.844l409.225-.128s14.666,24.745,12.047,47.781-16.259,32.623-16.259,32.623Z" transform="translate(-850.786 -1625.083)" fill="#f6a505"/>
        <path id="Trazado_20626" data-name="Trazado 20626" d="M995.234,1576.912s-12.052-22.895-36.906-27.9-36.2,17.09-27.844,27.592C949.911,1577.758,995.234,1576.912,995.234,1576.912Z" transform="translate(-910.742 -1524.227)" fill="#ffd147"/>
        <path id="Trazado_20627" data-name="Trazado 20627" d="M2503.556,1584.866s19.661-31.648,49.563-27.146c22.442,3.378,18.553,26.532,13.925,28.923Z" transform="translate(-2138.078 -1531.235)" fill="#ffd147"/>
      </g>
    </g>
    <g id="Grupo_10905" data-name="Grupo 10905" transform="translate(765.559 411.117)">
      <g id="Grupo_10899" data-name="Grupo 10899" transform="translate(8.283 260.644)">
        <path id="Trazado_20628" data-name="Trazado 20628" d="M2428.546,2233.851s4.52,4.192,14.826,6.817c2.269.578,4.715-.195,4.715,3.549H2435.58l-10.4-1.8v1.8h-5.618s-1.564-9.187,1.716-10.366Z" transform="translate(-2419.189 -2227.252)" fill="#212b53"/>
        <path id="Trazado_20629" data-name="Trazado 20629" d="M2429.056,2204.007l1.1,6.6h0a6.355,6.355,0,0,1-6.882.231l-.385-.231-1.631-6.6Z" transform="translate(-2420.804 -2204.007)" fill="#f7b58e"/>
      </g>
      <path id="Trazado_20630" data-name="Trazado 20630" d="M2383.265,1496.146s-6.851,28.98,8.389,67.933a37.42,37.42,0,0,1,1.612,21.9c-7.239,31.863-3.7,67.523-3.7,67.523l9.576-.081,35.847-138.619Z" transform="translate(-2381.729 -1392.032)" fill="#212b53"/>
      <g id="Grupo_10901" data-name="Grupo 10901" transform="translate(31.434 0)">
        <path id="Trazado_20631" data-name="Trazado 20631" d="M2537.468,1128.454l-3.924,11.414-9.664-6.456,5.852-13.5Z" transform="translate(-2523.879 -1098.991)" fill="#f39f85"/>
        <g id="Grupo_10900" data-name="Grupo 10900" transform="translate(5.851 4.215)">
          <path id="Trazado_20632" data-name="Trazado 20632" d="M2561.69,1071.36a6.4,6.4,0,0,0,3.668-.236c5.261-5.412,3.277-22.759,3.277-22.759l-6.255-3.986-9.472,3.881-2.376,10.993a9.119,9.119,0,0,0,2.52,8.292h0A17.8,17.8,0,0,0,2561.69,1071.36Z" transform="translate(-2550.337 -1044.379)" fill="#f7b58e"/>
        </g>
        <path id="Trazado_20633" data-name="Trazado 20633" d="M2543.124,1037.014a3.756,3.756,0,0,1,4.646-2.049,29.922,29.922,0,0,0,4.557,1.21c3.8.648,8.766-.035,9.751-5.814s-6.452-5.008-6.452-5.008-9.937-.276-16.31,3c-3.049,1.565-4.648,8.768-3.539,12.278a18.017,18.017,0,0,0,2.947,5.609h0Z" transform="translate(-2532.871 -1025.318)" fill="#212b53"/>
        <path id="Trazado_20634" data-name="Trazado 20634" d="M2542.871,1089.3a2.9,2.9,0,0,1,3.484.919c.95,1.111.932,2.5-.042,3.1a2.9,2.9,0,0,1-3.485-.92C2541.878,1091.29,2541.9,1089.9,2542.871,1089.3Z" transform="translate(-2538.092 -1074.933)" fill="#f7b58e"/>
      </g>
      <path id="Trazado_20635" data-name="Trazado 20635" d="M2421.224,1174.784c29.839,11.257,17.321,80.907,17.321,80.907l-54.091,1.2S2377.576,1170.135,2421.224,1174.784Z" transform="translate(-2383.544 -1141.592)" fill="#01888b"/>
      <path id="Trazado_20636" data-name="Trazado 20636" d="M2427.116,1265.486s12.66,44.268,24.253,44.539,40.739-43.033,40.739-43.033l-7.049-4.353-24.136,20.947c-4.277-13.115-10.394-31.248-10.394-31.248Z" transform="translate(-2417.08 -1202.137)" fill="#01888b"/>
      <g id="Grupo_10902" data-name="Grupo 10902" transform="translate(11.83 52.603)">
        <path id="Trazado_20637" data-name="Trazado 20637" d="M2569.985,1271.533l-25.091,21.422-.243-.747c-3.181-9.752-7.422-22.407-9.354-28.156.261-.2.513-.4.778-.593l-.793.548c-.011-.03-.021-.062-.031-.091.293-.235.578-.475.859-.715,1.8,5.34,6.035,17.98,9.288,27.937l23.885-20.038Z" transform="translate(-2513.133 -1263.201)" fill="#fff"/>
        <path id="Trazado_20638" data-name="Trazado 20638" d="M2436.211,1343.982c4.136,12.484,13.22,36.708,21.487,36.9,7.938.163,24.253-21.366,33.437-33.94.34.443.345.333.694.756-9.064,12.4-24.717,33.08-33.331,34.18a5.492,5.492,0,0,1-.825.045c-8.971-.209-18.25-24.833-22.448-37.552Q2435.722,1344.187,2436.211,1343.982Z" transform="translate(-2435.225 -1326.119)" fill="#fff"/>
      </g>
      <path id="Trazado_20639" data-name="Trazado 20639" d="M2531.069,1163.067l-10.115-3.889-3.513,3.759,14.473,3.955Z" transform="translate(-2487.43 -1129.577)" fill="url(#linear-gradient-3)"/>
      <g id="Grupo_10903" data-name="Grupo 10903" transform="translate(43.659 260.644)">
        <path id="Trazado_20640" data-name="Trazado 20640" d="M2588.522,2233.851s4.52,4.192,14.826,6.817c2.268.578,4.715-.195,4.715,3.549h-12.507l-10.4-1.8v1.8h-5.618s-1.564-9.187,1.717-10.366Z" transform="translate(-2579.165 -2227.252)" fill="#212b53"/>
        <path id="Trazado_20641" data-name="Trazado 20641" d="M2589.032,2204.007l1.1,6.6h0a6.355,6.355,0,0,1-6.882.231l-.386-.231-1.631-6.6Z" transform="translate(-2580.78 -2204.007)" fill="#f7b58e"/>
      </g>
      <path id="Trazado_20642" data-name="Trazado 20642" d="M2383.394,1530.168s0,29.779,23.794,64.181a37.417,37.417,0,0,1,6.607,20.942c.286,32.673,11.452,64.28,11.452,64.28h9.787l2.993-146.941Z" transform="translate(-2383.026 -1418.53)" fill="#053c5e"/>
      <g id="Grupo_10904" data-name="Grupo 10904" transform="translate(71.411 34.867)">
        <rect id="Rectángulo_2296" data-name="Rectángulo 2296" width="26.582" height="2.085" transform="translate(0 23.223) rotate(-60.885)" fill="#01888b"/>
      </g>
      <path id="Trazado_20643" data-name="Trazado 20643" d="M2697.92,1239.623l3.829-3.112a18.658,18.658,0,0,0,4.519-12.248l-.168-6.471h0c-1.328.682-2.147,2.977-2.809,4.314l-4.821,8.022-6.147,6.037Z" transform="translate(-2623.642 -1175.23)" fill="#f7b58e"/>
      <path id="Trazado_20644" data-name="Trazado 20644" d="M2706.957,1241.034c-.8-.7-4.324,3.171-4.527,1.58,0,0,.859-6.768,2.329-8.5s2.267-6.069,2.267-6.069,1.539-.005,1.455,2.428c-.042,1.208-.934,2.929-1.037,4.731C2707.338,1237.027,2708.015,1238.941,2706.957,1241.034Z" transform="translate(-2631.514 -1183.214)" fill="#f7b58e"/>
    </g>
    <g id="Grupo_10922" data-name="Grupo 10922" transform="translate(860.083 402.309)">
      <path id="Trazado_20645" data-name="Trazado 20645" d="M2998.258,2037.272l-6.522,45.923-10.143-3.27,1.751-19.1Z" transform="translate(-2943.47 -1804.689)" fill="#f39f85"/>
      <path id="Trazado_20646" data-name="Trazado 20646" d="M2926.7,2237.3l-.473-8.147,1-4.428-11.921-1.956-1.863,5.06-12.138,4.982s-3.572,1.765-3.639,4.489h19.02l4.229-2.126-.052,2.126Z" transform="translate(-2878.098 -1949.167)" fill="#62c0c3"/>
      <g id="Grupo_10906" data-name="Grupo 10906" transform="translate(19.563 286.608)">
        <path id="Trazado_20647" data-name="Trazado 20647" d="M2916.681,2283.11h-19.02a3.481,3.481,0,0,1,.412-1.524l21.384.128Z" transform="translate(-2897.661 -2281.586)" fill="#11858a"/>
        <path id="Trazado_20648" data-name="Trazado 20648" d="M3002.6,2282.206l5.725.034.079,1.353h-5.838Z" transform="translate(-2979.365 -2282.069)" fill="#11858a"/>
      </g>
      <path id="Trazado_20649" data-name="Trazado 20649" d="M3184.3,2081.7l3.636,27.135,10.143,3.269-3.537-37.715Z" transform="translate(-3101.35 -1833.599)" fill="#f39f85"/>
      <path id="Trazado_20650" data-name="Trazado 20650" d="M3155.309,2237.3l-1.733-14.531h-11.754l.229,5.06-12.137,4.982s-3.572,1.765-3.64,4.489h19.02l4.23-2.126-.052,2.126Z" transform="translate(-3056.157 -1949.167)" fill="#62c0c3"/>
      <g id="Grupo_10907" data-name="Grupo 10907" transform="translate(70.117 286.608)">
        <path id="Trazado_20651" data-name="Trazado 20651" d="M3145.293,2283.11h-19.02a3.488,3.488,0,0,1,.412-1.524l21.385.128Z" transform="translate(-3126.274 -2281.586)" fill="#11858a"/>
        <path id="Trazado_20652" data-name="Trazado 20652" d="M3231.21,2282.206l5.725.034.079,1.353h-5.838Z" transform="translate(-3207.978 -2282.069)" fill="#11858a"/>
      </g>
      <path id="Trazado_20653" data-name="Trazado 20653" d="M2996.63,1447.948,2985.6,1532.3l-3.6,76.334h13.18s17.081-61.708,12.762-75.535c18.163-34.094,29.948-61.539,23.407-85.153Z" transform="translate(-2943.784 -1345.683)" fill="#222c53"/>
      <path id="Trazado_20654" data-name="Trazado 20654" d="M3071.535,1447.948l11.565,83.578,14.4,77.914h11.779s.15-60.975-4.718-79.537c.5-30.867,18.821-66.68-.639-81.954Z" transform="translate(-3013.522 -1345.683)" fill="#0c496d"/>
      <g id="Grupo_10921" data-name="Grupo 10921" transform="translate(0 0)">
        <g id="Grupo_10908" data-name="Grupo 10908" transform="translate(0 41.954)">
          <path id="Trazado_20655" data-name="Trazado 20655" d="M2823.745,1202.013l-6.217-7.056s-9.618-8.338-8.193-11.573,3.707-9.11,5.278-8.05,10.177,10.475,9.824,12.818l-.348,2.2,3.6,4.462Z" transform="translate(-2809.191 -1175.209)" fill="#f6b590"/>
        </g>
        <g id="Grupo_10909" data-name="Grupo 10909" transform="translate(8.543 42.436)">
          <path id="Trazado_20656" data-name="Trazado 20656" d="M2912.963,1178.62c7.614,5.524-8.843,33.011-26.047,46.846a11.135,11.135,0,0,1-14.4-.128c-11.551-10.339-24.687-24.668-24.687-24.668l8.233-7.326s19.07,16.19,23.158,19.853C2883.436,1203.82,2901.959,1170.635,2912.963,1178.62Z" transform="translate(-2847.825 -1177.391)" fill="#fdd148"/>
        </g>
        <g id="Grupo_10915" data-name="Grupo 10915" transform="translate(58.059)">
          <g id="Grupo_10910" data-name="Grupo 10910" transform="translate(9.506 26.262)">
            <path id="Trazado_20657" data-name="Trazado 20657" d="M3115.137,1115.512l-.4,9.177h10.913l1.039-16.769-2.9-3.676Z" transform="translate(-3114.735 -1104.245)" fill="#f39f85"/>
          </g>
          <g id="Grupo_10911" data-name="Grupo 10911" transform="translate(2.852 12.475)">
            <path id="Trazado_20658" data-name="Trazado 20658" d="M3084.809,1050.944s-1.206,17.726,2.889,18.453,11.162-3.862,13.886-8.781a66.379,66.379,0,0,0,4.575-10.992l-8.013-7.724Z" transform="translate(-3084.643 -1041.899)" fill="#f6b590"/>
          </g>
          <g id="Grupo_10912" data-name="Grupo 10912" transform="translate(11.579)">
            <path id="Trazado_20659" data-name="Trazado 20659" d="M3125.307,996.384s-1.479-3.928-1.152-6.866,2.842-4.589,6.409-3.862,4.6,3.494,4.324,5.279-3.88,6.44-3.88,6.44Z" transform="translate(-3124.108 -985.485)" fill="#0a3c5e"/>
          </g>
          <g id="Grupo_10913" data-name="Grupo 10913" transform="translate(0 7.634)">
            <path id="Trazado_20660" data-name="Trazado 20660" d="M3081.148,1032.078s1.7,4.192,9.832,3.136c-.045,1.782-.966,3.2.546,4.853s.066,3.763.066,3.763l1.4,1.98a13.865,13.865,0,0,1,1.881-5.183c1.494-2.22,4.85-4.456,4.443-10.992s-5.97-12.148-12.774-6.8c-3.543-5.017-10.044-2.808-13.075,2.344-2.79,4.74-2.155,9.667,1.732,10.2C3078.8,1035.874,3081.148,1032.078,3081.148,1032.078Z" transform="translate(-3071.746 -1020.008)" fill="#222c53"/>
          </g>
          <g id="Grupo_10914" data-name="Grupo 10914" transform="translate(18.704 25.997)">
            <path id="Trazado_20661" data-name="Trazado 20661" d="M3157.129,1104.049a1.665,1.665,0,0,1,2.126-.848c1.375.625-.674,6.351-2.256,6.6S3157.129,1104.049,3157.129,1104.049Z" transform="translate(-3156.329 -1103.047)" fill="#f6b590"/>
          </g>
        </g>
        <g id="Grupo_10916" data-name="Grupo 10916" transform="translate(2.793 37.768)">
          <path id="Trazado_20662" data-name="Trazado 20662" d="M2827.023,1156.326l-5.1,3.722a.242.242,0,0,0-.1.242l3.772,19.372a.229.229,0,0,0,.407.087l4.864-5.578a.242.242,0,0,0,.049-.2l-3.539-17.515A.226.226,0,0,0,2827.023,1156.326Z" transform="translate(-2821.823 -1156.281)" fill="#222c53"/>
        </g>
        <g id="Grupo_10917" data-name="Grupo 10917" transform="translate(11.271 44.867)">
          <path id="Trazado_20663" data-name="Trazado 20663" d="M2863.994,1199.305l1.278-8.313s-3.945-1.442-4.721-2.609c-1.113,1.675.313,3.5,2.256,3.69C2861.328,1194.364,2859.715,1197.693,2863.994,1199.305Z" transform="translate(-2860.16 -1188.383)" fill="#f6b590"/>
        </g>
        <g id="Grupo_10918" data-name="Grupo 10918" transform="translate(52.786 42.187)">
          <path id="Trazado_20664" data-name="Trazado 20664" d="M3064.852,1176.57c5.584-.961,12.94.524,15.619,1.857,7.979,3.97,5.046,57.915,5.046,57.915H3047.96C3049.931,1221.1,3041.073,1180.661,3064.852,1176.57Z" transform="translate(-3047.901 -1176.263)" fill="#f6a948"/>
        </g>
        <g id="Grupo_10919" data-name="Grupo 10919" transform="translate(77.35 92.479)">
          <path id="Trazado_20665" data-name="Trazado 20665" d="M3176.57,1403.694l-14.677,13.516s-.867,9.922-2.682,13.931,7.85,2.2,9.681-1.666-.51-8.926-.51-8.926l21.322-16.855Z" transform="translate(-3158.985 -1403.694)" fill="#f6b590"/>
        </g>
        <g id="Grupo_10920" data-name="Grupo 10920" transform="translate(77.506 44.056)">
          <path id="Trazado_20666" data-name="Trazado 20666" d="M3161.023,1186.592c5.4-8.387,35.181,12.927,44.219,32.387a6.175,6.175,0,0,1-1.591,7.141c-12.394,11.128-32.087,23.343-32.087,23.343l-5.819-8.817s19.334-15.838,23.694-19.56C3180.875,1216.059,3153.356,1198.493,3161.023,1186.592Z" transform="translate(-3159.689 -1184.715)" fill="#fdd148"/>
        </g>
      </g>
    </g>
    <g id="Grupo_10934" data-name="Grupo 10934" transform="translate(626.359 446.8)">
      <path id="Trazado_20667" data-name="Trazado 20667" d="M1908.284,1400.541l-4.124-2.591,12.866-5.737-5.325-12.128a17.571,17.571,0,0,0-14.9-9.37h-26.488a17.57,17.57,0,0,0-14.9,9.37l-5.325,12.128,12.866,5.737-4.123,2.591-2.285,19.708,27.01-.423,27.01.423Z" transform="translate(-1828.453 -1330.021)" fill="#01888b"/>
      <path id="Trazado_20668" data-name="Trazado 20668" d="M2087.178,1467.933l2.656,8.774a16.961,16.961,0,0,1-5.357,17.8l-12.052,9.414-3.875-10.536,6.667-6.216a6.776,6.776,0,0,0,1.653-7.774l-2.557-5.731Z" transform="translate(-1998.604 -1405.74)" fill="#f7b58e"/>
      <g id="Grupo_10926" data-name="Grupo 10926" transform="translate(0.146 111.573)">
        <path id="Trazado_20669" data-name="Trazado 20669" d="M1869.77,1700.795l-10.734,1.457-2.066-2.271,1.048-4.114,10.316-1.488Z" transform="translate(-1833.958 -1693.687)" fill="#f7b58e"/>
        <g id="Grupo_10925" data-name="Grupo 10925">
          <path id="Trazado_20670" data-name="Trazado 20670" d="M1777.981,1699.808l-13.509,1.666s-13.3,1.726-11.381-5.6c1.851-7.075,13.787-3.936,13.787-3.936l11.1,1.341h0a5.618,5.618,0,0,0-.154,6.3Z" transform="translate(-1752.903 -1691.243)" fill="#01888b"/>
          <path id="Trazado_20671" data-name="Trazado 20671" d="M1753.092,1696.512c.745-2.848,3.125-4.039,5.7-4.448v10.093C1755.45,1701.781,1752.058,1700.464,1753.092,1696.512Z" transform="translate(-1752.903 -1691.882)" fill="#fff"/>
          <g id="Grupo_10923" data-name="Grupo 10923" transform="translate(18.521 2.771)">
            <line id="Línea_67" data-name="Línea 67" y2="4.337" transform="translate(0.555)" fill="#f7b58e"/>
            <rect id="Rectángulo_2297" data-name="Rectángulo 2297" width="1.11" height="4.337" fill="#fff"/>
          </g>
          <g id="Grupo_10924" data-name="Grupo 10924" transform="translate(15.78 2.771)">
            <line id="Línea_68" data-name="Línea 68" y2="4.337" transform="translate(0.555)" fill="#f7b58e"/>
            <rect id="Rectángulo_2298" data-name="Rectángulo 2298" width="1.11" height="4.337" fill="#fff"/>
          </g>
        </g>
      </g>
      <path id="Trazado_20672" data-name="Trazado 20672" d="M1838.816,1467.933l-2.656,8.774a16.959,16.959,0,0,0,5.357,17.8l12.052,9.414,3.874-10.536-6.666-6.216a6.776,6.776,0,0,1-1.653-7.774l2.557-5.731Z" transform="translate(-1817.045 -1405.74)" fill="#f7b58e"/>
      <g id="Grupo_10930" data-name="Grupo 10930" transform="translate(75.406 111.573)">
        <path id="Trazado_20673" data-name="Trazado 20673" d="M2093.244,1701.6l10.913.652,2.066-2.271-1.048-4.114-10.316-1.488Z" transform="translate(-2093.244 -1693.687)" fill="#f7b58e"/>
        <g id="Grupo_10929" data-name="Grupo 10929" transform="translate(10.914)">
          <path id="Trazado_20674" data-name="Trazado 20674" d="M2142.6,1699.808l13.509,1.666s13.3,1.726,11.381-5.6c-1.851-7.075-13.787-3.936-13.787-3.936l-11.1,1.341h0a5.618,5.618,0,0,1,.153,6.3Z" transform="translate(-2142.598 -1691.243)" fill="#01888b"/>
          <path id="Trazado_20675" data-name="Trazado 20675" d="M2235.07,1696.512c-.745-2.848-3.125-4.039-5.7-4.448v10.093C2232.713,1701.781,2236.1,1700.464,2235.07,1696.512Z" transform="translate(-2210.18 -1691.882)" fill="#fff"/>
          <g id="Grupo_10927" data-name="Grupo 10927" transform="translate(5.447 2.771)">
            <line id="Línea_69" data-name="Línea 69" y2="4.337" transform="translate(0.555)" fill="#f7b58e"/>
            <rect id="Rectángulo_2299" data-name="Rectángulo 2299" width="1.11" height="4.337" fill="#fff"/>
          </g>
          <g id="Grupo_10928" data-name="Grupo 10928" transform="translate(8.189 2.771)">
            <line id="Línea_70" data-name="Línea 70" y2="4.337" transform="translate(0.555)" fill="#f7b58e"/>
            <rect id="Rectángulo_2300" data-name="Rectángulo 2300" width="1.11" height="4.337" fill="#fff"/>
          </g>
        </g>
      </g>
      <g id="Grupo_10931" data-name="Grupo 10931" transform="translate(34.69 75.032)">
        <rect id="Rectángulo_2301" data-name="Rectángulo 2301" width="44.525" height="26.648" fill="#add7c5"/>
        <rect id="Rectángulo_2302" data-name="Rectángulo 2302" width="44.525" height="2.221" transform="translate(0 25.537)" fill="#cab7cc"/>
        <path id="Trazado_20676" data-name="Trazado 20676" d="M2001.739,1568.888a1.781,1.781,0,1,0,1.781-1.781A1.781,1.781,0,0,0,2001.739,1568.888Z" transform="translate(-1981.257 -1558.016)" fill="#fff"/>
      </g>
      <path id="Trazado_20677" data-name="Trazado 20677" d="M1965.032,1594.7c8.9,15.844-80.7,25.569-80.7,25.569l-1.519-7.057S1954.062,1575.16,1965.032,1594.7Z" transform="translate(-1853.942 -1500.128)" fill="#212b53"/>
      <path id="Trazado_20678" data-name="Trazado 20678" d="M1752.7,1594.69c-7.557,16.525,81.441,26.435,81.441,26.435l.661-7.939S1761.63,1575.153,1752.7,1594.69Z" transform="translate(-1752.241 -1500.121)" fill="#053c5e"/>
      <g id="Grupo_10933" data-name="Grupo 10933" transform="translate(34.81 0)">
        <path id="Trazado_20679" data-name="Trazado 20679" d="M1980.9,1335.574c-.825-2.5-2.32-9.9-2.32-9.9l-9.534,1.862v8.086s3.164,2.244,5.826,2.266C1977.78,1337.906,1981,1335.855,1980.9,1335.574Z" transform="translate(-1955.914 -1294.935)" fill="#f39f85"/>
        <g id="Grupo_10932" data-name="Grupo 10932" transform="translate(4.877 7.018)">
          <path id="Trazado_20680" data-name="Trazado 20680" d="M1951.829,1229.015l-1.8-10.591-18.32,2.169,1.11,12.2s1.416,15.1,11.168,13.3C1954.539,1244.154,1952.3,1228.88,1951.829,1229.015Z" transform="translate(-1931.712 -1218.424)" fill="#f7b58e"/>
        </g>
        <path id="Trazado_20681" data-name="Trazado 20681" d="M1938.931,1202.846a7.261,7.261,0,0,1,.779-4.406c3.165-5.178-1.625-6.684-3.295-7.131-1.847-.494-2.435-3.369-4.915-4.287-3.788-1.4-5.92,1.989-7.975,2.25s-4.084-1.933-6.468.336-1.364,4.384-1.969,5.607-3.092-.827-4.9,3c-1.374,2.913.143,4.622,2,5.6a8.132,8.132,0,0,0,7,.169,31.626,31.626,0,0,0,7.349-4.464c.713-.581,6.3-.966,6.768-.172,1.575,2.692,1.7,11.645,1.7,11.645l1.631-2.284A5.8,5.8,0,0,0,1938.931,1202.846Z" transform="translate(-1909.659 -1186.685)" fill="#212b53"/>
        <path id="Trazado_20682" data-name="Trazado 20682" d="M2014.017,1265.966c-.491,1.277-.2,2.579.654,2.907s1.942-.442,2.434-1.72.2-2.58-.654-2.907S2014.509,1264.688,2014.017,1265.966Z" transform="translate(-1990.755 -1247.036)" fill="#f7b58e"/>
      </g>
    </g>
    <g id="Grupo_10943" data-name="Grupo 10943" transform="translate(455.018 405.443)">
      <g id="Grupo_10935" data-name="Grupo 10935" transform="translate(99.251 270.645)">
        <path id="Trazado_20683" data-name="Trazado 20683" d="M1444.644,2251.685s-4.258,3.949-13.965,6.422c-2.137.545-4.442-.183-4.442,3.343h11.781l9.8-1.694v1.694h5.292s1.474-8.655-1.617-9.765Z" transform="translate(-1426.237 -2245.469)" fill="#212b53"/>
        <path id="Trazado_20684" data-name="Trazado 20684" d="M1510.074,2223.573l-.6,6.216h0a5.987,5.987,0,0,0,6.483.218l.363-.218,2.2-6.216Z" transform="translate(-1491.071 -2223.573)" fill="#f7b58e"/>
      </g>
      <g id="Grupo_10936" data-name="Grupo 10936" transform="translate(72.657 267.982)">
        <path id="Trazado_20685" data-name="Trazado 20685" d="M1320.6,2238.476s-.027,6.178-12.437,9.888c-2.546.761-1.718,1.514-2.2,2.584h14.282l5.592-6.287,1.739,1.494,4.032-3.961s-1.883-5.733-4.953-5.783Z" transform="translate(-1305.972 -2230.909)" fill="#212b53"/>
        <path id="Trazado_20686" data-name="Trazado 20686" d="M1361.652,2213.748l2.32,5.35h0a5.6,5.6,0,0,0,5.8-1.764l.256-.3-1.875-5.5Z" transform="translate(-1349.34 -2211.531)" fill="#f7b58e"/>
      </g>
      <path id="Trazado_20687" data-name="Trazado 20687" d="M1391.891,1568.141l25.555,104.562h9.9s3.32-60.245-11.936-89.969c6.476-48.666,1.011-67.483,1.011-67.483Z" transform="translate(-1300.235 -1401.237)" fill="#212b53"/>
      <g id="Grupo_10937" data-name="Grupo 10937" transform="translate(38.911 96.874)">
        <path id="Trazado_20688" data-name="Trazado 20688" d="M1170.738,1454.441c-.525.332-2.427,1.294-6.674,1.072-3.811-.2-11.58-3.093-10.615,1.1,3.309,2.593,6.9,6.066,6.9,6.066,2.151,1.356,6.373.865,8.957.028l7.674-3.586s1.2-4.136,1.293-4.321l-1.51-.929A18.5,18.5,0,0,1,1170.738,1454.441Z" transform="translate(-1153.366 -1450.306)" fill="#f7b58e"/>
        <path id="Trazado_20689" data-name="Trazado 20689" d="M1204.488,1443.466a3.209,3.209,0,0,1-.486.423c.469.286.917.6,1.352.92,1.963.337,3.915.738,5.874,1.1.051-1.233.126-2.963.152-3.085l-12.344-5.079s-1.242,1.3.879,3.179A12.644,12.644,0,0,0,1204.488,1443.466Z" transform="translate(-1188.656 -1437.743)" fill="#f7b58e"/>
      </g>
      <g id="Grupo_10938" data-name="Grupo 10938" transform="translate(0 36.873)">
        <path id="Trazado_20690" data-name="Trazado 20690" d="M990.443,1178.892c-.6-.178-2.57-.978-5.195-4.326-2.355-3-5.281-10.76-7.808-7.276.221,4.2-.039,9.184-.039,9.184.391,2.512,3.536,5.371,5.866,6.769l7.747,3.426s3.907-1.812,4.106-1.866l-.292-1.748A18.488,18.488,0,0,1,990.443,1178.892Z" transform="translate(-977.402 -1166.408)" fill="#f7b58e"/>
        <path id="Trazado_20691" data-name="Trazado 20691" d="M1022.553,1194.612a3.193,3.193,0,0,1-.638-.088c.093.542.153,1.083.2,1.624,1.036,1.7,2.017,3.436,3.034,5.149.963-.772,2.316-1.853,2.425-1.913l-4.285-12.641s-1.792-.084-1.818,2.753A12.647,12.647,0,0,0,1022.553,1194.612Z" transform="translate(-1011.721 -1182.245)" fill="#f7b58e"/>
      </g>
      <path id="Trazado_20692" data-name="Trazado 20692" d="M1101.094,1206.7s-17.519,18.39-29.1,17.907-34.27-11.423-34.27-11.423l-5.149,4.562s23.973,26.651,39.9,26.651a64.469,64.469,0,0,0,28.62-7.158Z" transform="translate(-1020.372 -1160.916)" fill="url(#linear-gradient)"/>
      <g id="Grupo_10939" data-name="Grupo 10939" transform="translate(76.798)">
        <path id="Trazado_20693" data-name="Trazado 20693" d="M1367.028,1116.005l.278,8.563,11.389-.522-3.349-15.264Z" transform="translate(-1357.667 -1084.652)" fill="#f39f85"/>
        <path id="Trazado_20694" data-name="Trazado 20694" d="M1337.521,1036.877s-5.612,19.567-2.1,23.131,11.145-.693,11.145-.693l9.351-9.107-12.478-12.793Z" transform="translate(-1332.15 -1028.647)" fill="#f7b58e"/>
        <path id="Trazado_20695" data-name="Trazado 20695" d="M1324.7,1001.332s.568,7.826,11.136,8.785c2.621,1.146,2.947,4.392,2.718,7.059-.267,3.093.889,1.116,2.3,3.881l1.559,7.041s15.547-12.849,5.785-22.685S1324.7,1001.332,1324.7,1001.332Z" transform="translate(-1324.697 -999.659)" fill="#212b53"/>
        <path id="Trazado_20696" data-name="Trazado 20696" d="M1386.271,1081.067a2.544,2.544,0,0,0-3.122.508c-.924.89-1.026,2.105-.226,2.715a2.546,2.546,0,0,0,3.122-.508C1386.97,1082.892,1387.071,1081.677,1386.271,1081.067Z" transform="translate(-1369.628 -1062.799)" fill="#f7b58e"/>
      </g>
      <path id="Trazado_20697" data-name="Trazado 20697" d="M1336.454,1174.349s-.4,1.287-11.047,1.287c-20.488,16.172-7.035,74.1-7.035,74.1h38.035C1355.762,1186.016,1336.454,1174.349,1336.454,1174.349Z" transform="translate(-1239.595 -1135.719)" fill="#afd8c7"/>
      <path id="Trazado_20698" data-name="Trazado 20698" d="M1265.83,1180.848s14.116,6.758,13.807,14.6-41.758,24.659-41.758,24.659l3.862,7.723s65.648-5.792,65.648-30.452-31.483-42.061-31.483-42.061l-9.916,2.381.1,3.115" transform="translate(-1180.279 -1120.897)" fill="#afd8c7"/>
      <g id="Grupo_10940" data-name="Grupo 10940" transform="translate(61.42 92.264)">
        <path id="Trazado_20699" data-name="Trazado 20699" d="M1287.906,1425.129c7-1.932,14.628-4.623,20.733-8.235.081.324.169.645.269.963-5.3,3.088-12.263,5.836-20.762,8.182a211.813,211.813,0,0,1-32.907,5.994l-.083-.937A210.806,210.806,0,0,0,1287.906,1425.129Z" transform="translate(-1255.155 -1416.894)" fill="#fff"/>
      </g>
      <g id="Grupo_10941" data-name="Grupo 10941" transform="translate(57.555 73.26)">
        <path id="Trazado_20700" data-name="Trazado 20700" d="M1237.767,1357.007l-.089-.2c.414-.181,41.389-18.164,41.692-25.849l.221.008C1279.283,1338.786,1239.462,1356.267,1237.767,1357.007Z" transform="translate(-1237.678 -1330.955)" fill="#fff"/>
      </g>
      <g id="Grupo_10942" data-name="Grupo 10942" transform="translate(57.467 73.251)">
        <path id="Trazado_20701" data-name="Trazado 20701" d="M1237.543,1357.179l-.266-.608c.1-.045,10.473-4.585,20.744-10.022,17.051-9.027,20.731-13.484,20.816-15.633l.663.026c-.133,3.379-7.256,8.828-21.171,16.195C1248.036,1352.585,1237.647,1357.134,1237.543,1357.179Z" transform="translate(-1237.278 -1330.916)" fill="#fff"/>
      </g>
      <path id="Trazado_20702" data-name="Trazado 20702" d="M1292.714,1515.25s-14.125,42.029-11.229,68.576,16.805,88.763,16.805,88.763h9.792s3.447-47.977-2.488-73.3c-1.268-5.413,1.5-17.475,4.8-21.948,15.772-21.354,20.35-62.089,20.35-62.089Z" transform="translate(-1213.938 -1401.237)" fill="#053c5e"/>
    </g>
    <g id="Grupo_10954" data-name="Grupo 10954" transform="translate(360.857 421.63)">
      <g id="Grupo_10951" data-name="Grupo 10951">
        <path id="Trazado_20703" data-name="Trazado 20703" d="M728.938,1275.508l14.7,22.868c3.141,4.885,8.031,10.367,13.668,11.763l30.2,7.479v4.418s-30.177,2.89-43.866-4.5-23.505-24.922-23.505-24.922Z" transform="translate(-682.861 -1230.697)" fill="#f7b58e"/>
        <path id="Trazado_20704" data-name="Trazado 20704" d="M598.97,1239.292s7.541-14.162,17.413-16.639c8.459,0,10.441,1.238,10.441,1.238s10.846,13.444,14.622,22.139a12.445,12.445,0,0,1-.055,10.184c-6.661,14.356-5.814,42-5.814,42H602.3s5.82-41.371,4.707-49.546S598.97,1239.292,598.97,1239.292Z" transform="translate(-588.491 -1189.53)" fill="#00666b"/>
        <g id="Grupo_10945" data-name="Grupo 10945" transform="translate(62.759 254.017)">
          <g id="Grupo_10944" data-name="Grupo 10944" transform="translate(1.807)">
            <path id="Trazado_20705" data-name="Trazado 20705" d="M850.265,2221.58l1.963,5.109a6.566,6.566,0,0,0,2.675,3.4,26.4,26.4,0,0,0,6.761,2.931c-3.936,3.36-10.2-.011-13.78-2.492a8.769,8.769,0,0,1-3.5-5.073l-.82-3.871Z" transform="translate(-843.562 -2221.58)" fill="#f7b58e"/>
          </g>
          <path id="Trazado_20706" data-name="Trazado 20706" d="M837.625,2233.6s-2.662,2.092-2.174,4.759,1.179,8.913,1.179,8.913h2.736l-.084-5.825c.008-.381,5.87,5.825,6.862,5.825h14.482s.962-3.929-7.542-5.192S837.625,2233.6,837.625,2233.6Z" transform="translate(-835.391 -2230.941)" fill="#053c5e"/>
        </g>
        <path id="Trazado_20707" data-name="Trazado 20707" d="M685.13,1564.342l25.02,145.666-8.092.165s-17.751-30.615-20.364-55.994c-.432-4.2-.631-8.465-3.37-11.673-20.9-24.475-14.951-63.135-14.951-63.135l11.3-15.029Z" transform="translate(-638.043 -1455.66)" fill="#212b53"/>
        <g id="Grupo_10947" data-name="Grupo 10947" transform="translate(0 254.017)">
          <g id="Grupo_10946" data-name="Grupo 10946" transform="translate(1.807)">
            <path id="Trazado_20708" data-name="Trazado 20708" d="M566.457,2221.58l1.963,5.109a6.564,6.564,0,0,0,2.674,3.4,26.4,26.4,0,0,0,6.761,2.931c-3.936,3.36-10.2-.011-13.781-2.492a8.77,8.77,0,0,1-3.5-5.073l-.82-3.871Z" transform="translate(-559.754 -2221.58)" fill="#f7b58e"/>
          </g>
          <path id="Trazado_20709" data-name="Trazado 20709" d="M553.817,2233.6s-2.662,2.092-2.174,4.759,1.179,8.913,1.179,8.913h2.737l-.084-5.825c.008-.381,5.869,5.825,6.862,5.825h14.482s.962-3.929-7.542-5.192S553.817,2233.6,553.817,2233.6Z" transform="translate(-551.583 -2230.941)" fill="#053c5e"/>
        </g>
        <g id="Grupo_10949" data-name="Grupo 10949" transform="translate(19.383)">
          <path id="Trazado_20710" data-name="Trazado 20710" d="M692.166,1170.879l.021,15.012-9.011-9.823.971-13.973Z" transform="translate(-673.459 -1142.363)" fill="#f39f85"/>
          <path id="Trazado_20711" data-name="Trazado 20711" d="M659.445,1079.443c-6.242.848-9.347,8.849-9.347,8.849l.071,23.68-10.823-9.357a84.362,84.362,0,0,1,1.884-22.324c2.316-7.33,11.657-9.26,18.215-5.685,3.189,1.739,5.085,5.152,6.211,8.541a26.993,26.993,0,0,1,.642,14.137l-3.713,17.376-4.62-4.581a18.882,18.882,0,0,1-.021-8.7C660.322,1092.656,663.635,1078.873,659.445,1079.443Z" transform="translate(-639.238 -1072.861)" fill="#212b53"/>
          <path id="Trazado_20712" data-name="Trazado 20712" d="M678.527,1142.616a2.206,2.206,0,0,1,2.925.287,1.9,1.9,0,0,1,.391,2.738,2.207,2.207,0,0,1-2.925-.286A1.9,1.9,0,0,1,678.527,1142.616Z" transform="translate(-669.505 -1126.853)" fill="#f7b58e"/>
          <g id="Grupo_10948" data-name="Grupo 10948" transform="translate(10.68 4.86)">
            <path id="Trazado_20713" data-name="Trazado 20713" d="M698.166,1118.695a4.866,4.866,0,0,0,2.915-.758c3.486-5.555-.485-20.529-.485-20.529l-5.571-2.57-7.078,4.839-.4,10.034a8.427,8.427,0,0,0,3.161,6.922h0A13.518,13.518,0,0,0,698.166,1118.695Z" transform="translate(-687.536 -1094.837)" fill="#f7b58e"/>
          </g>
          <path id="Trazado_20714" data-name="Trazado 20714" d="M688.378,1089.8c1.335,4.475-10.525,9.669-10.525,9.669l-2.98-5.586,5.444-6.673,6.882,1.1A3.958,3.958,0,0,1,688.378,1089.8Z" transform="translate(-666.994 -1084.033)" fill="#212b53"/>
          <path id="Trazado_20715" data-name="Trazado 20715" d="M736.186,1099.911c.249,1.765,3,3.907,3,3.907l.259-2.11-.628-1.483-1.413-.785S735.938,1098.145,736.186,1099.911Z" transform="translate(-714.726 -1093.206)" fill="#212b53"/>
        </g>
        <path id="Trazado_20716" data-name="Trazado 20716" d="M569.765,1564.342s-23.519,10.116-11.212,73.6a23.924,23.924,0,0,1-.806,11.231c-5.211,17.709-2.26,61-2.26,61h8.13s27.216-112.966,28.971-145.832Z" transform="translate(-553.975 -1455.66)" fill="#053c5e"/>
        <g id="Grupo_10950" data-name="Grupo 10950" transform="translate(102.741 81.996)">
          <path id="Trazado_20717" data-name="Trazado 20717" d="M1022.163,1454.708c.473.182,2.147.647,5.509-.209,3.017-.768,8.768-4.323,8.666-.815-2.232,2.6-4.546,5.953-4.546,5.953-1.5,1.428-4.958,1.711-7.16,1.454l-6.71-1.642s-1.623-3.116-1.724-3.249l1.059-.984A15.082,15.082,0,0,0,1022.163,1454.708Z" transform="translate(-1016.198 -1450.284)" fill="#f7b58e"/>
          <path id="Trazado_20718" data-name="Trazado 20718" d="M1030.11,1449.113a2.611,2.611,0,0,0,.456.261c-.329.3-.638.624-.934.952-1.516.583-3.013,1.216-4.522,1.817-.238-.978-.575-2.35-.615-2.443l9.061-6.035s1.2.837-.2,2.684A10.31,10.31,0,0,1,1030.11,1449.113Z" transform="translate(-1022.66 -1443.665)" fill="#f7b58e"/>
        </g>
      </g>
      <g id="Grupo_10952" data-name="Grupo 10952" transform="translate(11.585 34.481)">
        <path id="Trazado_20719" data-name="Trazado 20719" d="M616.374,1228.79l-.546.826c.134.088,13.337,8.962,13.337,23.45v59.049H604.983l.769-45.469c-.328.26-.661.513-1,.755l-.774,45.7h26.181v-60.041C630.156,1238.051,616.512,1228.88,616.374,1228.79Z" transform="translate(-603.975 -1228.79)" fill="#01888b"/>
      </g>
      <path id="Trazado_20720" data-name="Trazado 20720" d="M566.6,1297.9s-16.557,42.84-5.224,46.742,32.017-26.907,32.017-26.907l-3.986-3.11-18.881,16.114s4.253-6,6.356-19.32S566.6,1297.9,566.6,1297.9Z" transform="translate(-556.121 -1248.137)" fill="#f7b58e"/>
      <path id="Trazado_20721" data-name="Trazado 20721" d="M699.788,1331.093l1.224-8.921s3.083-3.381,5.415-3.987a1.757,1.757,0,0,1,1.862.71c.969,1.372,3.172,4.6,3.219,5.633a1.681,1.681,0,0,1-.625,1.332l-2.845,2.473-3.75,5.161Z" transform="translate(-667.015 -1263.895)" fill="#f7b58e"/>
      <g id="Grupo_10953" data-name="Grupo 10953" transform="translate(9.045 107.012)">
        <path id="Rectángulo_2303" data-name="Rectángulo 2303" d="M11.785,0H19.8A11.785,11.785,0,0,1,31.589,11.785v0A11.785,11.785,0,0,1,19.8,23.57H11.785A11.785,11.785,0,0,1,0,11.785v0A11.785,11.785,0,0,1,11.785,0Z" transform="translate(0)" fill="#63c0c4"/>
        <path id="Trazado_20722" data-name="Trazado 20722" d="M624.074,1568.088v-7.182a4.125,4.125,0,0,0-4.113-4.113H596.6a4.125,4.125,0,0,0-4.113,4.113v7.182Z" transform="translate(-592.485 -1556.793)" fill="#ffd147"/>
        <path id="Trazado_20723" data-name="Trazado 20723" d="M707.194,1580.363h0c-1.97,0-3.583-.845-3.583-2.815v-17.94c0-1.97,1.612-2.815,3.583-2.815h0c1.97,0,3.582,1.612,3.582,2.815v17.173C710.776,1579.518,709.164,1580.363,707.194,1580.363Z" transform="translate(-679.038 -1556.793)" fill="#01888b"/>
        <path id="Trazado_20724" data-name="Trazado 20724" d="M643.3,1598.44h0a1.09,1.09,0,0,1-1.087-1.087v-5.479a1.09,1.09,0,0,1,1.087-1.087h0a1.09,1.09,0,0,1,1.087,1.087v5.479A1.09,1.09,0,0,1,643.3,1598.44Z" transform="translate(-631.218 -1583.271)" fill="#053c5e"/>
      </g>
    </g>
  </g>
</svg>
