<svg xmlns="http://www.w3.org/2000/svg" xmlns:xlink="http://www.w3.org/1999/xlink" width="587.758" height="261.766" viewBox="0 0 587.758 261.766">
  <defs>
    <linearGradient id="linear-gradient" x1="0.062" y1="0.5" x2="1.062" y2="0.5" gradientUnits="objectBoundingBox">
      <stop offset="0" stop-color="#daece5"/>
      <stop offset="1" stop-color="#b2deeb"/>
    </linearGradient>
    <linearGradient id="linear-gradient-2" x1="2.133" y1="0.5" x2="3.133" y2="0.5" xlink:href="#linear-gradient"/>
    <linearGradient id="linear-gradient-3" x1="-0.212" y1="-0.003" x2="0.78" y2="-0.003" gradientUnits="objectBoundingBox">
      <stop offset="0" stop-color="#eef7f6"/>
      <stop offset="1" stop-color="#b2deeb"/>
    </linearGradient>
    <linearGradient id="linear-gradient-4" x1="-0.281" y1="0.459" x2="0.779" y2="0.459" xlink:href="#linear-gradient-3"/>
    <linearGradient id="linear-gradient-5" x1="7.902" y1="0.5" x2="8.902" y2="0.5" xlink:href="#linear-gradient"/>
    <linearGradient id="linear-gradient-6" x1="0.152" y1="0.5" x2="1.152" y2="0.5" xlink:href="#linear-gradient"/>
    <linearGradient id="linear-gradient-7" x1="0" y1="0.5" x2="1" y2="0.5" xlink:href="#linear-gradient-3"/>
    <linearGradient id="linear-gradient-9" x1="0" y1="0.5" x2="1" y2="0.5" xlink:href="#linear-gradient"/>
    <linearGradient id="linear-gradient-12" x1="21.525" y1="0.5" x2="22.525" y2="0.5" xlink:href="#linear-gradient"/>
    <linearGradient id="linear-gradient-13" x1="16.451" y1="0.5" x2="17.451" y2="0.5" xlink:href="#linear-gradient"/>
    <linearGradient id="linear-gradient-14" x1="8.664" y1="0.83" x2="9.903" y2="-0.523" xlink:href="#linear-gradient"/>
    <linearGradient id="linear-gradient-15" x1="28.564" y1="0.535" x2="33.07" y2="-2.429" xlink:href="#linear-gradient"/>
    <linearGradient id="linear-gradient-16" x1="100.153" y1="0.5" x2="101.153" y2="0.5" xlink:href="#linear-gradient"/>
  </defs>
  <g id="Grupo_11578" data-name="Grupo 11578" transform="translate(-36.014 -40.133)">
    <g id="Grupo_10959" data-name="Grupo 10959" transform="translate(249.863 58.626)">
      <g id="Grupo_10956" data-name="Grupo 10956">
        <path id="Trazado_20725" data-name="Trazado 20725" d="M395,145.633c-.435-1.553-5.536-5.036-11.881-7.735a59.928,59.928,0,0,0-.376-17.509c5.64-2.135,11.364-4.975,12.018-7.887,1.327-5.911-6.863-20.205-9.1-21.463-1.432-.805-7.7.4-14.22,3.077A59.908,59.908,0,0,0,359.124,81.9c2.487-5.508,4.542-11.589,2.94-14.118-3.241-5.118-19.14-9.434-21.612-8.743-1.548.434-5.013,5.5-7.709,11.82a59.887,59.887,0,0,0-17.768-.171c-2.105-5.435-4.847-10.778-7.655-11.409-5.91-1.328-20.2,6.863-21.462,9.1-.749,1.332.238,6.844,2.534,12.856a59.958,59.958,0,0,0-13.333,12.953c-5.025-2.133-10.182-3.654-12.458-2.213-5.117,3.242-9.434,19.141-8.742,21.612.39,1.392,4.527,4.334,9.949,6.872a59.91,59.91,0,0,0-.1,19.33c-4.763,1.991-9.049,4.434-9.61,6.929-1.327,5.911,6.863,20.205,9.1,21.463,1.231.692,6.038-.1,11.508-2.039a59.95,59.95,0,0,0,13.968,13.643c-1.951,4.763-3.244,9.5-1.879,11.653,3.241,5.118,19.14,9.435,21.612,8.743,1.4-.391,4.347-4.548,6.891-9.989a59.945,59.945,0,0,0,19.04-.516c2.039,5.02,4.591,9.678,7.2,10.265,5.91,1.327,20.2-6.863,21.462-9.1.753-1.338-.248-6.9-2.568-12.947a59.9,59.9,0,0,0,12.48-13.246c5.294,2.326,10.935,4.121,13.346,2.6C391.376,164,395.693,148.105,395,145.633Zm-81.833,9.772a26.965,26.965,0,1,1,35.108-14.885A26.963,26.963,0,0,1,313.168,155.405Z" transform="translate(-253.785 -58.966)" fill="#ffc630"/>
      </g>
      <g id="Grupo_10957" data-name="Grupo 10957" transform="translate(31.234 32.289)">
        <path id="Trazado_20726" data-name="Trazado 20726" d="M321.543,169.112a38.68,38.68,0,1,1,38.571-24.086h0a38.719,38.719,0,0,1-38.571,24.086Zm5.384-76.049a37.552,37.552,0,1,0,32.149,51.544h0a37.59,37.59,0,0,0-32.149-51.544Z" transform="translate(-285.592 -91.847)" fill="#fff"/>
      </g>
      <g id="Grupo_10958" data-name="Grupo 10958" transform="translate(14.625 15.908)">
        <path id="Trazado_20727" data-name="Trazado 20727" d="M378.618,141.542c-.224-.122-.446-.246-.664-.379a55,55,0,0,1-108.526-.179h-.007c-.248-.042-.5-.094-.741-.152a55.716,55.716,0,0,0,109.939.711Z" transform="translate(-268.679 -76.349)" fill="#fff"/>
        <path id="Trazado_20728" data-name="Trazado 20728" d="M309.562,77.96a54.731,54.731,0,0,1,35.506,1.929c.23.093.451.2.679.295.007-.253.028-.5.049-.758-.155-.064-.3-.136-.459-.2a55.437,55.437,0,0,0-35.826-1.993C309.533,77.474,309.55,77.717,309.562,77.96Z" transform="translate(-269.414 -75.166)" fill="#fff"/>
      </g>
    </g>
    <g id="Grupo_10966" data-name="Grupo 10966" transform="translate(396.117 116.134)">
      <g id="Grupo_10963" data-name="Grupo 10963">
        <g id="Grupo_10962" data-name="Grupo 10962">
          <g id="Grupo_10961" data-name="Grupo 10961">
            <g id="Grupo_10960" data-name="Grupo 10960">
              <path id="Trazado_20729" data-name="Trazado 20729" d="M462.026,119.1c-1.01.205-3.467,3.294-5.484,7.211a38.34,38.34,0,0,0-11.176-.577c-1.1-3.693-2.641-7.474-4.466-8.027-3.705-1.121-13.2,3.431-14.1,4.8-.579.875-.105,4.926,1.3,9.206a38.293,38.293,0,0,0-8.361,7.28c-3.394-1.842-7.174-3.436-8.861-2.534-3.412,1.827-6.906,11.758-6.58,13.366.2,1.008,3.274,3.453,7.173,5.465a38.26,38.26,0,0,0-.938,11.316c-3.563,1.088-7.1,2.586-7.629,4.345-1.121,3.705,3.431,13.2,4.8,14.1.814.539,4.374.168,8.312-1.014a38.345,38.345,0,0,0,7.634,9.1c-1.594,3.1-2.8,6.318-1.992,7.836,1.827,3.413,11.758,6.906,13.366,6.58.905-.184,2.973-2.683,4.844-6.02a38.294,38.294,0,0,0,12.315.965c1.047,3.129,2.4,5.974,3.968,6.448,3.7,1.122,13.2-3.431,14.1-4.8.5-.752.218-3.853-.762-7.43a38.272,38.272,0,0,0,9.347-8.264c2.944,1.465,5.9,2.51,7.339,1.741,3.413-1.826,6.906-11.758,6.58-13.366-.184-.907-2.7-2.983-6.044-4.858a38.3,38.3,0,0,0,.561-12.159c3.294-1.064,6.382-2.474,6.877-4.11,1.122-3.705-3.431-13.2-4.8-14.1-.817-.542-4.409-.163-8.37,1.033a38.247,38.247,0,0,0-7.86-8.572c1.73-3.266,3.138-6.778,2.277-8.385C473.566,122.264,463.634,118.771,462.026,119.1Zm2.409,52.611a17.231,17.231,0,1,1-7.848-23.071A17.231,17.231,0,0,1,464.435,171.708Z" transform="translate(-402.722 -117.528)" fill="#a4d1bb"/>
            </g>
          </g>
        </g>
      </g>
      <g id="Grupo_10964" data-name="Grupo 10964" transform="translate(21.254 21.56)">
        <path id="Trazado_20730" data-name="Trazado 20730" d="M473.547,167.744A24.717,24.717,0,1,1,460,142.036h0a24.747,24.747,0,0,1,13.55,25.707Zm-48.218-6.982a24,24,0,1,0,34.351-18.083h0a24.023,24.023,0,0,0-34.351,18.083Z" transform="translate(-424.366 -139.483)" fill="#fff"/>
      </g>
      <g id="Grupo_10965" data-name="Grupo 10965" transform="translate(10.778 11.923)">
        <path id="Trazado_20731" data-name="Trazado 20731" d="M458.608,129.669c-.088.137-.178.273-.272.4a35.149,35.149,0,0,1-5.179,69.16v0c-.038.157-.083.312-.133.466a35.6,35.6,0,0,0,5.585-70.034Z" transform="translate(-414.405 -129.669)" fill="#fff"/>
        <path id="Trazado_20732" data-name="Trazado 20732" d="M414.873,171.577a34.975,34.975,0,0,1,2.886-22.54c.07-.142.147-.278.219-.418-.16-.017-.32-.041-.48-.067-.048.1-.1.188-.148.284a35.425,35.425,0,0,0-2.943,22.74C414.562,171.573,414.717,171.573,414.873,171.577Z" transform="translate(-413.697 -130.009)" fill="#fff"/>
      </g>
    </g>
    <path id="Trazado_20733" data-name="Trazado 20733" d="M437.252,103.9c-4.039,17.552,37.354,19.809,54.409,20a66.938,66.938,0,0,0,14.069-1.336c14.423-2.926,46-10.607,41.568-21.052-5.713-13.474-22.874-4.079-22.874-4.079s2.155-10.173-27.048-16.892S468.29,96.211,468.29,96.211,442.325,81.85,437.252,103.9Z" transform="translate(-7.222 -0.705)" fill="url(#linear-gradient)"/>
    <path id="Trazado_20734" data-name="Trazado 20734" d="M305.513,142.062H138.224s-9.072-11.476,0-19.2c5.006-4.262,10.919-3.82,15.213-2.569a5.006,5.006,0,0,0,6.2-3.921c1.017-4.717,4.153-10.892,13.158-14.54,8.859-3.589,14.463,1.891,17.705,7.523a2.516,2.516,0,0,0,4.551-.464C197.86,100,207.648,88.216,239.8,88.216c40.9,0,36.355,21.743,32.7,30.779a2.083,2.083,0,0,0,2.365,2.841c6.308-1.348,18.019-3.1,23.269,1.026C305.513,128.652,305.513,142.062,305.513,142.062Z" transform="translate(-1.768 -0.866)" fill="url(#linear-gradient-2)"/>
    <g id="Grupo_10971" data-name="Grupo 10971" transform="translate(38.281 89.414)">
      <g id="Grupo_10967" data-name="Grupo 10967" transform="translate(47.863)">
        <path id="Trazado_20735" data-name="Trazado 20735" d="M167.7,184.948s-2.594-75.614-54.662-94.63c-62.788,71.794,7.987,133.355,7.987,133.355Z" transform="translate(-87.064 -90.318)" fill="#0f787a"/>
        <path id="Trazado_20736" data-name="Trazado 20736" d="M113.04,90.318c-.219.25-.429.5-.644.749l25.216,85.506-50.535-23.18q.015.929.053,1.851l51.1,23.441,7.277,24.673,1.39-1.153L132.4,153.019h0l20.64-24.75c-.271-.535-.545-1.069-.827-1.6L131.831,151.1,114.016,90.7c-.326-.126-.645-.258-.976-.379Z" transform="translate(-87.064 -90.318)" fill="#fff"/>
      </g>
      <g id="Grupo_10968" data-name="Grupo 10968" transform="translate(0 38.282)">
        <path id="Trazado_20737" data-name="Trazado 20737" d="M142.713,176.76s-49.143-57.249-101.025-45.99c-18.651,61.06,46.288,92.212,46.288,92.212l65.887,3.5Z" transform="translate(-38.322 -129.302)" fill="#ffc630"/>
        <path id="Trazado_20738" data-name="Trazado 20738" d="M99.5,142.027l-4.222,33.19L42.929,130.549c-.411.081-.821.153-1.232.243-.074.24-.135.475-.205.715L69.53,155.431l-30.767,4.415c.034.294.077.582.115.873l.111.772,32.224-4.624,46.726,39.87-53.75,9.47c.518.48,1.037.953,1.554,1.413l53.835-9.486,33.18,28.311,1.114.059-.359-1.6-56.721-48.4,4.274-33.6Q100.288,142.463,99.5,142.027Z" transform="translate(-38.33 -129.325)" fill="#fff"/>
      </g>
      <g id="Grupo_10970" data-name="Grupo 10970" transform="translate(12.492 117.933)">
        <path id="Trazado_20739" data-name="Trazado 20739" d="M136.53,213.747S75.42,198.538,51.043,233.1c33.781,79.485,137.271,42.127,137.271,42.127Z" transform="translate(-51.043 -210.414)" fill="#002f4c"/>
        <g id="Grupo_10969" data-name="Grupo 10969" transform="translate(0.001 2.263)">
          <path id="Trazado_20740" data-name="Trazado 20740" d="M51.044,233.143c.13.306.264.606.4.908l84.1,14.167-34.6,30.951q.928.293,1.861.565l34.837-31.162,32.849,5.534-1.655-1.965-63.955-10.773L84.264,212.719q-.876.2-1.751.411l20.037,27.845L51.6,232.393c-.184.249-.372.493-.553.748Z" transform="translate(-51.044 -212.719)" fill="#005558"/>
        </g>
      </g>
    </g>
    <g id="Grupo_10976" data-name="Grupo 10976" transform="translate(474.009 89.414)">
      <g id="Grupo_10972" data-name="Grupo 10972" transform="translate(21.261)">
        <path id="Trazado_20741" data-name="Trazado 20741" d="M503.693,184.948s2.594-75.614,54.662-94.63c62.788,71.794-7.986,133.355-7.986,133.355Z" transform="translate(-503.693 -90.318)" fill="#ffc630"/>
        <path id="Trazado_20742" data-name="Trazado 20742" d="M558.624,90.318c.219.25.429.5.645.749l-25.217,85.506,50.536-23.18q-.016.929-.053,1.851l-51.106,23.441-7.276,24.673-1.391-1.153,14.506-49.187h0l-20.641-24.75c.271-.535.545-1.069.827-1.6L539.833,151.1,557.648,90.7c.326-.126.645-.258.976-.379Z" transform="translate(-503.962 -90.318)" fill="#fff"/>
      </g>
      <g id="Grupo_10973" data-name="Grupo 10973" transform="translate(34.222 38.282)">
        <path id="Trazado_20743" data-name="Trazado 20743" d="M528.042,176.76s49.143-57.249,101.025-45.99c18.651,61.06-46.288,92.212-46.288,92.212l-65.886,3.5Z" transform="translate(-516.892 -129.302)" fill="#0f787a"/>
        <path id="Trazado_20744" data-name="Trazado 20744" d="M571.262,142.027l4.222,33.19,52.352-44.669c.411.081.82.153,1.231.243.074.24.135.475.205.715l-28.039,23.924L632,159.846c-.034.294-.077.582-.114.873l-.111.772-32.225-4.624-46.726,39.87,53.75,9.47c-.519.48-1.037.953-1.553,1.413l-53.835-9.486-33.18,28.311-1.114.059.359-1.6,56.721-48.4L569.7,142.9C570.216,142.61,570.739,142.317,571.262,142.027Z" transform="translate(-516.892 -129.325)" fill="#005558"/>
      </g>
      <g id="Grupo_10975" data-name="Grupo 10975" transform="translate(0 117.933)">
        <path id="Trazado_20745" data-name="Trazado 20745" d="M533.826,213.747s61.11-15.209,85.487,19.354c-33.781,79.485-137.271,42.127-137.271,42.127Z" transform="translate(-482.042 -210.414)" fill="#002f4c"/>
        <g id="Grupo_10974" data-name="Grupo 10974" transform="translate(17.826 2.263)">
          <path id="Trazado_20746" data-name="Trazado 20746" d="M619.639,233.143c-.13.306-.264.606-.4.908l-84.1,14.167,34.6,30.951q-.928.293-1.861.565l-34.837-31.162L500.2,254.106l1.655-1.965L565.8,241.368l20.615-28.649c.585.131,1.168.267,1.751.411l-20.036,27.845,50.953-8.583c.184.249.373.493.553.748Z" transform="translate(-500.195 -212.719)" fill="#005558"/>
        </g>
      </g>
    </g>
    <g id="Grupo_10983" data-name="Grupo 10983" transform="translate(579.19 57.524)">
      <g id="Grupo_10977" data-name="Grupo 10977" transform="translate(1.891)">
        <path id="Trazado_20747" data-name="Trazado 20747" d="M620.01,64.9l2.518,7.485L615.341,69.6,591.079,57.842Z" transform="translate(-591.079 -57.842)" fill="#a4d1bb"/>
        <path id="Trazado_20748" data-name="Trazado 20748" d="M622.876,72.583l-12.518-2.641,3.327-1.119Z" transform="translate(-591.426 -58.04)" fill="#53b6b9"/>
        <path id="Trazado_20749" data-name="Trazado 20749" d="M620.01,64.9l3.208-6.46-32.139-.6Z" transform="translate(-591.079 -57.842)" fill="url(#linear-gradient-3)"/>
        <path id="Trazado_20750" data-name="Trazado 20750" d="M591.079,57.842,615.341,69.6l-5.229,9.223Z" transform="translate(-591.079 -57.842)" fill="url(#linear-gradient-4)"/>
      </g>
      <g id="Grupo_10982" data-name="Grupo 10982" transform="translate(0 17.878)">
        <g id="Grupo_10978" data-name="Grupo 10978" transform="translate(26.574)">
          <path id="Trazado_20751" data-name="Trazado 20751" d="M619.162,79.312a.612.612,0,0,0,.2-.114.6.6,0,0,0,.065-.846,16.954,16.954,0,0,0-2.236-2.169.6.6,0,1,0-.752.936,15.651,15.651,0,0,1,2.076,2.015A.6.6,0,0,0,619.162,79.312Z" transform="translate(-616.215 -76.049)" fill="#53b6b9"/>
        </g>
        <g id="Grupo_10980" data-name="Grupo 10980" transform="translate(0 5.087)">
          <g id="Grupo_10979" data-name="Grupo 10979">
            <path id="Trazado_20752" data-name="Trazado 20752" d="M599.888,142.992a.6.6,0,0,1,.33-.783,16.919,16.919,0,0,0,4.913-3.138.6.6,0,0,1,.805.893,18.077,18.077,0,0,1-5.265,3.357.221.221,0,0,1-.035.014A.6.6,0,0,1,599.888,142.992Zm7.751-5.668a.6.6,0,0,1-.1-.843,21.523,21.523,0,0,0,2.951-5.093.6.6,0,1,1,1.112.455,22.66,22.66,0,0,1-3.116,5.376.593.593,0,0,1-.281.2A.6.6,0,0,1,607.639,137.324Zm4.354-8.592a.6.6,0,0,1-.458-.716l.056-.265a27.7,27.7,0,0,0,.529-5.629.6.6,0,0,1,1.2-.006,29,29,0,0,1-.553,5.873l-.06.285a.6.6,0,0,1-.4.44A.607.607,0,0,1,611.993,128.732Zm.574-9.645a.6.6,0,0,1-.664-.529,43.763,43.763,0,0,0-1.108-5.878.606.606,0,0,1,.432-.732.6.6,0,0,1,.731.433,44.6,44.6,0,0,1,1.137,6.04.6.6,0,0,1-.4.637A.632.632,0,0,1,612.568,119.087Zm-2.02-9.481a.6.6,0,0,1-.756-.388q-.077-.242-.157-.481a20.116,20.116,0,0,1-2.015.358.6.6,0,0,1-.15-1.192q.9-.112,1.778-.31c-.444-1.273-.944-2.6-1.517-4.036a.6.6,0,1,1,1.115-.446c.6,1.487,1.112,2.862,1.569,4.181a18.207,18.207,0,0,0,2.677-1.017.6.6,0,0,1,.516,1.086,19.552,19.552,0,0,1-2.808,1.07q.069.209.137.418a.6.6,0,0,1-.38.753Zm5.428-4.311a.6.6,0,0,1,.113-.842,15.081,15.081,0,0,0,3.857-4.333.6.6,0,1,1,1.033.613,16.312,16.312,0,0,1-4.162,4.674.588.588,0,0,1-.173.092A.6.6,0,0,1,615.976,105.295Zm-12.1,3.922a18.781,18.781,0,0,1-6.083-1.385.6.6,0,0,1,.461-1.11,17.537,17.537,0,0,0,5.7,1.3.6.6,0,0,1,.155,1.169A.585.585,0,0,1,603.874,109.217Zm17.9-11.53a.6.6,0,0,1-.382-.759,18.225,18.225,0,0,0,.9-5.778.6.6,0,0,1,1.2,0,19.421,19.421,0,0,1-.965,6.16.6.6,0,0,1-.758.381Zm-27.28,8.321A15.576,15.576,0,0,1,593.217,105a12.842,12.842,0,0,1-2.887-3.7.6.6,0,1,1,1.066-.552,11.615,11.615,0,0,0,2.615,3.353,14.667,14.667,0,0,0,1.179.936.6.6,0,1,1-.7.978Zm11.832-5.782a22.3,22.3,0,0,0-3.006-5.068.6.6,0,1,1,.926-.765,23.418,23.418,0,0,1,3.174,5.336.6.6,0,0,1-.3.8l-.057.022A.6.6,0,0,1,606.327,100.227Zm16.341-12.108a.6.6,0,0,1-.7-.48,19.222,19.222,0,0,0-.675-2.592,18.359,18.359,0,0,0-1.276-2.927.6.6,0,1,1,1.054-.575,19.494,19.494,0,0,1,1.361,3.12,20.477,20.477,0,0,1,.717,2.755.6.6,0,0,1-.4.679A.558.558,0,0,1,622.668,88.119Zm-32.819,10.04a.6.6,0,0,1-.657-.538,6.67,6.67,0,0,1,1.182-4.667,6.118,6.118,0,0,1,1.22-1.247.6.6,0,0,1,.731.954,4.878,4.878,0,0,0-.979,1,5.417,5.417,0,0,0-.958,3.841.6.6,0,0,1-.407.628A.534.534,0,0,1,589.849,98.159Zm10.931-5.327a8.59,8.59,0,0,0-5.4-1.32.6.6,0,0,1-.123-1.2,9.693,9.693,0,0,1,6.176,1.509.6.6,0,0,1,.174.831.592.592,0,0,1-.31.241A.6.6,0,0,1,600.78,92.831Z" transform="translate(-589.153 -81.229)" fill="#53b6b9"/>
          </g>
        </g>
        <g id="Grupo_10981" data-name="Grupo 10981" transform="translate(4.128 66.982)">
          <path id="Trazado_20753" data-name="Trazado 20753" d="M597.146,145.43a.6.6,0,0,0-.271-1.165,12.875,12.875,0,0,1-2.863.061.6.6,0,1,0-.109,1.2,14.15,14.15,0,0,0,3.131-.065A.731.731,0,0,0,597.146,145.43Z" transform="translate(-593.356 -144.26)" fill="#53b6b9"/>
        </g>
      </g>
    </g>
    <g id="Grupo_10984" data-name="Grupo 10984" transform="translate(105.822 132.859)">
      <path id="Trazado_20754" data-name="Trazado 20754" d="M107.1,134.56H302.28L351.416,274.8H152.144Z" transform="translate(-107.103 -134.56)" fill="#53b6b9"/>
      <path id="Trazado_20755" data-name="Trazado 20755" d="M115.577,139.424H297.458l45.789,130.687H157.55Z" transform="translate(-107.255 -134.647)" fill="#002f4c"/>
      <rect id="Rectángulo_2304" data-name="Rectángulo 2304" width="258.454" height="12.751" rx="4.934" transform="translate(42.501 134.277)" fill="#f99200"/>
      <path id="Rectángulo_2305" data-name="Rectángulo 2305" d="M3,0H90.056a5.3,5.3,0,0,1,5.3,5.3v2.16a5.3,5.3,0,0,1-5.3,5.3H3a3,3,0,0,1-3-3V3A3,3,0,0,1,3,0Z" transform="translate(42.501 134.277)" fill="#ffd159"/>
      <path id="Trazado_20756" data-name="Trazado 20756" d="M337.034,277.566a1.859,1.859,0,1,1-1.86-1.859A1.859,1.859,0,0,1,337.034,277.566Z" transform="translate(-111.177 -137.102)" fill="#ffd159"/>
      <path id="Trazado_20757" data-name="Trazado 20757" d="M325.658,277.566a1.859,1.859,0,1,1-1.86-1.859A1.859,1.859,0,0,1,325.658,277.566Z" transform="translate(-110.972 -137.102)" fill="#ef7100"/>
      <path id="Trazado_20758" data-name="Trazado 20758" d="M218.947,279.57H207.839a2.2,2.2,0,0,1-2.192-2.193h0a2.2,2.2,0,0,1,2.192-2.193h11.108a2.2,2.2,0,0,1,2.193,2.193h0A2.2,2.2,0,0,1,218.947,279.57Z" transform="translate(-108.877 -137.092)" fill="#f99200"/>
      <path id="Trazado_20759" data-name="Trazado 20759" d="M198.681,279.57H187.573a2.2,2.2,0,0,1-2.192-2.193h0a2.2,2.2,0,0,1,2.192-2.193h11.108a2.2,2.2,0,0,1,2.193,2.193h0A2.2,2.2,0,0,1,198.681,279.57Z" transform="translate(-108.512 -137.092)" fill="#ef7100"/>
    </g>
    <g id="Grupo_10985" data-name="Grupo 10985" transform="translate(448.711 100.614)">
      <path id="Trazado_20760" data-name="Trazado 20760" d="M533.535,101.723c8.308,0,15.042,7.121,15.042,15.9V266.077c0,8.784-6.734,15.905-15.042,15.905H480.5c-8.308,0-15.042-7.121-15.042-15.905V117.627c0-8.783,6.734-15.9,15.042-15.9Z" transform="translate(-456.445 -101.723)" fill="#53b6b9"/>
      <path id="Trazado_20761" data-name="Trazado 20761" d="M524.356,101.723c8.308,0,15.042,7.121,15.042,15.9V266.077c0,8.784-6.734,15.905-15.042,15.905H471.322c-8.307,0-15.042-7.121-15.042-15.905V117.627c0-8.783,6.735-15.9,15.042-15.9Z" transform="translate(-456.28 -101.723)" fill="#53b6b9"/>
      <path id="Trazado_20762" data-name="Trazado 20762" d="M526.107,104.611c7.851,0,11.047,6.731,11.047,15.032V264.167c0,8.3-3.2,15.03-11.047,15.03h-55.4c-7.851,0-12.1-5.669-12.1-13.97V118.583c0-8.3,4.252-13.972,12.1-13.972Z" transform="translate(-456.322 -101.775)" fill="#fff"/>
      <rect id="Rectángulo_2306" data-name="Rectángulo 2306" width="72.35" height="130.422" transform="translate(5.358 24.484)" fill="#002f4c"/>
      <path id="Trazado_20763" data-name="Trazado 20763" d="M512.636,116.827c.168,0,.3-.268.3-.6h0c0-.328-.136-.6-.3-.6H484.444c-.169,0-.3.268-.3.6h0c0,.33.136.6.3.6Z" transform="translate(-456.782 -101.974)" fill="#0f787a"/>
      <path id="Trazado_20764" data-name="Trazado 20764" d="M499.07,276.474a5.706,5.706,0,1,0-5.707-5.706A5.705,5.705,0,0,0,499.07,276.474Z" transform="translate(-456.948 -104.665)" fill="#53b6b9"/>
    </g>
    <g id="Grupo_10987" data-name="Grupo 10987" transform="translate(113.162 136.654)">
      <path id="Trazado_20765" data-name="Trazado 20765" d="M284.335,234.535,344.648,181.3H449.425v46.9l-13.1.843-10.984,4.649L363.66,270.44l-16.012,9.726c-2.1,1.828-5.671.641-7.331-1.26l-1.627-1.87a4.453,4.453,0,0,1,.473-6.48l13.845-12.068-1.768-1.982-18.533,16.153a6.348,6.348,0,0,1-9.244-.591l-2.321-2.663a6.347,6.347,0,0,1,.676-9.24l18.394-16.033-1.552-1.741-24.193,21.09a6.959,6.959,0,0,1-10.132-.647l-2.545-2.918a6.96,6.96,0,0,1,.741-10.126l24.045-20.957-1.881-2.109-26.8,23.36c-3.38,2.947-8,2.152-10.942-1.227l-2.891-3.315C281.114,242.162,280.954,237.479,284.335,234.535Z" transform="translate(-117.589 -139.196)" fill="#f7a57a"/>
      <path id="Trazado_20766" data-name="Trazado 20766" d="M267.5,237.736l2.113-51.545h25.347l42.293-14.364s52.811-.5,53.775,0a68.5,68.5,0,0,1,.682,7.4l-.893,4.4a14.179,14.179,0,0,1-13.443,8.034l-31.626-.419c-1.884-.022-9.521-.689-10.887-1.783l-53.293,48.284Z" transform="translate(-117.331 -139.022)" fill="#f18c72"/>
      <path id="Trazado_20767" data-name="Trazado 20767" d="M382.649,266.159c1.992,2.857,6.238,3.341,9.485,1.077h0c3.25-2.263,4.27-6.414,2.28-9.271l-7.023-10.084c-1.991-2.859-5.869-2.809-9.117-.545h0c-3.249,2.261-4.639,5.882-2.649,8.739Z" transform="translate(-119.262 -140.356)" fill="#f18c72"/>
      <path id="Trazado_20768" data-name="Trazado 20768" d="M396.733,255.735A7.352,7.352,0,0,0,406.91,257.8h0a7.347,7.347,0,0,0,1.588-10.26l-8.371-12.018c-2.37-3.4-6.488-3.7-9.734-1.437h0c-3.25,2.261-4.4,6.227-2.028,9.633Z" transform="translate(-119.486 -140.121)" fill="#f18c72"/>
      <path id="Trazado_20769" data-name="Trazado 20769" d="M411.944,246.789c2.109,2.772,6.372,3.079,9.523.68h0c3.15-2.4,3.995-6.588,1.885-9.359l-7.439-9.781c-2.109-2.77-5.982-2.559-9.133-.163h0c-3.151,2.4-4.386,6.073-2.277,8.845Z" transform="translate(-119.78 -140.007)" fill="#f18c72"/>
      <path id="Trazado_20770" data-name="Trazado 20770" d="M369.427,274.627c1.643,2.359,5.151,2.755,7.829.889h0c2.686-1.87,3.526-5.294,1.882-7.655l-5.8-8.324c-1.642-2.36-4.843-2.319-7.525-.45h0c-2.682,1.868-3.829,4.857-2.185,7.216Z" transform="translate(-119.049 -140.573)" fill="#f18c72"/>
      <g id="Grupo_10986" data-name="Grupo 10986">
        <path id="Trazado_20771" data-name="Trazado 20771" d="M157.7,139.027l-43.125-.6,5.248,25.409a28.381,28.381,0,0,1,9.2,7.837,22.989,22.989,0,0,0,1.924,2.3,49.324,49.324,0,0,1,6.616,10.009,31.347,31.347,0,0,1,1.88,5.533,28.542,28.542,0,0,1,1.588,5.641q.069.644.132,1.292L179.8,207.4,269.2,241.956l18.689-57.488Z" transform="translate(-114.577 -138.424)" fill="#53b6b9"/>
        <path id="Trazado_20772" data-name="Trazado 20772" d="M122.039,159.544,133.3,194.611l135.921,48.057,9.242-28.426Z" transform="translate(-114.711 -138.804)" fill="#0f787a"/>
        <path id="Trazado_20773" data-name="Trazado 20773" d="M268.456,177.426l-19.6,59.186,22.76,7.07,19.6-59.188Z" transform="translate(-116.996 -139.126)" fill="url(#linear-gradient-5)"/>
        <path id="Trazado_20774" data-name="Trazado 20774" d="M265.311,226.608a3.8,3.8,0,0,0-4.784,2.435h0a3.8,3.8,0,0,0,2.438,4.78h0a3.79,3.79,0,0,0,4.781-2.433h0a3.8,3.8,0,0,0-2.435-4.782Z" transform="translate(-117.202 -140.009)" fill="#002f4c"/>
      </g>
      <path id="Trazado_20775" data-name="Trazado 20775" d="M533.859,141.438,417.1,180.252l18.69,57.486,90.3-29.361,7.77-13.626Z" transform="translate(-120.026 -138.478)" fill="#ffc630"/>
      <path id="Trazado_20776" data-name="Trazado 20776" d="M534.034,176.18c-29.447,8.958-107.208,34.091-107.208,34.091l9.242,28.425,97.966-31.854Z" transform="translate(-120.201 -139.104)" fill="#f99200"/>
      <path id="Trazado_20777" data-name="Trazado 20777" d="M438.947,173.077l18.578,59.186-21.738,7.067-18.578-59.186Z" transform="translate(-120.028 -139.048)" fill="url(#linear-gradient-6)"/>
    </g>
    <g id="Grupo_10990" data-name="Grupo 10990" transform="translate(36.014 62.704)">
      <g id="Grupo_10988" data-name="Grupo 10988" transform="translate(98.262)">
        <path id="Trazado_20778" data-name="Trazado 20778" d="M183.7,76.715l-20.79-11.474L152.3,63.118l-8.02,1.179Z" transform="translate(-136.225 -63.118)" fill="url(#linear-gradient-7)"/>
        <path id="Trazado_20779" data-name="Trazado 20779" d="M183.7,76.737,144.77,66.73l-.493-2.411" transform="translate(-136.225 -63.14)" fill="#a4d1bb"/>
        <path id="Trazado_20780" data-name="Trazado 20780" d="M143.648,73.576l.05.081,1.634,6.044,38.259-2.794Z" transform="translate(-136.214 -63.306)" fill="#53b6b9"/>
        <path id="Trazado_20781" data-name="Trazado 20781" d="M136.078,69.886l5.554-4.508L183.3,76.691l-35.868-1.066Z" transform="translate(-136.078 -63.159)" fill="url(#linear-gradient-7)"/>
      </g>
      <g id="Grupo_10989" data-name="Grupo 10989" transform="translate(0 1.923)">
        <path id="Trazado_20782" data-name="Trazado 20782" d="M46.871,148.483a29.125,29.125,0,0,0,3.745-1.625.566.566,0,1,1,.52,1,30.2,30.2,0,0,1-3.891,1.688q-.717.253-1.444.47a.566.566,0,0,1-.326-1.083Q46.178,148.727,46.871,148.483Z" transform="translate(-36.177 -66.548)" fill="#53b6b9"/>
        <path id="Trazado_20783" data-name="Trazado 20783" d="M124.482,65.676c1.765.227,3.6.518,5.617.89a.566.566,0,1,1-.205,1.113c-1.994-.368-3.812-.656-5.556-.88a.566.566,0,0,1,.144-1.122Z" transform="translate(-37.596 -65.087)" fill="#53b6b9"/>
        <path id="Trazado_20784" data-name="Trazado 20784" d="M114.883,66.1a.566.566,0,0,1,.332-1.02c1.815-.016,3.734.06,5.7.225a.566.566,0,0,1-.1,1.127c-1.934-.162-3.817-.236-5.6-.221A.554.554,0,0,1,114.883,66.1Z" transform="translate(-37.43 -65.076)" fill="#53b6b9"/>
        <path id="Trazado_20785" data-name="Trazado 20785" d="M57.933,141.568a.557.557,0,0,1,.8.01.564.564,0,0,1-.01.8A31.525,31.525,0,0,1,54.259,146a.564.564,0,0,1-.651-.015.549.549,0,0,1-.134-.139.567.567,0,0,1,.155-.785A30.633,30.633,0,0,0,57.933,141.568Z" transform="translate(-36.326 -66.451)" fill="#53b6b9"/>
        <path id="Trazado_20786" data-name="Trazado 20786" d="M60.388,139.78a.565.565,0,0,1-.079-.8q.479-.585.93-1.193a29.377,29.377,0,0,0,2.173-3.4.565.565,0,0,1,.766-.227.573.573,0,0,1,.227.768,30.405,30.405,0,0,1-2.257,3.53q-.467.63-.965,1.237a.565.565,0,0,1-.774.1Z" transform="translate(-36.449 -66.319)" fill="#53b6b9"/>
        <path id="Trazado_20787" data-name="Trazado 20787" d="M65.233,131.968a.519.519,0,0,1-.121-.069.565.565,0,0,1-.186-.67,38.532,38.532,0,0,0,1.72-5.294.565.565,0,1,1,1.1.276,39.458,39.458,0,0,1-1.772,5.449A.565.565,0,0,1,65.233,131.968Z" transform="translate(-36.534 -66.164)" fill="#53b6b9"/>
        <path id="Trazado_20788" data-name="Trazado 20788" d="M80.432,82.924q-.706.863-1.37,1.758c-.667.9-1.3,1.832-1.892,2.771a.566.566,0,0,1-.78.179l-.036-.026a.564.564,0,0,1-.141-.754c.6-.963,1.256-1.92,1.94-2.843q.681-.919,1.405-1.8a.538.538,0,0,1,.8-.079A.565.565,0,0,1,80.432,82.924Z" transform="translate(-36.736 -65.381)" fill="#53b6b9"/>
        <path id="Trazado_20789" data-name="Trazado 20789" d="M75.431,90.495a41.133,41.133,0,0,0-2.242,5.1.565.565,0,0,1-1.064-.382,42.2,42.2,0,0,1,2.3-5.246.566.566,0,0,1,1,.524Z" transform="translate(-36.663 -65.519)" fill="#53b6b9"/>
        <path id="Trazado_20790" data-name="Trazado 20790" d="M86.85,76.5a46.153,46.153,0,0,0-4.094,3.8.566.566,0,0,1-.745.066.636.636,0,0,1-.055-.047.566.566,0,0,1-.019-.8,47.407,47.407,0,0,1,4.194-3.891.566.566,0,1,1,.719.874Z" transform="translate(-36.838 -65.264)" fill="#53b6b9"/>
        <path id="Trazado_20791" data-name="Trazado 20791" d="M97.547,69.91a.566.566,0,0,1-.458-1.035,44.807,44.807,0,0,1,5.372-1.977.565.565,0,1,1,.321,1.084A43.571,43.571,0,0,0,97.547,69.91Z" transform="translate(-37.108 -65.108)" fill="#53b6b9"/>
        <path id="Trazado_20792" data-name="Trazado 20792" d="M69.174,114.028a.566.566,0,0,1-.5-.626l.081-.712c.188-1.639.374-3.28.591-4.915a.566.566,0,1,1,1.121.148c-.216,1.628-.4,3.262-.588,4.9l-.081.711A.565.565,0,0,1,69.174,114.028Z" transform="translate(-36.602 -65.836)" fill="#53b6b9"/>
        <path id="Trazado_20793" data-name="Trazado 20793" d="M89.642,74.378a.565.565,0,1,1-.652-.924,47.173,47.173,0,0,1,4.869-3.007.566.566,0,1,1,.534,1A45.781,45.781,0,0,0,89.642,74.378Z" transform="translate(-36.963 -65.171)" fill="#53b6b9"/>
        <path id="Trazado_20794" data-name="Trazado 20794" d="M68.886,116.441a.563.563,0,0,1,.49.632c-.278,2.2-.551,3.99-.857,5.626a.566.566,0,0,1-1.113-.209c.3-1.612.573-3.378.848-5.559A.564.564,0,0,1,68.886,116.441Z" transform="translate(-36.579 -66.001)" fill="#53b6b9"/>
        <path id="Trazado_20795" data-name="Trazado 20795" d="M42.075,149.789a.565.565,0,1,1,.218,1.109,45.675,45.675,0,0,1-5.673.734.566.566,0,1,1-.08-1.128A45.184,45.184,0,0,0,42.075,149.789Z" transform="translate(-36.014 -66.602)" fill="#53b6b9"/>
        <path id="Trazado_20796" data-name="Trazado 20796" d="M71.752,98.255a.566.566,0,0,1,.4.692c-.446,1.664-.828,3.456-1.167,5.476a.566.566,0,1,1-1.116-.187c.344-2.057.734-3.883,1.19-5.582A.565.565,0,0,1,71.752,98.255Z" transform="translate(-36.623 -65.673)" fill="#53b6b9"/>
        <path id="Trazado_20797" data-name="Trazado 20797" d="M109.64,65.416q.99-.118,1.983-.192a.566.566,0,0,1,.086,1.128q-.969.072-1.936.188c-1.2.141-2.4.341-3.587.591a.565.565,0,1,1-.234-1.106C107.17,65.766,108.412,65.563,109.64,65.416Z" transform="translate(-37.265 -65.079)" fill="#53b6b9"/>
      </g>
    </g>
    <g id="Grupo_10998" data-name="Grupo 10998" transform="translate(93.346 171.597)">
      <g id="Grupo_10991" data-name="Grupo 10991" transform="translate(21.014 118.27)">
        <path id="Trazado_20798" data-name="Trazado 20798" d="M119.5,297.1s.864,1.2,4.938,2.233c.9.229,1.863.384,1.863,1.864h-4.02l-4.112-.711v.711h-2.22s-.619-3.631.679-4.1Z" transform="translate(-115.798 -294.495)" fill="#122043"/>
        <path id="Trazado_20799" data-name="Trazado 20799" d="M119.722,294.447l-.211,2.609h0a2.514,2.514,0,0,1-2.72.091l-.152-.091v-2.609Z" transform="translate(-115.813 -294.447)" fill="#f7a57a"/>
      </g>
      <g id="Grupo_10992" data-name="Grupo 10992" transform="translate(0.39 118.79)">
        <path id="Trazado_20800" data-name="Trazado 20800" d="M98.494,297.633s.864,1.2,4.937,2.233c.9.229,1.864.385,1.864,1.864h-4.021l-4.111-.711v.711H94.942s-.618-3.631.68-4.1Z" transform="translate(-94.795 -295.025)" fill="#122043"/>
        <path id="Trazado_20801" data-name="Trazado 20801" d="M98.72,294.977l-.211,2.608h0a2.512,2.512,0,0,1-2.72.091l-.152-.091v-2.608Z" transform="translate(-94.81 -294.977)" fill="#f7a57a"/>
      </g>
      <path id="Trazado_20802" data-name="Trazado 20802" d="M121.233,229.065l-1,65.519h-4.773s-7.266-52.9-5.715-65.519S121.233,229.065,121.233,229.065Z" transform="translate(-94.67 -174.899)" fill="#005558"/>
      <path id="Trazado_20803" data-name="Trazado 20803" d="M115.922,229.153s-1.662,20.128-5.479,31.269-10.709,34.266-10.709,34.266h-4.94s8.251-48.322,6.364-65.534h14.763Z" transform="translate(-94.405 -175.001)" fill="#0f787a"/>
      <path id="Trazado_20804" data-name="Trazado 20804" d="M120.642,195.193s5.883,13.718,7.377,13.718c1.194,0-.448-11.2-.448-11.2H132.5s6.2,19.2,1.269,22.709-15.751-9.929-15.751-9.929Z" transform="translate(-94.823 -174.39)" fill="url(#linear-gradient-9)"/>
      <path id="Trazado_20805" data-name="Trazado 20805" d="M102.827,230.922l1.782,4.408c.859,1.731,4.014,1.775,6.11,1.226a.435.435,0,0,0,.205-.714,60.342,60.342,0,0,0-5.172-5.219Z" transform="translate(-94.55 -175.028)" fill="#f7a57a"/>
      <path id="Trazado_20806" data-name="Trazado 20806" d="M115.5,192.273a5.532,5.532,0,0,1,4.736,2.626,3.726,3.726,0,0,1,.579,1.882v31.708h-18V198.843s.368-6.592,6.812-6.592C112.367,192.251,114.245,192.262,115.5,192.273Z" transform="translate(-94.55 -174.337)" fill="url(#linear-gradient-9)"/>
      <g id="Grupo_10993" data-name="Grupo 10993" transform="translate(25.966 25.687)">
        <path id="Trazado_20807" data-name="Trazado 20807" d="M120.84,228.645V200.167l.6.02v28.459Z" transform="translate(-120.84 -200.167)" fill="#85c6ba"/>
      </g>
      <path id="Trazado_20808" data-name="Trazado 20808" d="M109.027,186.09l1.919,7.227a4.571,4.571,0,0,0,3.81.754c2.171-.576,1.756-2.142,1.756-2.142l-1.23-4.632-3.435.017Z" transform="translate(-94.662 -174.226)" fill="#f18c72"/>
      <path id="Trazado_20809" data-name="Trazado 20809" d="M115.894,188.421a2.785,2.785,0,0,0,1.5-.847c1.113-3.584-3.283-11.282-3.283-11.282l-6.663,3.112,1.251,5.608a4.821,4.821,0,0,0,2.764,3.364h0A7.741,7.741,0,0,0,115.894,188.421Z" transform="translate(-94.633 -174.049)" fill="#f7a57a"/>
      <path id="Trazado_20810" data-name="Trazado 20810" d="M110.747,178.634a15.479,15.479,0,0,0,4.765-1.266c2.327-1.083.049-3.36.049-3.36a9.94,9.94,0,0,1-4.928,1.685c-2.254.255-2.948-.011-4.141,1.1-1.621,1.508-.258,4.8-.258,4.8l2.961,6.947.391-.1s-1.046-4.322-1.434-5.784c.232-.774.675-.892,1.06-.816a1.132,1.132,0,0,1,.844.839l1.991,7.5s5.323.79,6.44.094-1.172-6.037-1.172-6.037a2.308,2.308,0,0,0-2.325,1.268c-.756,1.491-2.394.584-2.394.584Z" transform="translate(-94.602 -174.008)" fill="#122043"/>
      <path id="Trazado_20811" data-name="Trazado 20811" d="M131.678,197.639l-.174-.946a7.877,7.877,0,0,0-4.4-5.384h-2.092l.648,4.468,2.952,1.862Z" transform="translate(-94.949 -174.32)" fill="#f7a57a"/>
      <path id="Trazado_20812" data-name="Trazado 20812" d="M108.6,181.953a1.264,1.264,0,0,1,1.456.843,1.088,1.088,0,0,1-.445,1.519,1.264,1.264,0,0,1-1.456-.843A1.089,1.089,0,0,1,108.6,181.953Z" transform="translate(-94.643 -174.15)" fill="#f7a57a"/>
      <path id="Trazado_20813" data-name="Trazado 20813" d="M126.494,195.325l4.075,2.358s-2.557-.026-2.6,0l-4.313-3.609s.313-.629,1.29-.1A4.958,4.958,0,0,1,126.494,195.325Z" transform="translate(-94.925 -174.364)" fill="#f7a57a"/>
      <path id="Trazado_20814" data-name="Trazado 20814" d="M104.576,194.272S94.4,205.579,94.4,212.355s8.261,18.722,8.261,18.722l4.081-1.194s-3.683-14.781-3.683-18.713,7.565-9.7,7.565-9.7" transform="translate(-94.398 -174.373)" fill="url(#linear-gradient-9)"/>
      <g id="Grupo_10994" data-name="Grupo 10994" transform="translate(8.361 26.862)">
        <path id="Trazado_20815" data-name="Trazado 20815" d="M103.509,211.3c0,3.385,3,15.762,3.7,18.645-.207.054-.293.071-.6.152-.866-3.563-3.693-15.47-3.693-18.8,0-4.033,7.369-9.7,7.682-9.935l.362.475C110.882,201.9,103.509,207.556,103.509,211.3Z" transform="translate(-102.912 -201.363)" fill="#85c6ba"/>
      </g>
      <g id="Grupo_10997" data-name="Grupo 10997" transform="translate(25.401 4.087)">
        <path id="Trazado_20816" data-name="Trazado 20816" d="M123.834,188.47a10.8,10.8,0,0,0,2.833,7.6,1.177,1.177,0,0,0,.808.324,3.013,3.013,0,0,0,1.368-.406,1.311,1.311,0,0,0,.769-.712.565.565,0,0,0-.133-.578c-.645-.742-2.677-3.319-2.22-5.881A4.426,4.426,0,0,0,123.834,188.47Z" transform="translate(-120.329 -178.352)" fill="#005558"/>
        <path id="Trazado_20817" data-name="Trazado 20817" d="M129.228,195.8a.867.867,0,0,0,.416-.514.565.565,0,0,0-.133-.578c-.645-.742-2.677-3.319-2.22-5.881a3.73,3.73,0,0,0-1.678-.532C125.866,191.01,126.674,192.748,129.228,195.8Z" transform="translate(-120.361 -178.352)" fill="#0f787a"/>
        <g id="Grupo_10996" data-name="Grupo 10996" transform="translate(6.213 12.079)">
          <g id="Grupo_10995" data-name="Grupo 10995" transform="translate(0 0.01)">
            <path id="Trazado_20818" data-name="Trazado 20818" d="M126.73,191.794c.206.607.566,1.032.8.952s.264-.638.059-1.244-.567-1.032-.8-.951S126.524,191.188,126.73,191.794Z" transform="translate(-126.592 -190.482)" fill="#005558"/>
            <path id="Trazado_20819" data-name="Trazado 20819" d="M126.745,190.574l.25-.093,0,.132-.163.089Z" transform="translate(-126.594 -190.481)" fill="#f4872e"/>
            <path id="Trazado_20820" data-name="Trazado 20820" d="M127.491,192.793l.3-.1-.361-.008Z" transform="translate(-126.607 -190.52)" fill="#de1d4c"/>
          </g>
          <path id="Trazado_20821" data-name="Trazado 20821" d="M126.937,191.724c.205.606.566,1.032.8.952s.265-.638.059-1.244-.566-1.032-.8-.951S126.731,191.118,126.937,191.724Z" transform="translate(-126.595 -190.471)" fill="#53b6b9"/>
        </g>
        <path id="Trazado_20822" data-name="Trazado 20822" d="M122.22,184.883l-.478.06a1.643,1.643,0,0,0-1.465,1.794l.157,1.259a1.644,1.644,0,0,0,1.863,1.377l.479-.06Z" transform="translate(-120.265 -178.291)" fill="#005558"/>
        <path id="Trazado_20823" data-name="Trazado 20823" d="M137.251,184.174c.431,3.436-.01,6.321-.984,6.443s-2.114-2.564-2.544-6,.01-6.321.984-6.443S136.82,180.738,137.251,184.174Z" transform="translate(-120.504 -178.17)" fill="#122043"/>
        <path id="Trazado_20824" data-name="Trazado 20824" d="M133.348,182.41l1.508.732.252,2.013-1.274,1.484-.825-2.555Z" transform="translate(-120.494 -178.246)" fill="#fff"/>
        <path id="Trazado_20825" data-name="Trazado 20825" d="M133.514,184.622c-.362-2.888-.107-5.379.561-6.176l0,0a28.659,28.659,0,0,1-12.093,6.4l.551,4.391s9.2-1.682,13.051,1.233l0,0C134.74,189.864,133.877,187.512,133.514,184.622Z" transform="translate(-120.296 -178.175)" fill="#002f4c"/>
        <path id="Trazado_20826" data-name="Trazado 20826" d="M135.2,184.134c.071.558.042,1.021-.063,1.035s-.247-.429-.318-.987-.041-1.022.065-1.035S135.134,183.576,135.2,184.134Z" transform="translate(-120.526 -178.26)" fill="#ffc630"/>
      </g>
      <path id="Trazado_20827" data-name="Trazado 20827" d="M129.416,194.4a4.8,4.8,0,0,1-2.275.371c-1.185,0-1.718-1.456-1.921-2.249-.072-.279-.135-.675.214-.852l1.9-.264Z" transform="translate(-94.952 -174.321)" fill="#f7a57a"/>
    </g>
    <g id="Grupo_11016" data-name="Grupo 11016" transform="translate(486.593 174.51)">
      <g id="Grupo_11008" data-name="Grupo 11008">
        <g id="Grupo_11000" data-name="Grupo 11000" transform="translate(12.186)">
          <path id="Trazado_20828" data-name="Trazado 20828" d="M514.342,192.126l-.434,5.492-5.389.233,2.171-8.513Z" transform="translate(-507.289 -177.197)" fill="#f18c72"/>
          <g id="Grupo_10999" data-name="Grupo 10999" transform="translate(3.343 3.616)">
            <path id="Trazado_20829" data-name="Trazado 20829" d="M516.685,192.973a2.946,2.946,0,0,0,1.649-.392c1.972-2.867-.274-10.6-.274-10.6l-3.152-1.327-4,2.5-.228,5.18a4.2,4.2,0,0,0,1.788,3.572h0A8.2,8.2,0,0,0,516.685,192.973Z" transform="translate(-510.671 -180.657)" fill="#f7a57a"/>
          </g>
          <path id="Trazado_20830" data-name="Trazado 20830" d="M511.473,186.024c.22-.87.105-2.878.991-2.733.647.106,2.862.2,3.607.2,1.776,0,4.942-.7,4.942-3.4a3.485,3.485,0,0,0-4.71-2.895c-1.956.683-4.549,2.192-5.583,1.985-1.741-.351-3.477.671-3.453,2.15a14.8,14.8,0,0,0,1.627,5.465,8.313,8.313,0,0,0,1.773,2.32h0Z" transform="translate(-507.267 -176.974)" fill="#122043"/>
          <path id="Trazado_20831" data-name="Trazado 20831" d="M509.712,186.385a1.337,1.337,0,0,1,1.655.148c.518.431.618,1.065.222,1.413a1.337,1.337,0,0,1-1.655-.147C509.415,187.368,509.316,186.734,509.712,186.385Z" transform="translate(-507.306 -177.14)" fill="#f7a57a"/>
        </g>
        <g id="Grupo_11001" data-name="Grupo 11001" transform="translate(30.972 13.483)">
          <path id="Trazado_20832" data-name="Trazado 20832" d="M529.818,196.405a5.4,5.4,0,0,1,1.97-2.273c1.35-1.044,4.8-2.392,3.3-3.427-1.846.148-4.03.1-4.03.1-1.109.2-2.407,1.578-3.052,2.59l-1.611,3.353s.741,1.645.762,1.729l.771-.147A8.782,8.782,0,0,1,529.818,196.405Z" transform="translate(-526.397 -190.705)" fill="#f7a57a"/>
          <path id="Trazado_20833" data-name="Trazado 20833" d="M529.91,195.537a1.362,1.362,0,0,1,.048-.273c-.24.046-.478.079-.716.1-.761.463-1.536.9-2.3,1.36.326.4.782.966.806,1.011l5.607-1.99s.062-.766-1.182-.741A5.916,5.916,0,0,0,529.91,195.537Z" transform="translate(-526.407 -190.783)" fill="#f7a57a"/>
        </g>
        <path id="Trazado_20834" data-name="Trazado 20834" d="M521.152,207.868l8.649-8.037-2.985-4.464-11.83,5.587,5.15,9.051Z" transform="translate(-495.219 -177.306)" fill="url(#linear-gradient-12)"/>
        <path id="Trazado_20835" data-name="Trazado 20835" d="M511.295,194.433c-12.333-2.557-10.183,38.28-10.183,38.28h19.509s.279-7.11.992-16.124C522.217,208.943,517.929,200.309,511.295,194.433Z" transform="translate(-494.967 -177.287)" fill="url(#linear-gradient-13)"/>
        <g id="Grupo_11002" data-name="Grupo 11002" transform="translate(18.773 120.176)">
          <path id="Trazado_20836" data-name="Trazado 20836" d="M517.953,302.212a15.348,15.348,0,0,0,6.3,2.9c.965.245,2.005-.083,2.005,1.509h-5.318l-4.422-.765v.765h-2.388s-.665-3.906.73-4.407Z" transform="translate(-513.975 -299.406)" fill="#122043"/>
          <path id="Trazado_20837" data-name="Trazado 20837" d="M517.691,299.355l.269,2.806h0a2.7,2.7,0,0,1-2.926.1l-.164-.1-.5-2.806Z" transform="translate(-513.982 -299.355)" fill="#f7a57a"/>
        </g>
        <g id="Grupo_11003" data-name="Grupo 11003" transform="translate(47.793 25.578)">
          <path id="Trazado_20838" data-name="Trazado 20838" d="M546.141,207.384a5.405,5.405,0,0,0,2.655-1.412c1.32-1.083,3.4-4.14,4.078-2.452-.557,1.766-1,3.905-1,3.905-.441,1.036-2.076,1.992-3.207,2.4l-3.626.821s-1.439-1.09-1.516-1.129l.316-.719A8.767,8.767,0,0,0,546.141,207.384Z" transform="translate(-543.526 -203.022)" fill="#f7a57a"/>
          <path id="Trazado_20839" data-name="Trazado 20839" d="M547.1,207.536a1.376,1.376,0,0,0,.278.015c-.1.222-.184.448-.261.674-.623.638-1.226,1.3-1.841,1.939-.318-.407-.766-.977-.805-1.011l3.193-5.021s.761.111.458,1.319A5.921,5.921,0,0,1,547.1,207.536Z" transform="translate(-543.543 -203.042)" fill="#f7a57a"/>
        </g>
        <g id="Grupo_11004" data-name="Grupo 11004" transform="translate(0 116.25)">
          <path id="Trazado_20840" data-name="Trazado 20840" d="M498.835,298.214a15.348,15.348,0,0,0,6.3,2.9c.964.246,2-.083,2,1.509h-5.317l-4.422-.765v.765h-2.389s-.665-3.906.731-4.407Z" transform="translate(-494.857 -295.408)" fill="#122043"/>
          <path id="Trazado_20841" data-name="Trazado 20841" d="M498.573,295.357l.269,2.806h0a2.7,2.7,0,0,1-2.925.1l-.164-.1-.5-2.806Z" transform="translate(-494.864 -295.357)" fill="#f7a57a"/>
        </g>
        <path id="Trazado_20842" data-name="Trazado 20842" d="M501,233.417s1.562,8.269.164,25.391a31.253,31.253,0,0,1-2.035,8.821c-3.758,9.63-4.274,27.4-4.274,27.4h4.3L514.3,251.714Z" transform="translate(-494.857 -177.991)" fill="#122043"/>
        <path id="Trazado_20843" data-name="Trazado 20843" d="M508.519,208.035s3.372,12.565,12.516,13.722,24.19-10.416,24.19-10.416l-1.654-3.306L527.7,212.479a5.378,5.378,0,0,1-6.179-2.614l-4.782-8.808Z" transform="translate(-495.103 -177.408)" fill="url(#linear-gradient-14)"/>
        <path id="Trazado_20844" data-name="Trazado 20844" d="M520.623,233.417l-2.838,65.5h-3.844s-4.311-15.27-3.987-27.31a27.873,27.873,0,0,0-1.969-11.151,102.861,102.861,0,0,1-6.872-27.039Z" transform="translate(-494.969 -177.991)" fill="#002f4c"/>
        <path id="Trazado_20845" data-name="Trazado 20845" d="M554.616,200.846l-13.805,10.391L525.022,198.9l12.9-9.558Z" transform="translate(-495.4 -177.197)" fill="#fff"/>
        <path id="Trazado_20846" data-name="Trazado 20846" d="M536.46,214.173a9.884,9.884,0,0,0-.836-3.648l8.436-2.362,1.654,3.306a79.82,79.82,0,0,1-9.64,6.177A12.235,12.235,0,0,0,536.46,214.173Z" transform="translate(-495.591 -177.536)" fill="url(#linear-gradient-15)"/>
        <g id="Grupo_11005" data-name="Grupo 11005" transform="translate(13.176 30.562)">
          <path id="Trazado_20847" data-name="Trazado 20847" d="M508.754,208.1c.033.125,3.436,12.418,12.308,13.541,8.275,1.047,21.673-8.629,23.732-10.16.1.131.21.257.32.382-1.982,1.489-14.145,10.354-22.725,10.354a11.089,11.089,0,0,1-1.39-.085c-9.2-1.165-12.69-13.776-12.725-13.9Z" transform="translate(-508.275 -208.097)" fill="#53b6b9"/>
        </g>
        <g id="Grupo_11006" data-name="Grupo 11006" transform="translate(48.706 26.668)">
          <path id="Trazado_20848" data-name="Trazado 20848" d="M548.513,209.915l-2.971.673a9.86,9.86,0,0,0-1.085-2.015,8.966,8.966,0,0,0,1.7-1.134,5.4,5.4,0,0,0,2.648-1.407,12.169,12.169,0,0,0-.335,3.275Q548.483,209.614,548.513,209.915Z" transform="translate(-544.456 -204.165)" fill="#f7a57a"/>
          <path id="Trazado_20849" data-name="Trazado 20849" d="M544.664,208.848l3-4.716s.761.111.459,1.319a5.923,5.923,0,0,1-1.021,2.086,1.377,1.377,0,0,0,.278.015c-.1.222-.183.448-.261.674-.6.614-1.18,1.245-1.771,1.866A9.687,9.687,0,0,0,544.664,208.848Z" transform="translate(-544.46 -204.131)" fill="#f7a57a"/>
        </g>
        <g id="Grupo_11007" data-name="Grupo 11007" transform="translate(33.143 16.478)">
          <path id="Trazado_20850" data-name="Trazado 20850" d="M530.813,193.755l.1.008a4.326,4.326,0,0,0-1.168,1.582,9.034,9.034,0,0,0-.988.861c-.035-.306-.089-.6-.152-.9A10.162,10.162,0,0,0,530.813,193.755Z" transform="translate(-528.608 -193.755)" fill="#f7a57a"/>
          <path id="Trazado_20851" data-name="Trazado 20851" d="M530.274,194.223a5.828,5.828,0,0,1,1.818-.35c1.245-.026,1.183.741,1.183.741l-4.513,1.6c-.035-.309-.087-.611-.149-.907A10.03,10.03,0,0,0,530.274,194.223Z" transform="translate(-528.608 -193.757)" fill="#f7a57a"/>
        </g>
        <path id="Trazado_20852" data-name="Trazado 20852" d="M514.336,197.328v-2.7l-4.507-1.874-1.639,2.077Z" transform="translate(-495.097 -177.259)" fill="#fff"/>
      </g>
      <g id="Grupo_11015" data-name="Grupo 11015" transform="translate(70.843 2.554)">
        <path id="Trazado_20853" data-name="Trazado 20853" d="M576.1,203.341l-5.409,10.188,5.96-.287.418-10.229Z" transform="translate(-567.065 -179.997)" fill="#f7a57a"/>
        <path id="Trazado_20854" data-name="Trazado 20854" d="M584.721,198.75l-5-.007-2.07,32.294h8.954Z" transform="translate(-567.191 -179.92)" fill="#fff"/>
        <g id="Grupo_11010" data-name="Grupo 11010" transform="translate(16.017 112.396)">
          <path id="Trazado_20855" data-name="Trazado 20855" d="M594,295.289A2.615,2.615,0,0,1,595,297.5c-.227,1.237-.547,4.135-.547,4.135h-1.27l.039-2.7c0-.177-2.723,2.7-3.184,2.7h-6.719s-.447-1.824,3.5-2.409S594,295.289,594,295.289Z" transform="translate(-583.309 -294.056)" fill="#002f4c"/>
          <g id="Grupo_11009" data-name="Grupo 11009" transform="translate(2.486)">
            <path id="Trazado_20856" data-name="Trazado 20856" d="M591.13,294.033l-.911,2.371a3.046,3.046,0,0,1-1.24,1.575,11.945,11.945,0,0,1-3.137,1.424c1.827,1.558,4.731-.069,6.394-1.22a4.067,4.067,0,0,0,1.624-2.354l.38-1.8Z" transform="translate(-585.841 -294.033)" fill="#f7a57a"/>
          </g>
        </g>
        <g id="Grupo_11012" data-name="Grupo 11012" transform="translate(3.218 112.396)">
          <path id="Trazado_20857" data-name="Trazado 20857" d="M580.962,295.289a2.612,2.612,0,0,1,1.008,2.208c-.226,1.237-.547,4.135-.547,4.135h-1.27l.039-2.7c0-.177-2.723,2.7-3.184,2.7h-6.719s-.446-1.824,3.5-2.409S580.962,295.289,580.962,295.289Z" transform="translate(-570.276 -294.056)" fill="#002f4c"/>
          <g id="Grupo_11011" data-name="Grupo 11011" transform="translate(2.486)">
            <path id="Trazado_20858" data-name="Trazado 20858" d="M578.1,294.033l-.911,2.371a3.047,3.047,0,0,1-1.24,1.575,11.947,11.947,0,0,1-3.138,1.424c1.826,1.558,4.731-.069,6.394-1.22a4.068,4.068,0,0,0,1.624-2.354l.381-1.8Z" transform="translate(-572.807 -294.033)" fill="#f7a57a"/>
          </g>
        </g>
        <path id="Trazado_20859" data-name="Trazado 20859" d="M588.5,231.629s.84,4.827-3.988,28.551c3.908,12.364-2.35,33.052-2.35,33.052H577.6l-3.1-61.6Z" transform="translate(-567.134 -180.513)" fill="#0f787a"/>
        <path id="Trazado_20860" data-name="Trazado 20860" d="M580.193,198.75l-1.62,39.182-5.37-2.3a57.64,57.64,0,0,0,2.19-17.574c.821-7.389-3.371-3.5,1.766-17.724C579.07,198.742,580.193,198.75,580.193,198.75Z" transform="translate(-567.111 -179.921)" fill="#ffd159"/>
        <path id="Trazado_20861" data-name="Trazado 20861" d="M579.608,194.526l.629,3.3a2.1,2.1,0,0,0,3.182,1.388l2.2-1.381-3.934-8.894Z" transform="translate(-567.226 -179.744)" fill="#f18c72"/>
        <path id="Trazado_20862" data-name="Trazado 20862" d="M592.966,231.629s5.976,4.827,1.149,28.551c3.907,12.364.46,33.052.46,33.052h-4.094l-11.519-61.6Z" transform="translate(-567.214 -180.513)" fill="#53b6b9"/>
        <path id="Trazado_20863" data-name="Trazado 20863" d="M584.821,195.368s5.044,2.835,6.612,5.367c1.495,2.413,2.011,7.9,2.155,12.791.2,6.712,3.438,24.345,3.438,24.345H583.5l-.337-38.387Z" transform="translate(-567.29 -179.86)" fill="#ffd159"/>
        <path id="Trazado_20864" data-name="Trazado 20864" d="M574.672,184.448c3.059-.775,6,2.361,6,2.361l2.3,12.392,3.538-5.454s.2-7.41-3.219-12.317c-2.449-2.971-7.15-2.118-9.527.772a7.3,7.3,0,0,0-1.285,5.132c.15,2.4.83,16.159.83,16.159l7.006-5.19a32.63,32.63,0,0,0-.838-3.945C578.325,189.978,572.619,184.968,574.672,184.448Z" transform="translate(-567.097 -179.575)" fill="#122043"/>
        <path id="Trazado_20865" data-name="Trazado 20865" d="M581.73,186.746a1.1,1.1,0,0,0-1.3.682.952.952,0,0,0,.331,1.345,1.105,1.105,0,0,0,1.306-.681A.953.953,0,0,0,581.73,186.746Z" transform="translate(-567.238 -179.703)" fill="#f7a57a"/>
        <g id="Grupo_11013" data-name="Grupo 11013" transform="translate(6.092 3.691)">
          <path id="Trazado_20866" data-name="Trazado 20866" d="M578.32,195.006a2.437,2.437,0,0,1-1.5.193c-2.66-1.928-3.622-9.628-3.622-9.628l2.107-2.237,4.2.921,2.067,4.587a4.219,4.219,0,0,1-.172,3.807h0A6.767,6.767,0,0,1,578.32,195.006Z" transform="translate(-573.203 -183.334)" fill="#f7a57a"/>
        </g>
        <path id="Trazado_20867" data-name="Trazado 20867" d="M574,184.324c.219,2.329,6.7,2.521,6.7,2.521l.338-3.154-3.78-2.08-2.991,1.8A1.99,1.99,0,0,0,574,184.324Z" transform="translate(-567.125 -179.612)" fill="#122043"/>
        <path id="Trazado_20868" data-name="Trazado 20868" d="M574.121,184.828a4.452,4.452,0,0,1-.663,2.377l-.516-.932.015-.807.509-.629S573.906,183.961,574.121,184.828Z" transform="translate(-567.106 -179.663)" fill="#122043"/>
        <path id="Trazado_20869" data-name="Trazado 20869" d="M589.892,200.832c6.543.764,3.453,17.643,2.046,24.574a2.933,2.933,0,0,1-3.749,2.223c-5.693-1.8-14.011-9.252-14.011-9.252l1.318-1.66,11.049,2.58S582.306,199.948,589.892,200.832Z" transform="translate(-567.128 -179.958)" fill="#f7a57a"/>
        <path id="Trazado_20870" data-name="Trazado 20870" d="M576.672,212.964l2.136,13.224a.63.63,0,0,1-.622.731h-8.459a.63.63,0,0,1-.623-.531l-2.1-13.225a.63.63,0,0,1,.622-.729h8.422A.631.631,0,0,1,576.672,212.964Z" transform="translate(-566.999 -180.167)" fill="#fff"/>
        <g id="Grupo_11014" data-name="Grupo 11014" transform="translate(0.25 34.436)">
          <path id="Trazado_20871" data-name="Trazado 20871" d="M567.288,218.859a5.775,5.775,0,0,1,.147-1.718c.2-1.251.148-3.211,1.426-2.234a6.426,6.426,0,0,1,1.347,3.125,3.736,3.736,0,0,1-.805,2.794l-.879,1.914A5.532,5.532,0,0,1,567.288,218.859Z" transform="translate(-567.254 -214.643)" fill="#f7a57a"/>
        </g>
        <path id="Trazado_20872" data-name="Trazado 20872" d="M572.9,217.655a.645.645,0,1,1-.645-.645A.645.645,0,0,1,572.9,217.655Z" transform="translate(-567.082 -180.249)" fill="url(#linear-gradient-16)"/>
      </g>
    </g>
    <g id="Grupo_11024" data-name="Grupo 11024" transform="translate(432.628 40.133)">
      <g id="Grupo_11023" data-name="Grupo 11023">
        <g id="Grupo_11017" data-name="Grupo 11017" transform="translate(8.367 105.001)">
          <path id="Trazado_20873" data-name="Trazado 20873" d="M448.972,147.06l-.55,3.283h0a3.161,3.161,0,0,0,3.424.115l.192-.115.812-3.283Z" transform="translate(-448.422 -147.06)" fill="#f7a57a"/>
        </g>
        <path id="Trazado_20874" data-name="Trazado 20874" d="M475.545,69.66c-2.917,9.625-12.7,24.4-12.7,24.4l7.731-3.164,5.465-12.624S478.461,60.033,475.545,69.66Z" transform="translate(-440.315 -40.615)" fill="#005558"/>
        <path id="Trazado_20875" data-name="Trazado 20875" d="M454.271,108.914l-6.1,37.6h5.419s12.174-33.826,13.452-43.771c0-5.633-12.306,0-12.306,0Z" transform="translate(-440.051 -41.216)" fill="#122043"/>
        <g id="Grupo_11019" data-name="Grupo 11019" transform="translate(25.716)">
          <path id="Trazado_20876" data-name="Trazado 20876" d="M474.943,54.165l2.023,5.236,4.379-3.169-2.955-6.174Z" transform="translate(-466.249 -40.312)" fill="#f18c72"/>
          <g id="Grupo_11018" data-name="Grupo 11018" transform="translate(3.349 2.194)">
            <path id="Trazado_20877" data-name="Trazado 20877" d="M473.2,54.9a2.985,2.985,0,0,1-1.709-.046c-2.539-2.424-1.92-10.519-1.92-10.519l2.838-1.962,4.469,1.639,1.3,5.067a4.241,4.241,0,0,1-1.027,3.9h0A8.279,8.279,0,0,1,473.2,54.9Z" transform="translate(-469.5 -42.368)" fill="#f7a57a"/>
          </g>
          <path id="Trazado_20878" data-name="Trazado 20878" d="M476.024,45.671a1.747,1.747,0,0,0-2.195-.872,13.809,13.809,0,0,1-2.1.642c-1.754.367-5.023.336-5.582-2.333s2.912-2.44,2.912-2.44l4.609.318a8.49,8.49,0,0,0,3.976-.729,1.873,1.873,0,0,1,2.33,1.232c.519,1.506-.023,4.081-.477,5.732a8.376,8.376,0,0,1-1.272,2.658h0Z" transform="translate(-466.09 -40.133)" fill="#122043"/>
          <path id="Trazado_20879" data-name="Trazado 20879" d="M478.809,46.937a1.347,1.347,0,0,0-1.6.487c-.422.533-.39,1.178.074,1.442a1.347,1.347,0,0,0,1.6-.488C479.305,47.845,479.273,47.2,478.809,46.937Z" transform="translate(-466.285 -40.254)" fill="#f7a57a"/>
        </g>
        <g id="Grupo_11020" data-name="Grupo 11020" transform="translate(0 102.726)">
          <path id="Trazado_20880" data-name="Trazado 20880" d="M448.168,150.028s-.015,3.49-7.026,5.586c-1.438.429-.97.855-1.24,1.459h8.068l3.159-3.551.982.844,2.278-2.237s-.4-3.239-2.13-3.267C450.829,149.348,448.168,150.028,448.168,150.028Z" transform="translate(-439.902 -144.817)" fill="#122043"/>
          <path id="Trazado_20881" data-name="Trazado 20881" d="M468.608,146l1.311,3.022h0a3.16,3.16,0,0,0,3.278-1l.144-.171-1.059-3.107Z" transform="translate(-440.419 -144.743)" fill="#f7a57a"/>
        </g>
        <path id="Trazado_20882" data-name="Trazado 20882" d="M475.927,58.016s-.558-.859,4.4-3.423c7.473,7.473,9.927,36.085,9.927,36.085H470.712C470.052,74.35,475.927,58.016,475.927,58.016Z" transform="translate(-440.456 -40.394)" fill="#0f787a"/>
        <path id="Trazado_20883" data-name="Trazado 20883" d="M456.36,90.491a.863.863,0,0,1,.407-.943l3.186-1.846a3.7,3.7,0,0,1,2.609-.422l3.454.137.452.546.718,3.053c-.693-.167-1.1-.273-1.1-.273l-2.194.06s-4.138,3.844-6.189.5c-.084,3.557-1.127,3.284-1.127,3.284Z" transform="translate(-440.198 -40.981)" fill="#f7a57a"/>
        <path id="Trazado_20884" data-name="Trazado 20884" d="M489.864,91.34l.3,2.425.011.1a9.56,9.56,0,0,1-7.008,10.175,86.107,86.107,0,0,1-20.123,3.561c7.371,9.462,9.409,36.017,9.409,36.017l-4.749,1.723-18.339-43.68a4.826,4.826,0,0,1,3.445-6.589l17.516-3.73Z" transform="translate(-440.066 -41.056)" fill="#002f4c"/>
        <path id="Trazado_20885" data-name="Trazado 20885" d="M477.933,67.408a39.306,39.306,0,0,1,5.78,6.748,2.548,2.548,0,0,1-.229,3.025c-4.069,4.687-18.571,9.188-18.571,9.188l.939,5.29S486.43,87.613,493.72,80.3c7.48-7.5-11.857-23.17-11.857-23.17" transform="translate(-440.353 -40.439)" fill="#0f787a"/>
        <g id="Grupo_11021" data-name="Grupo 11021" transform="translate(25.457 26.755)">
          <path id="Trazado_20886" data-name="Trazado 20886" d="M483.6,74.5a2.246,2.246,0,0,1-.2,2.68c-1.857,2.139-6.81,4.423-11.133,6.079.006.265,0,.283,0,.6,4.539-1.7,9.545-3.963,11.571-6.3a2.823,2.823,0,0,0,.256-3.369,39.913,39.913,0,0,0-5.83-6.808l-.393.428A39.276,39.276,0,0,1,483.6,74.5Z" transform="translate(-465.942 -67.379)" fill="#53b6b9"/>
          <path id="Trazado_20887" data-name="Trazado 20887" d="M489.446,83.719c-7.9,4.265-19.484,7.32-23.62,8.185a4.481,4.481,0,0,0,.124.56c3.979-.813,15.451-3.759,23.575-8.076A5.588,5.588,0,0,0,489.446,83.719Z" transform="translate(-465.826 -67.673)" fill="#53b6b9"/>
        </g>
        <g id="Grupo_11022" data-name="Grupo 11022" transform="translate(2.383 33.8)">
          <path id="Trazado_20888" data-name="Trazado 20888" d="M448.419,96.643l-6.091-21.777,1.118-.313,5.809,20.767,17.487-3.039.2,1.144Z" transform="translate(-442.329 -74.553)" fill="#0f787a"/>
        </g>
      </g>
      <path id="Trazado_20889" data-name="Trazado 20889" d="M469.5,148.393s.275,3.519-6.735,5.615c-1.439.43-.97.855-1.24,1.46h8.068l3.159-3.552.982.845,2.278-2.238s-1.065-3.239-2.8-3.267C471.783,147.744,469.5,148.393,469.5,148.393Z" transform="translate(-440.291 -42.063)" fill="#122043"/>
    </g>
    <g id="Grupo_11032" data-name="Grupo 11032" transform="translate(254.846 69.846)">
      <g id="Grupo_11027" data-name="Grupo 11027" transform="translate(48.043 70.362)">
        <path id="Trazado_20890" data-name="Trazado 20890" d="M308.8,145.881l10.5-.881c1.405.03,3,.3,3.357,1.484a7.074,7.074,0,0,1,.284,1.587c-.336.467-14.3,1.125-14.3,1.125l-.065-.045C306.952,147.5,308.8,145.881,308.8,145.881Z" transform="translate(-307.786 -142.096)" fill="#002f4c"/>
        <path id="Trazado_20891" data-name="Trazado 20891" d="M322.947,148.128l-14.3,1.125.17.546,14.187-1.174Z" transform="translate(-307.8 -142.153)" fill="#fff"/>
        <g id="Grupo_11025" data-name="Grupo 11025" transform="translate(5.005 3.357)">
          <path id="Trazado_20892" data-name="Trazado 20892" d="M313.04,145.533l.946-.072-.188,1.311-.917.076Z" transform="translate(-312.881 -145.461)" fill="#fff"/>
        </g>
        <g id="Grupo_11026" data-name="Grupo 11026" transform="translate(7.032 3.189)">
          <path id="Trazado_20893" data-name="Trazado 20893" d="M315.1,145.362l.946-.072-.188,1.311-.917.076Z" transform="translate(-314.945 -145.29)" fill="#fff"/>
        </g>
        <path id="Trazado_20894" data-name="Trazado 20894" d="M307.784,142.391l1.01,3.437h0a3.416,3.416,0,0,0,2.819-.166l.154-.083.216-3.535Z" transform="translate(-307.784 -142.043)" fill="#f7a57a"/>
      </g>
      <g id="Grupo_11030" data-name="Grupo 11030" transform="translate(44.754 72.76)">
        <path id="Trazado_20895" data-name="Trazado 20895" d="M305.457,148.332l10.494-.913c1.406.026,3,.288,3.362,1.474a7.043,7.043,0,0,1,.289,1.586c-.334.467-14.292,1.169-14.292,1.169l-.065-.044C303.618,149.955,305.457,148.332,305.457,148.332Z" transform="translate(-304.436 -144.538)" fill="#002f4c"/>
        <path id="Trazado_20896" data-name="Trazado 20896" d="M319.615,150.535,305.323,151.7l.171.545,14.184-1.218Z" transform="translate(-304.45 -144.594)" fill="#fff"/>
        <g id="Grupo_11028" data-name="Grupo 11028" transform="translate(5.019 3.35)">
          <path id="Trazado_20897" data-name="Trazado 20897" d="M309.7,147.972l.945-.075-.184,1.312-.916.079Z" transform="translate(-309.545 -147.897)" fill="#fff"/>
        </g>
        <g id="Grupo_11029" data-name="Grupo 11029" transform="translate(7.045 3.176)">
          <path id="Trazado_20898" data-name="Trazado 20898" d="M311.763,147.795l.946-.075-.184,1.312-.916.079Z" transform="translate(-311.608 -147.72)" fill="#fff"/>
        </g>
        <path id="Trazado_20899" data-name="Trazado 20899" d="M304.434,144.845l1.02,3.434h0a3.417,3.417,0,0,0,2.819-.175l.153-.084.206-3.535Z" transform="translate(-304.434 -144.485)" fill="#f7a57a"/>
      </g>
      <path id="Trazado_20900" data-name="Trazado 20900" d="M262.378,120.91s1.673,13.277,13.777,13.833S302.534,121.5,302.534,121.5l4.68,20.915,4.652.1s3.016-31.807-3.478-33.416-30.658,8.89-30.658,8.89Z" transform="translate(-258.923 -71.085)" fill="#122043"/>
      <g id="Grupo_11031" data-name="Grupo 11031" transform="translate(9.545)">
        <path id="Trazado_20901" data-name="Trazado 20901" d="M272.026,83.142l-2.344,4.688,4.039,1.5,1.843-3.8Z" transform="translate(-268.599 -70.621)" fill="#f18c72"/>
        <path id="Trazado_20902" data-name="Trazado 20902" d="M273.159,74.541,271.5,80.978a1.025,1.025,0,0,1,.491,1.518,1.234,1.234,0,0,1-.04.5,7.616,7.616,0,0,0,5.235,3.08c4.249.485,4.252-8.022,4.252-8.022Z" transform="translate(-268.632 -70.466)" fill="#f7a57a"/>
        <path id="Trazado_20903" data-name="Trazado 20903" d="M269.6,78.595a4.07,4.07,0,0,0-.466-2.072c-1.657-2.673.822-3.47,1.686-3.709.956-.262,1.252-1.757,2.536-2.241,1.961-.74,3.079,1.011,4.147,1.139s2.112-1.017,3.356.152.723,2.27,1.042,2.9,1.6-.44,2.552,1.541c1.446,3.013-3.133,2.678-3.133,2.678a8.114,8.114,0,0,1-5.351-1.943,1.063,1.063,0,0,0-1.288-.08c-1.053.778-2.713,6.061-2.713,6.061l-.764-1.18A3.005,3.005,0,0,1,269.6,78.595Z" transform="translate(-268.579 -70.391)" fill="#122043"/>
        <path id="Trazado_20904" data-name="Trazado 20904" d="M271.907,80.019a1.019,1.019,0,1,0,.928-1.1A1.019,1.019,0,0,0,271.907,80.019Z" transform="translate(-268.639 -70.544)" fill="#f7a57a"/>
      </g>
      <path id="Trazado_20905" data-name="Trazado 20905" d="M258.868,119.815s.31,13.379,12.293,15.166S298.753,124.5,298.753,124.5l4.578,20.508,4.717-.406s4.089-29.579-2.207-31.843-31.4,5.718-31.4,5.718Z" transform="translate(-258.86 -71.147)" fill="#002f4c"/>
      <path id="Trazado_20906" data-name="Trazado 20906" d="M258.868,119.366l20.005-1.718a42.047,42.047,0,0,1-1.011-8.955,16.506,16.506,0,0,1,1.52-6.412c-.588-7.639-2.864-15.187-9.609-14.828C258.157,89.506,258.868,119.366,258.868,119.366Z" transform="translate(-258.859 -70.698)" fill="#0f787a"/>
      <path id="Trazado_20907" data-name="Trazado 20907" d="M316.665,95.01l-8.031,17.069-17.34-3.212-.255,1.381,18.4,3.409,8.491-18.049Z" transform="translate(-259.439 -70.834)" fill="#0f787a"/>
      <path id="Trazado_20908" data-name="Trazado 20908" d="M271.7,103.065l7.9-.679.257,8.807,14.069-3.437,3.192-1.834a3.86,3.86,0,0,1,2.724-.429l3.759.8a.9.9,0,0,1,.71.8l1.117,4.133s-.945.609-2.184-2.891c-.949,3.982-6.49.938-6.49.938l-2.007,1.227s-15.473,9.953-19.057,7.71S271.7,103.065,271.7,103.065Z" transform="translate(-259.091 -70.967)" fill="#f7a57a"/>
      <path id="Trazado_20909" data-name="Trazado 20909" d="M304.71,107.149a.9.9,0,0,0-.71-.8l-3.759-.8a3.86,3.86,0,0,0-2.724.429l-3.192,1.834-.461.112.281,3.261c.633-.391,1-.628,1-.628l2.007-1.227s5.541,3.044,6.49-.938c1.239,3.5,2.184,2.891,2.184,2.891Z" transform="translate(-259.49 -71.023)" fill="#f7a57a"/>
    </g>
  </g>
</svg>
