<svg xmlns="http://www.w3.org/2000/svg" xmlns:xlink="http://www.w3.org/1999/xlink" width="653.63" height="377.242" viewBox="0 0 653.63 377.242">
  <defs>
    <linearGradient id="linear-gradient" y1="0.5" x2="1" y2="0.5" gradientUnits="objectBoundingBox">
      <stop offset="0" stop-color="#dfefea"/>
      <stop offset="1" stop-color="#bfe3ee"/>
    </linearGradient>
  </defs>
  <g id="Grupo_11664" data-name="Grupo 11664" transform="translate(-201.271 -264.666)">
    <g id="Grupo_11585" data-name="Grupo 11585" transform="translate(697.447 412.667)">
      <path id="Trazado_21661" data-name="Trazado 21661" d="M2950.226,1144.216a7.318,7.318,0,0,1,.315,5.217l-.952,6.769-1.163.782-4.328,1.787a4.658,4.658,0,0,0,0-2.71l-1.9-7s-2.955-11.815,5.066-11.31c-.041-9.624,2.64-8.035,2.64-8.035l.185,8.32Z" transform="translate(-2941.666 -1121.01)" fill="#f7b58e"/>
      <path id="Trazado_21662" data-name="Trazado 21662" d="M2977.875,1284.675s-5.608,21.4-10.391,21.786-9.757-33.906-9.757-33.906l-6.5.786s-2.527,49.308,12.062,50.205,16.515-10.007,16.515-10.007Z" transform="translate(-2949.356 -1238.068)" fill="#63c0c4"/>
      <path id="Trazado_21663" data-name="Trazado 21663" d="M3099.789,1343.193h38.166v-57.967c-10.9-16.639-24.494-12.107-24.494-12.107s-12.356.222-14.282,11.556C3099.179,1292.878,3099.789,1343.193,3099.789,1343.193Z" transform="translate(-3070.66 -1238.068)" fill="#01888b"/>
      <g id="Grupo_11580" data-name="Grupo 11580" transform="translate(37.775 27.351)">
        <path id="Trazado_21664" data-name="Trazado 21664" d="M3159.787,1233.146l.565,8.195-.269.256a7.108,7.108,0,0,1-9.655.135h0l-.128-6.166Z" transform="translate(-3150.301 -1233.146)" fill="#f39f85"/>
      </g>
      <g id="Grupo_11581" data-name="Grupo 11581" transform="translate(25.711)">
        <path id="Trazado_21665" data-name="Trazado 21665" d="M3129.629,1138.583l-.691,13.546a2.093,2.093,0,0,0-1.881,2.66,2.533,2.533,0,0,0-.226,1,15.541,15.541,0,0,1-12.07,2.811c-8.573-1.641-3.4-18.212-3.4-18.212Z" transform="translate(-3105.081 -1128.353)" fill="#f7b58e"/>
        <path id="Trazado_21666" data-name="Trazado 21666" d="M3112.527,1102.488a8.306,8.306,0,0,1,2.172-3.752c4.854-4.2.512-7.261-1.028-8.25-1.7-1.094-1.368-4.184-3.574-5.91-3.368-2.635-6.613.1-8.77-.3s-3.5-3.268-6.631-1.748-2.79,3.982-3.8,5.02-2.852-1.831-5.909,1.448c-4.653,4.989,4.471,7.123,4.471,7.123a16.555,16.555,0,0,0,11.6-.527,2.169,2.169,0,0,1,2.558.627c1.578,2.157,1.6,13.458,1.6,13.458l2.205-1.834S3112.235,1107.038,3112.527,1102.488Z" transform="translate(-3083.67 -1082.083)" fill="#212b53"/>
        <path id="Trazado_21667" data-name="Trazado 21667" d="M3196.531,1187.927a2.08,2.08,0,1,1-1.137-2.713A2.079,2.079,0,0,1,3196.531,1187.927Z" transform="translate(-3172.816 -1166.414)" fill="#f7b58e"/>
      </g>
      <g id="Grupo_11582" data-name="Grupo 11582" transform="translate(20.849 207.929)">
        <path id="Trazado_21668" data-name="Trazado 21668" d="M3073.746,2266.342s-2.151,2.977-12.291,5.559c-2.233.569-4.639.957-4.639,4.639h10.009l10.234-1.769v1.769h5.527s1.539-9.039-1.689-10.2Z" transform="translate(-3056.816 -2259.849)" fill="#212b53"/>
        <path id="Trazado_21669" data-name="Trazado 21669" d="M3147.418,2230.481l.525,6.493h0a6.252,6.252,0,0,0,6.771.227l.379-.227v-6.493Z" transform="translate(-3131.014 -2230.481)" fill="#f7b58e"/>
      </g>
      <g id="Grupo_11583" data-name="Grupo 11583" transform="translate(49.282 207.929)">
        <path id="Trazado_21670" data-name="Trazado 21670" d="M3230.781,2266.342s-2.151,2.977-12.291,5.559c-2.232.569-4.639.957-4.639,4.639h10.009l10.234-1.769v1.769h5.527s1.539-9.039-1.689-10.2Z" transform="translate(-3213.851 -2259.849)" fill="#212b53"/>
        <path id="Trazado_21671" data-name="Trazado 21671" d="M3304.451,2230.481l.525,6.493h0a6.252,6.252,0,0,0,6.771.227l.38-.227v-6.493Z" transform="translate(-3288.047 -2230.481)" fill="#f7b58e"/>
      </g>
      <path id="Trazado_21672" data-name="Trazado 21672" d="M3143.28,1342.535s11.44,26.4-3.156,39.888-34.411,11.191-34.411,11.191v-7.6s17.91-1.514,23.65-13.487-2.3-22.336-2.3-22.336" transform="translate(-3076.011 -1295.378)" fill="#01888b"/>
      <path id="Trazado_21673" data-name="Trazado 21673" d="M3040.074,1570.843l-9.136.191c-3.709-.2-6.178-5.745-6.794-9.863a.836.836,0,0,1,1.106-.9c3.1,1.076,11.075,3.9,13.137,5.18Z" transform="translate(-3009.203 -1473.649)" fill="#f7b58e"/>
      <path id="Trazado_21674" data-name="Trazado 21674" d="M3085.341,1662.688c-11.383,32.14,6.408,103.307,6.408,103.307h10.14s-4.783-100.916,8.418-103.307Z" transform="translate(-3056.212 -1557.564)" fill="#212b53"/>
      <path id="Trazado_21675" data-name="Trazado 21675" d="M3127.184,1464.045a20.575,20.575,0,0,1-2.038,7.987c-5.739,11.973-24.582,13.559-24.582,13.559v7.68s20.747,2.148,35.343-11.339c5.292-4.89,7.153-11.476,7.386-17.887Z" transform="translate(-3071.794 -1394.887)" fill="#63c0c4"/>
      <g id="Grupo_11584" data-name="Grupo 11584" transform="translate(51.049 54.171)">
        <path id="Trazado_21676" data-name="Trazado 21676" d="M3227.862,1397.415c.4-.181.8-.355,1.2-.545a24.522,24.522,0,0,0-4.553-15.6l-.9.713A23.155,23.155,0,0,1,3227.862,1397.415Z" transform="translate(-3223.609 -1381.269)" fill="#63c0c4"/>
      </g>
      <path id="Trazado_21677" data-name="Trazado 21677" d="M2977.931,1182.846s2.105-.632,2.435-4.474,2.144-2.654,2.144-2.654-.944,15.146-3.358,15.715S2977.931,1182.846,2977.931,1182.846Z" transform="translate(-2971.123 -1158.623)" fill="#f7b58e"/>
      <path id="Trazado_21678" data-name="Trazado 21678" d="M3163.337,1662.688c-3.1,39.409,22.064,103.307,22.064,103.307h12.052s-8.191-40.857-8.357-79.2a204.8,204.8,0,0,1,1.183-24.1Z" transform="translate(-3122.985 -1557.564)" fill="#053c5e"/>
    </g>
    <g id="Grupo_11592" data-name="Grupo 11592" transform="translate(816.564 306.17)">
      <g id="Grupo_11586" data-name="Grupo 11586">
        <path id="Trazado_21681" data-name="Trazado 21681" d="M3627.56,530.682l4.154,6.159-7.215-.734-24.941-4.6Z" transform="translate(-3599.557 -524.022)" fill="#afd8c7"/>
        <path id="Trazado_21682" data-name="Trazado 21682" d="M3722.823,559.661l-12.013.733,2.738-1.846Z" transform="translate(-3690.667 -546.842)" fill="#63c0c4"/>
        <path id="Trazado_21683" data-name="Trazado 21683" d="M3627.56,500.558l1.295-6.66-29.3,7.489Z" transform="translate(-3599.557 -493.898)" fill="#fff"/>
        <path id="Trazado_21684" data-name="Trazado 21684" d="M3599.557,535.258l24.941,4.6-2.437,9.671Z" transform="translate(-3599.557 -527.77)" fill="#fff"/>
      </g>
      <g id="Grupo_11591" data-name="Grupo 11591" transform="translate(7.683 17.365)">
        <g id="Grupo_11587" data-name="Grupo 11587" transform="translate(19.3)">
          <path id="Trazado_21685" data-name="Trazado 21685" d="M3751.943,592.2a.565.565,0,0,0,0-.937,15.879,15.879,0,0,0-2.57-1.408.565.565,0,1,0-.448,1.037,14.706,14.706,0,0,1,2.386,1.309A.565.565,0,0,0,3751.943,592.2Z" transform="translate(-3748.584 -589.803)" fill="#63c0c4"/>
        </g>
        <g id="Grupo_11589" data-name="Grupo 11589" transform="translate(0 3.56)">
          <g id="Grupo_11588" data-name="Grupo 11588">
            <path id="Trazado_21686" data-name="Trazado 21686" d="M3663.5,670.659a.565.565,0,0,1,.1-.792,15.9,15.9,0,0,0,3.672-4.074.566.566,0,0,1,.954.608,17.024,17.024,0,0,1-3.936,4.361.341.341,0,0,1-.029.021A.565.565,0,0,1,3663.5,670.659Zm5.613-7.078a.564.564,0,0,1-.3-.738,20.213,20.213,0,0,0,1.4-5.356.565.565,0,1,1,1.122.135,21.336,21.336,0,0,1-1.482,5.654.555.555,0,0,1-.205.252A.564.564,0,0,1,3669.115,663.582Zm1.8-8.88a.566.566,0,0,1-.594-.535l-.015-.255a26.077,26.077,0,0,0-.927-5.237.565.565,0,1,1,1.088-.305,27.252,27.252,0,0,1,.967,5.464l.017.273a.566.566,0,0,1-.535.594Zm-1.889-8.891a.565.565,0,0,1-.734-.313,41.118,41.118,0,0,0-2.473-5.055.565.565,0,0,1,.98-.562,42.148,42.148,0,0,1,2.541,5.195.565.565,0,0,1-.208.679A.606.606,0,0,1,3669.027,645.81Zm-4.2-8.094a.566.566,0,0,1-.782-.163c-.087-.132-.174-.265-.262-.4a19.051,19.051,0,0,1-1.738.829.565.565,0,0,1-.434-1.044q.785-.326,1.534-.726c-.72-1.043-1.505-2.123-2.384-3.281a.565.565,0,0,1,.9-.683c.912,1.2,1.723,2.318,2.468,3.4a17.152,17.152,0,0,0,2.174-1.592.565.565,0,1,1,.738.856,18.362,18.362,0,0,1-2.279,1.672c.077.115.153.23.229.346a.565.565,0,0,1-.157.778Zm3.846-5.266a.565.565,0,0,1-.108-.791,14.2,14.2,0,0,0,2.416-4.894.565.565,0,1,1,1.09.3,15.318,15.318,0,0,1-2.606,5.279.539.539,0,0,1-.134.127A.566.566,0,0,1,3668.672,632.45Zm-10,6.582a17.654,17.654,0,0,1-5.863.264.565.565,0,0,1,.141-1.121,16.513,16.513,0,0,0,5.489-.249.565.565,0,0,1,.234,1.106Zm13.353-14.93a.566.566,0,0,1-.536-.593,17.136,17.136,0,0,0-.624-5.467.565.565,0,0,1,1.088-.3,18.271,18.271,0,0,1,.664,5.827.565.565,0,0,1-.593.536Zm-22.661,14.364a14.733,14.733,0,0,1-1.411-.6,12.064,12.064,0,0,1-3.544-2.636.565.565,0,1,1,.829-.767,10.941,10.941,0,0,0,3.209,2.387,13.77,13.77,0,0,0,1.3.554.565.565,0,1,1-.387,1.061Zm9.286-8.2a20.964,20.964,0,0,0-3.993-3.845.565.565,0,0,1,.648-.926,22.051,22.051,0,0,1,4.212,4.047.566.566,0,0,1-.072.8c-.015.012-.031.024-.046.035A.565.565,0,0,1,3658.655,630.266Zm11.794-15.064a.565.565,0,0,1-.756-.261,18.088,18.088,0,0,0-1.259-2.183,17.285,17.285,0,0,0-1.889-2.336.565.565,0,0,1,.813-.785,18.316,18.316,0,0,1,2.013,2.489,19.217,19.217,0,0,1,1.338,2.32.566.566,0,0,1-.191.716A.607.607,0,0,1,3670.449,615.2Zm-27.255,17.306a.565.565,0,0,1-.73-.324,6.273,6.273,0,0,1-.094-4.528,5.727,5.727,0,0,1,.794-1.436.565.565,0,1,1,.9.682,4.617,4.617,0,0,0-.638,1.153,5.1,5.1,0,0,0,.091,3.723.565.565,0,0,1-.211.671A.527.527,0,0,1,3643.194,632.508Zm8.582-7.563a8.087,8.087,0,0,0-5.224.152.565.565,0,0,1-.41-1.053,9.123,9.123,0,0,1,5.978-.175.565.565,0,1,1-.344,1.076Z" transform="translate(-3641.992 -609.463)" fill="#63c0c4"/>
          </g>
        </g>
        <g id="Grupo_11590" data-name="Grupo 11590" transform="translate(15.696 65.608)">
          <path id="Trazado_21687" data-name="Trazado 21687" d="M3732.265,953.189a.565.565,0,0,0-.537-.989,12.115,12.115,0,0,1-2.581.771.565.565,0,1,0,.2,1.111,13.257,13.257,0,0,0,2.823-.84A.625.625,0,0,0,3732.265,953.189Z" transform="translate(-3728.681 -952.156)" fill="#63c0c4"/>
        </g>
      </g>
    </g>
    <g id="Grupo_11595" data-name="Grupo 11595" transform="translate(442.486 264.666)">
      <g id="Grupo_11593" data-name="Grupo 11593" transform="translate(69.747 0)">
        <path id="Trazado_21688" data-name="Trazado 21688" d="M1990.454,269.993l-21.694-5.328-10.16.672-7,3.036Z" transform="translate(-1945.652 -264.666)" fill="#fff"/>
        <path id="Trazado_21689" data-name="Trazado 21689" d="M1990.454,286.766l-37.81.449-1.039-2.069" transform="translate(-1945.652 -281.438)" fill="#afd8c7"/>
        <path id="Trazado_21690" data-name="Trazado 21690" d="M1960.807,301l.065.062,2.965,5.089,34.064-11.912Z" transform="translate(-1953.188 -288.883)" fill="#63c0c4"/>
        <path id="Trazado_21691" data-name="Trazado 21691" d="M1918.724,299.2l3.94-5.455,40.616.066-32.839,7.82Z" transform="translate(-1918.724 -288.478)" fill="#fff"/>
      </g>
      <g id="Grupo_11594" data-name="Grupo 11594" transform="translate(0 9.108)">
        <path id="Trazado_21692" data-name="Trazado 21692" d="M1577.473,817.819a27.378,27.378,0,0,0,3-2.394.532.532,0,0,1,.719.785,28.535,28.535,0,0,1-3.12,2.487q-.59.406-1.2.781a.532.532,0,1,1-.561-.9Q1576.9,818.211,1577.473,817.819Z" transform="translate(-1568.362 -724.699)" fill="#63c0c4"/>
        <path id="Trazado_21693" data-name="Trazado 21693" d="M1853.878,315.541c1.658-.227,3.4-.413,5.319-.569a.532.532,0,0,1,.086,1.061c-1.9.154-3.622.338-5.261.563a.532.532,0,0,1-.144-1.055Z" transform="translate(-1795.495 -314.971)" fill="#63c0c4"/>
        <path id="Trazado_21694" data-name="Trazado 21694" d="M1807.7,323.064a.532.532,0,0,1,.052-1.008c1.644-.459,3.405-.86,5.234-1.193a.532.532,0,0,1,.19,1.047c-1.8.327-3.525.721-5.138,1.171A.528.528,0,0,1,1807.7,323.064Z" transform="translate(-1757.775 -319.789)" fill="#63c0c4"/>
        <path id="Trazado_21695" data-name="Trazado 21695" d="M1614.952,779.112a.524.524,0,0,1,.728-.187.53.53,0,0,1,.186.728,29.642,29.642,0,0,1-3.166,4.387.531.531,0,0,1-.6.146.508.508,0,0,1-.155-.094.532.532,0,0,1-.052-.75A28.754,28.754,0,0,0,1614.952,779.112Z" transform="translate(-1597.599 -694.858)" fill="#63c0c4"/>
        <path id="Trazado_21696" data-name="Trazado 21696" d="M1637.387,741.515a.532.532,0,0,1-.266-.7q.292-.649.553-1.312a27.612,27.612,0,0,0,1.141-3.619.532.532,0,0,1,.641-.393.538.538,0,0,1,.394.642,28.612,28.612,0,0,1-1.185,3.759q-.27.687-.574,1.36a.531.531,0,0,1-.679.277Z" transform="translate(-1618.323 -659.336)" fill="#63c0c4"/>
        <path id="Trazado_21697" data-name="Trazado 21697" d="M1650.224,695.2a.531.531,0,0,1-.46-.6,36.317,36.317,0,0,0,.266-5.23.532.532,0,1,1,1.063-.018,37.045,37.045,0,0,1-.274,5.383A.531.531,0,0,1,1650.224,695.2Z" transform="translate(-1628.712 -621.139)" fill="#63c0c4"/>
        <path id="Trazado_21698" data-name="Trazado 21698" d="M1649.157,458.169q-.43.957-.814,1.932c-.385.981-.735,1.984-1.04,2.98a.532.532,0,0,1-.664.353l-.039-.014a.531.531,0,0,1-.313-.65c.312-1.023.671-2.052,1.066-3.058q.392-1,.835-1.98a.506.506,0,0,1,.7-.266A.532.532,0,0,1,1649.157,458.169Z" transform="translate(-1625.848 -431.618)" fill="#63c0c4"/>
        <path id="Trazado_21699" data-name="Trazado 21699" d="M1639.22,502.636a38.769,38.769,0,0,0-.786,5.184.532.532,0,1,1-1.06-.087,39.718,39.718,0,0,1,.806-5.328.532.532,0,1,1,1.039.23Z" transform="translate(-1618.567 -468.127)" fill="#63c0c4"/>
        <path id="Trazado_21700" data-name="Trazado 21700" d="M1668.264,417.625a43.269,43.269,0,0,0-2.789,4.452.532.532,0,0,1-.661.242.579.579,0,0,1-.061-.029.532.532,0,0,1-.212-.721,44.466,44.466,0,0,1,2.856-4.562.532.532,0,0,1,.867.618Z" transform="translate(-1640.764 -398.349)" fill="#63c0c4"/>
        <path id="Trazado_21701" data-name="Trazado 21701" d="M1725.073,356.863a.532.532,0,0,1-.669-.827,42.1,42.1,0,0,1,4.4-3.112.532.532,0,1,1,.557.906A41.079,41.079,0,0,0,1725.073,356.863Z" transform="translate(-1689.679 -345.988)" fill="#63c0c4"/>
        <path id="Trazado_21702" data-name="Trazado 21702" d="M1641.68,601.8a.532.532,0,0,1-.605-.447l-.1-.666c-.232-1.535-.464-3.071-.667-4.609a.532.532,0,0,1,1.055-.14c.2,1.531.434,3.061.665,4.59l.1.666A.532.532,0,0,1,1641.68,601.8Z" transform="translate(-1620.966 -544.69)" fill="#63c0c4"/>
        <path id="Trazado_21703" data-name="Trazado 21703" d="M1691.764,386.164a.532.532,0,1,1-.819-.68,44.2,44.2,0,0,1,3.685-3.924.532.532,0,1,1,.73.775A42.922,42.922,0,0,0,1691.764,386.164Z" transform="translate(-1662.339 -369.386)" fill="#63c0c4"/>
        <path id="Trazado_21704" data-name="Trazado 21704" d="M1647.554,642.018a.53.53,0,0,1,.6.454c.288,2.069.477,3.759.6,5.32a.532.532,0,0,1-1.062.082c-.12-1.538-.307-3.208-.591-5.256A.532.532,0,0,1,1647.554,642.018Z" transform="translate(-1626.53 -582.799)" fill="#63c0c4"/>
        <path id="Trazado_21705" data-name="Trazado 21705" d="M1538.722,841.578a.532.532,0,0,1,.47.955,42.967,42.967,0,0,1-4.973,2.055.532.532,0,1,1-.349-1.005A42.291,42.291,0,0,0,1538.722,841.578Z" transform="translate(-1533.511 -746.186)" fill="#63c0c4"/>
        <path id="Trazado_21706" data-name="Trazado 21706" d="M1637.219,548.637a.533.533,0,0,1,.533.532c0,1.62.095,3.341.282,5.259a.532.532,0,1,1-1.059.1c-.192-1.953-.285-3.707-.287-5.361A.532.532,0,0,1,1637.219,548.637Z" transform="translate(-1618.007 -506.329)" fill="#63c0c4"/>
        <path id="Trazado_21707" data-name="Trazado 21707" d="M1767.035,333.371q.871-.35,1.754-.661a.532.532,0,0,1,.354,1q-.863.3-1.712.644c-1.051.422-2.1.9-3.113,1.416a.532.532,0,1,1-.483-.948C1764.878,334.294,1765.955,333.8,1767.035,333.371Z" transform="translate(-1721.895 -329.474)" fill="#63c0c4"/>
      </g>
    </g>
    <g id="Grupo_11602" data-name="Grupo 11602" transform="translate(554.986 401.677)">
      <g id="Grupo_11596" data-name="Grupo 11596" transform="translate(41.629 221.502)">
        <path id="Trazado_21708" data-name="Trazado 21708" d="M2401.374,2275.723s-3.841,3.563-12.6,5.793c-1.928.491-4.006-.165-4.006,3.016H2395.4l8.839-1.529v1.529h4.774s1.329-7.808-1.459-8.809Z" transform="translate(-2384.768 -2270.115)" fill="#212b53"/>
        <path id="Trazado_21709" data-name="Trazado 21709" d="M2477.422,2244.748l-.939,5.608h0a5.4,5.4,0,0,0,5.849.2l.328-.2,1.386-5.608Z" transform="translate(-2459.877 -2244.748)" fill="#f7b58e"/>
      </g>
      <path id="Trazado_21710" data-name="Trazado 21710" d="M2353.242,1510.058s5.822,24.628-7.13,57.731a31.8,31.8,0,0,0-1.369,18.611c6.152,27.078,3.14,57.383,3.14,57.383l-8.137-.069-30.464-117.8Z" transform="translate(-2281.32 -1421.579)" fill="#212b53"/>
      <g id="Grupo_11598" data-name="Grupo 11598" transform="translate(21.617)">
        <path id="Trazado_21711" data-name="Trazado 21711" d="M2347.963,1126.823l3.335,9.7,8.213-5.487-4.973-11.476Z" transform="translate(-2334.615 -1101.785)" fill="#f39f85"/>
        <g id="Grupo_11597" data-name="Grupo 11597" transform="translate(4.063 3.582)">
          <path id="Trazado_21712" data-name="Trazado 21712" d="M2302.894,1064.1a5.445,5.445,0,0,1-3.117-.2c-4.472-4.6-2.785-19.342-2.785-19.342l5.315-3.387,8.05,3.3,2.019,9.342a7.747,7.747,0,0,1-2.142,7.047h0A15.125,15.125,0,0,1,2302.894,1064.1Z" transform="translate(-2296.681 -1041.169)" fill="#f7b58e"/>
        </g>
        <path id="Trazado_21713" data-name="Trazado 21713" d="M2290.422,1031.325a3.192,3.192,0,0,0-3.948-1.741,25.46,25.46,0,0,1-3.873,1.029c-3.228.55-7.449-.03-8.287-4.941s5.483-4.256,5.483-4.256,8.445-.234,13.861,2.546c2.591,1.33,3.95,7.451,3.007,10.434a15.3,15.3,0,0,1-2.5,4.766h0Z" transform="translate(-2274.239 -1021.386)" fill="#212b53"/>
        <path id="Trazado_21714" data-name="Trazado 21714" d="M2373.231,1087.738a2.464,2.464,0,0,0-2.961.781c-.808.944-.792,2.125.036,2.638a2.465,2.465,0,0,0,2.961-.781C2374.075,1089.431,2374.059,1088.25,2373.231,1087.738Z" transform="translate(-2352.395 -1075.531)" fill="#f7b58e"/>
      </g>
      <path id="Trazado_21715" data-name="Trazado 21715" d="M2305.834,1176.483c-25.357,9.566-14.72,68.757-14.72,68.757l45.968,1.024S2342.928,1172.532,2305.834,1176.483Z" transform="translate(-2264.629 -1148.276)" fill="#ffd147"/>
      <path id="Trazado_21716" data-name="Trazado 21716" d="M2262.359,1268.184s-10.759,37.62-20.611,37.85-34.621-36.57-34.621-36.57l5.99-3.7,20.512,17.8c3.635-11.145,8.833-26.555,8.833-26.555Z" transform="translate(-2197.661 -1214.348)" fill="#ffd147"/>
      <g id="Grupo_11599" data-name="Grupo 11599" transform="translate(14.859 44.703)">
        <path id="Trazado_21717" data-name="Trazado 21717" d="M2236.918,1275.366l21.322,18.2.207-.634c2.7-8.287,6.307-19.042,7.949-23.928-.222-.167-.436-.342-.662-.5l.675.466.026-.077c-.249-.2-.491-.4-.73-.607-1.526,4.538-5.128,15.28-7.893,23.741l-20.3-17.029Z" transform="translate(-2236.918 -1268.285)" fill="#f6a505"/>
        <path id="Trazado_21718" data-name="Trazado 21718" d="M2285.348,1352.127c-3.515,10.609-11.235,31.2-18.26,31.359-6.746.138-20.611-18.158-28.415-28.843-.289.377-.293.283-.59.643,7.7,10.541,21.005,28.112,28.325,29.047a4.646,4.646,0,0,0,.7.039c7.623-.178,15.509-21.1,19.077-31.913Q2285.764,1352.3,2285.348,1352.127Z" transform="translate(-2237.872 -1336.947)" fill="#f6a505"/>
      </g>
      <path id="Trazado_21719" data-name="Trazado 21719" d="M2351.213,1163.624l8.6-3.305,2.985,3.194-12.3,3.361Z" transform="translate(-2315.071 -1135.164)" fill="#fff"/>
      <g id="Grupo_11600" data-name="Grupo 11600" transform="translate(11.566 221.502)">
        <path id="Trazado_21720" data-name="Trazado 21720" d="M2235.334,2275.723s-3.841,3.563-12.6,5.793c-1.928.491-4.007-.165-4.007,3.016h10.628L2238.2,2283v1.529h4.774s1.329-7.808-1.459-8.809Z" transform="translate(-2218.728 -2270.115)" fill="#212b53"/>
        <path id="Trazado_21721" data-name="Trazado 21721" d="M2311.382,2244.748l-.939,5.608h0a5.4,5.4,0,0,0,5.849.2l.328-.2,1.386-5.608Z" transform="translate(-2293.837 -2244.748)" fill="#f7b58e"/>
      </g>
      <path id="Trazado_21722" data-name="Trazado 21722" d="M2347.557,1545.37s0,25.307-20.22,54.542a31.8,31.8,0,0,0-5.615,17.8c-.243,27.766-9.732,54.626-9.732,54.626h-8.317l-2.543-124.874Z" transform="translate(-2274.644 -1450.497)" fill="#053c5e"/>
      <g id="Grupo_11601" data-name="Grupo 11601" transform="translate(0 29.63)">
        <rect id="Rectángulo_2584" data-name="Rectángulo 2584" width="1.772" height="22.59" transform="translate(0 0.862) rotate(-29.115)" fill="#01888b"/>
      </g>
      <path id="Trazado_21723" data-name="Trazado 21723" d="M2178.559,1239.707l-3.254-2.645a15.855,15.855,0,0,1-3.841-10.408l.143-5.5h0c1.128.579,1.825,2.53,2.387,3.666l4.1,6.818,5.225,5.13Z" transform="translate(-2168.456 -1184.985)" fill="#f7b58e"/>
      <path id="Trazado_21724" data-name="Trazado 21724" d="M2199.312,1242.834c.676-.593,3.674,2.695,3.847,1.343,0,0-.73-5.751-1.979-7.226s-1.926-5.157-1.926-5.157-1.308,0-1.236,2.063c.036,1.027.793,2.489.881,4.021C2198.987,1239.429,2198.412,1241.055,2199.312,1242.834Z" transform="translate(-2190.199 -1193.697)" fill="#f7b58e"/>
    </g>
    <g id="Grupo_11608" data-name="Grupo 11608" transform="translate(410.271 415.59)">
      <g id="Grupo_11606" data-name="Grupo 11606">
        <path id="Trazado_21725" data-name="Trazado 21725" d="M1404.073,1366.93l-15.38,41.2,3.23,1.253s12.018-18.5,24.047-39.751C1427.262,1349.686,1404.073,1366.93,1404.073,1366.93Z" transform="translate(-1382.698 -1312.611)" fill="#f7b58e"/>
        <path id="Trazado_21726" data-name="Trazado 21726" d="M1473.637,1315.429s7.847-18.269,18.479-18.269-.984,1.354,12.551,0c9.254-.926,17.447,15.137,17.447,15.137l-10.352,5.553-1.111,24.922h-24.92l-1.42-24.058Z" transform="translate(-1452.262 -1261.109)" fill="#01888b"/>
        <path id="Trazado_21727" data-name="Trazado 21727" d="M1575.7,1251.425v7.4l.06.045a8.8,8.8,0,0,0,10.069.286l.5-.33-1.647-8.515Z" transform="translate(-1535.844 -1222.771)" fill="#f39f85"/>
        <path id="Trazado_21728" data-name="Trazado 21728" d="M1547.886,1126.434s-.617,16.655,8.944,16.655,9.561-18.2,9.561-18.2l-8.327-8.328Z" transform="translate(-1513.062 -1113.244)" fill="#f7b58e"/>
        <path id="Trazado_21729" data-name="Trazado 21729" d="M1492.373,1106.173s-3.491,5.794-7.42,8.262a5.272,5.272,0,0,0-2.393,5.6c.6,2.767,3.887,5.13,3.459,7.736-.7,4.239,1.4,8.516,3.793,12.087,7.275,10.876.4,28.615-9.785,28.615-11.47,0-9.979-13.477-9.132-15.892a6.906,6.906,0,0,0-1.854-7.442c-1.512-1.344-2.885-3.1-2.885-5.042,0-2.331,2.068-6.281,3.971-9.422a41.959,41.959,0,0,0,4.505-13.544c2.01-18.9,15.344-18.954,15.949-18.9,6.588.548,12.519,6.181,12.63,12.791.13,7.69,2.5,23.429,4.583,26.3-6.812,2.98-15.7-1.851-13.156-12.648.5-2.114,4.629-7.99,4.445-9.868C1498.353,1107.369,1492.373,1106.173,1492.373,1106.173Z" transform="translate(-1446.136 -1098.226)" fill="#053c5e"/>
        <g id="Grupo_11603" data-name="Grupo 11603" transform="translate(60.173 206.396)">
          <path id="Trazado_21730" data-name="Trazado 21730" d="M1693.767,2238.158l1.712,4.455a5.721,5.721,0,0,0,2.331,2.96,23.025,23.025,0,0,0,5.895,2.556c-3.431,2.929-8.891-.01-12.014-2.172a7.645,7.645,0,0,1-3.052-4.423l-.715-3.375Z" transform="translate(-1687.923 -2238.158)" fill="#f7b58e"/>
        </g>
        <path id="Trazado_21731" data-name="Trazado 21731" d="M1681.17,2250.956s-2.321,1.824-1.9,4.149,1.028,7.77,1.028,7.77h2.386l-.073-5.079c.007-.332,5.117,5.079,5.983,5.079h12.626s.839-3.426-6.575-4.526S1681.17,2250.956,1681.17,2250.956Z" transform="translate(-1620.625 -2042.243)" fill="#053c5e"/>
        <path id="Trazado_21732" data-name="Trazado 21732" d="M1578.784,1165.773a24.182,24.182,0,0,1-3.936,2.14,20.337,20.337,0,0,1-4.478,4.743,23.188,23.188,0,0,1,1.111,7.847c-.022.577-.076,1.139-.146,1.693a6.664,6.664,0,0,0,3.916,1.192c6.55,0,8.612-8.538,9.262-13.918A18.579,18.579,0,0,1,1578.784,1165.773Z" transform="translate(-1531.481 -1153.543)" fill="#f7b58e"/>
        <path id="Trazado_21733" data-name="Trazado 21733" d="M1634.844,1188.072a2.173,2.173,0,0,1,.289-2.881,1.873,1.873,0,0,1,2.7-.379,2.174,2.174,0,0,1-.289,2.881A1.873,1.873,0,0,1,1634.844,1188.072Z" transform="translate(-1583.933 -1168.787)" fill="#f7b58e"/>
        <path id="Trazado_21734" data-name="Trazado 21734" d="M1532.8,1617.1c9.207-47.653-5.727-67.855-5.727-67.855h-25s-13.43,19.431-5.727,67.855c0,0-4.614,22.207-1.845,56.878h5.844l7.129-51.018,7.1-46.039,7.1,46.039,7.129,51.018h5.844C1537.415,1639.311,1532.8,1617.1,1532.8,1617.1Z" transform="translate(-1468.629 -1467.587)" fill="#63c0c4"/>
        <path id="Trazado_21735" data-name="Trazado 21735" d="M1657.534,1380.936s12.472,23.689,7.229,27.082-25.766-9.055-25.766-9.055l1.09-3.392,11.378.419-4.284-9.5Z" transform="translate(-1587.682 -1329.749)" fill="#f7b58e"/>
        <path id="Trazado_21736" data-name="Trazado 21736" d="M1490.284,2251.6l-1.371,7.42a8.745,8.745,0,0,0,1.091,6.108c1.022,1.694,2.389,3.431,3.691,3.431,1.459,0,3.1-1.874,4.228-3.47a5.622,5.622,0,0,0,.9-4.468l-2.142-9.666Z" transform="translate(-1464.651 -2042.243)" fill="#053c5e"/>
        <g id="Grupo_11604" data-name="Grupo 11604" transform="translate(52.979 65.855)">
          <path id="Trazado_21737" data-name="Trazado 21737" d="M1671.686,1467.288c-8.363-5.292-23.281-4.345-23.439-4.335l-.06-.924c.659-.041,15.376-.977,23.993,4.477Z" transform="translate(-1648.188 -1461.944)" fill="#f39f85"/>
        </g>
        <g id="Grupo_11605" data-name="Grupo 11605" transform="translate(0 93.784)">
          <path id="Trazado_21738" data-name="Trazado 21738" d="M1363.71,1621.367c-.359.213-1.517,1.058-2.684,3.67-1.047,2.344-1.69,7.882-3.907,6.022-.541-2.775-1.524-5.986-1.524-5.986-.155-1.7,1.431-4.082,2.723-5.374l4.5-3.5s2.845.545,2.983.547l.344.492A17.191,17.191,0,0,0,1363.71,1621.367Z" transform="translate(-1355.585 -1616.199)" fill="#f7b58e"/>
          <path id="Trazado_21739" data-name="Trazado 21739" d="M1390.166,1625.516a2.177,2.177,0,0,0-.4.162c-.028-.369-.077-.732-.137-1.091.4-1.279.755-2.571,1.139-3.854.754.347,1.813.831,1.895.853l-.734,8.948s-1.156.348-1.635-1.5A8.509,8.509,0,0,1,1390.166,1625.516Z" transform="translate(-1383.463 -1619.911)" fill="#f7b58e"/>
        </g>
        <path id="Trazado_21740" data-name="Trazado 21740" d="M1494.818,2238.158l-.806,9.758a2.772,2.772,0,0,0,1.483,2.717,5.824,5.824,0,0,0,4.978.036,2.751,2.751,0,0,0,1.471-2.854l-1.281-9.657Z" transform="translate(-1468.94 -2031.762)" fill="#f7b58e"/>
      </g>
      <path id="Trazado_21741" data-name="Trazado 21741" d="M1572.525,1381.081l-1.111-15.157a1.233,1.233,0,0,0-1.23-1.143h-7.163a1.233,1.233,0,0,0-1.229,1.328l1.177,15.157a1.233,1.233,0,0,0,1.229,1.138h7.1A1.233,1.233,0,0,0,1572.525,1381.081Z" transform="translate(-1524.453 -1316.519)" fill="#fff"/>
      <g id="Grupo_11607" data-name="Grupo 11607" transform="translate(39.616 57.025)">
        <path id="Trazado_21742" data-name="Trazado 21742" d="M1585.138,1420.166c-.44-.036-1.932-.3-4.251-2.243-2.081-1.742-5.26-6.706-6.5-3.911.772,2.888,1.327,6.394,1.327,6.394.643,1.69,3.252,3.215,5.078,3.844l5.894,1.241s2.451-1.836,2.581-1.9l-.461-1.173A13.146,13.146,0,0,1,1585.138,1420.166Z" transform="translate(-1574.383 -1413.176)" fill="#f7b58e"/>
        <path id="Trazado_21743" data-name="Trazado 21743" d="M1618.008,1427.883a2.281,2.281,0,0,1-.457.033c.145.363.266.731.375,1.1.972,1.031,1.909,2.093,2.869,3.135.556-.679,1.338-1.63,1.405-1.688l-4.844-8.162s-1.259.205-.859,2.183A8.991,8.991,0,0,0,1618.008,1427.883Z" transform="translate(-1608.807 -1420.649)" fill="#f7b58e"/>
      </g>
      <path id="Trazado_21744" data-name="Trazado 21744" d="M1581.7,1388.408a1.135,1.135,0,1,0,1.135-1.135A1.135,1.135,0,0,0,1581.7,1388.408Z" transform="translate(-1540.759 -1334.938)" fill="#63c0c4"/>
    </g>
    <g id="Grupo_11615" data-name="Grupo 11615" transform="translate(497.735 411.884)">
      <path id="Trazado_21745" data-name="Trazado 21745" d="M2045.244,1317.25l10.164,19.145-11.2-.54-.786-19.222Z" transform="translate(-2006.345 -1273.383)" fill="#f7b58e"/>
      <path id="Trazado_21746" data-name="Trazado 21746" d="M1949.291,1273.122l9.39-.013,3.891,60.687h-16.826Z" transform="translate(-1926.354 -1237.739)" fill="#fff"/>
      <g id="Grupo_11610" data-name="Grupo 11610" transform="translate(3.752 211.214)">
        <path id="Trazado_21747" data-name="Trazado 21747" d="M1861.318,2257.1s-2.321,1.824-1.9,4.149,1.028,7.77,1.028,7.77h2.386l-.073-5.078c.007-.332,5.117,5.078,5.982,5.078h12.626s.839-3.425-6.575-4.526S1861.318,2257.1,1861.318,2257.1Z" transform="translate(-1859.37 -2254.781)" fill="#053c5e"/>
        <g id="Grupo_11609" data-name="Grupo 11609" transform="translate(1.575)">
          <path id="Trazado_21748" data-name="Trazado 21748" d="M1873.915,2244.3l1.712,4.454a5.72,5.72,0,0,0,2.331,2.96,22.41,22.41,0,0,0,5.895,2.676c-3.431,2.929-8.891-.129-12.014-2.293a7.641,7.641,0,0,1-3.052-4.423l-.715-3.375Z" transform="translate(-1868.071 -2244.301)" fill="#f7b58e"/>
        </g>
      </g>
      <g id="Grupo_11612" data-name="Grupo 11612" transform="translate(27.804 211.214)">
        <path id="Trazado_21749" data-name="Trazado 21749" d="M1994.158,2257.1s-2.32,1.824-1.9,4.149,1.028,7.77,1.028,7.77h2.386l-.073-5.078c.007-.332,5.117,5.078,5.983,5.078h12.626s.839-3.425-6.575-4.526S1994.158,2257.1,1994.158,2257.1Z" transform="translate(-1992.211 -2254.781)" fill="#053c5e"/>
        <g id="Grupo_11611" data-name="Grupo 11611" transform="translate(1.575)">
          <path id="Trazado_21750" data-name="Trazado 21750" d="M2006.755,2244.3l1.711,4.454a5.721,5.721,0,0,0,2.332,2.96,22.41,22.41,0,0,0,5.894,2.676c-3.431,2.929-8.891-.129-12.014-2.293a7.642,7.642,0,0,1-3.052-4.423l-.715-3.375Z" transform="translate(-2000.911 -2244.301)" fill="#f7b58e"/>
        </g>
      </g>
      <path id="Trazado_21751" data-name="Trazado 21751" d="M1925.081,1608.284s-1.577,9.071,7.494,53.653c-7.343,23.234,4.416,62.11,4.416,62.11h8.572l5.836-115.763Z" transform="translate(-1909.346 -1512.227)" fill="#00666b"/>
      <path id="Trazado_21752" data-name="Trazado 21752" d="M2011.491,1273.183l3.046,73.632,10.09-4.319a108.33,108.33,0,0,1-4.115-33.024c-1.543-13.887,6.335-6.572-3.317-33.307C2013.6,1273.17,2011.491,1273.183,2011.491,1273.183Z" transform="translate(-1980.196 -1237.8)" fill="#f6a505"/>
      <path id="Trazado_21753" data-name="Trazado 21753" d="M1967.646,1183.723l-1.182,6.209a3.951,3.951,0,0,1-5.979,2.609l-4.141-2.6,7.394-16.713Z" transform="translate(-1935.034 -1155.945)" fill="#f39f85"/>
      <path id="Trazado_21754" data-name="Trazado 21754" d="M1854.227,1608.284s-11.23,9.071-2.159,53.653c-7.343,23.234-.864,62.11-.864,62.11h7.695l21.646-115.763Z" transform="translate(-1846.74 -1512.227)" fill="#01888b"/>
      <path id="Trazado_21755" data-name="Trazado 21755" d="M1861.585,1238.72s-9.479,5.328-12.425,10.084c-2.808,4.533-3.78,14.852-4.05,24.038-.371,12.613-6.461,45.75-6.461,45.75h25.411l.634-72.136Z" transform="translate(-1838.649 -1209.577)" fill="#ffd147"/>
      <path id="Trazado_21756" data-name="Trazado 21756" d="M1968,1086.916c-5.748-1.457-11.276,4.435-11.276,4.435l-4.324,23.287-6.649-10.249s-.38-13.925,6.048-23.146c4.6-5.584,13.438-3.981,17.9,1.45,2.172,2.641,2.626,6.288,2.416,9.644-.283,4.505-1.56,30.365-1.56,30.365l-13.167-9.753a61.287,61.287,0,0,1,1.576-7.411C1961.135,1097.309,1971.858,1087.895,1968,1086.916Z" transform="translate(-1926.355 -1077.76)" fill="#212b53"/>
      <path id="Trazado_21757" data-name="Trazado 21757" d="M1992.913,1150.4a2.076,2.076,0,0,1,2.453,1.28,1.79,1.79,0,0,1-.622,2.529,2.077,2.077,0,0,1-2.453-1.28A1.79,1.79,0,0,1,1992.913,1150.4Z" transform="translate(-1964.265 -1137.167)" fill="#f7b58e"/>
      <g id="Grupo_11613" data-name="Grupo 11613" transform="translate(28.003 6.935)">
        <path id="Trazado_21758" data-name="Trazado 21758" d="M2000.123,1138a4.58,4.58,0,0,0,2.811.364c5-3.622,6.8-18.094,6.8-18.094l-3.959-4.205-7.883,1.732-3.885,8.619a7.932,7.932,0,0,0,.323,7.156h0A12.723,12.723,0,0,0,2000.123,1138Z" transform="translate(-1993.311 -1116.062)" fill="#f7b58e"/>
      </g>
      <path id="Trazado_21759" data-name="Trazado 21759" d="M2016.1,1103.6c-.41,4.377-12.593,4.736-12.593,4.736l-.635-5.926,7.1-3.91,5.622,3.383A3.728,3.728,0,0,1,2016.1,1103.6Z" transform="translate(-1973.137 -1094.749)" fill="#212b53"/>
      <path id="Trazado_21760" data-name="Trazado 21760" d="M2074.17,1128.107c-.4,1.629,1.245,4.468,1.245,4.468l.969-1.751-.026-1.516-.958-1.183S2074.575,1126.478,2074.17,1128.107Z" transform="translate(-2031.474 -1118.402)" fill="#212b53"/>
      <path id="Trazado_21761" data-name="Trazado 21761" d="M1876.875,1294.165c-12.3,1.435-6.488,33.155-3.847,46.179a5.513,5.513,0,0,0,7.047,4.178c10.7-3.374,26.329-17.386,26.329-17.386l-2.478-3.12-20.764,4.848S1891.129,1292.5,1876.875,1294.165Z" transform="translate(-1863.772 -1254.938)" fill="#f7b58e"/>
      <path id="Trazado_21762" data-name="Trazado 21762" d="M2028.647,1413.652l-4.015,24.852a1.184,1.184,0,0,0,1.168,1.372h15.9a1.184,1.184,0,0,0,1.169-1l3.944-24.852a1.184,1.184,0,0,0-1.169-1.369h-15.825A1.183,1.183,0,0,0,2028.647,1413.652Z" transform="translate(-1990.946 -1352.021)" fill="#053c5e"/>
      <g id="Grupo_11614" data-name="Grupo 11614" transform="translate(49.741 64.713)">
        <path id="Trazado_21763" data-name="Trazado 21763" d="M2118.975,1443.093a10.842,10.842,0,0,0-.277-3.229c-.379-2.351-.279-6.033-2.68-4.2a12.09,12.09,0,0,0-2.532,5.873c-.462,1.669.56,3.99,1.514,5.248l1.651,3.6S2119.5,1447.069,2118.975,1443.093Z" transform="translate(-2113.371 -1435.171)" fill="#f7b58e"/>
      </g>
      <path id="Trazado_21764" data-name="Trazado 21764" d="M2086.882,1460.5a1.213,1.213,0,1,0,1.213-1.213A1.213,1.213,0,0,0,2086.882,1460.5Z" transform="translate(-2041.937 -1390.208)" fill="url(#linear-gradient)"/>
    </g>
    <g id="Grupo_11622" data-name="Grupo 11622" transform="translate(369.452 401.755)">
      <g id="Grupo_11617" data-name="Grupo 11617" transform="translate(24.94)">
        <path id="Trazado_21765" data-name="Trazado 21765" d="M1279.8,1124.156l-1.991,9.443-9.925-2.741,6.491-13.552Z" transform="translate(-1267.881 -1100.016)" fill="#f39f85"/>
        <g id="Grupo_11616" data-name="Grupo 11616" transform="translate(6.421 5.315)">
          <path id="Trazado_21766" data-name="Trazado 21766" d="M1311.319,1072.627a5.165,5.165,0,0,0,2.954.225c4.809-3.728,5.179-17.8,5.179-17.8l-4.543-3.886-8,2.031-3.135,8.507a7.35,7.35,0,0,0,1.078,6.9h0A14.343,14.343,0,0,0,1311.319,1072.627Z" transform="translate(-1303.347 -1051.169)" fill="#f7b58e"/>
        </g>
        <path id="Trazado_21767" data-name="Trazado 21767" d="M1297.192,1034.385c.829-1.333,1.706-4.737,3.1-4.025,1.02.52,4.661,1.85,5.9,2.246,2.958.945,8.6,1.471,10.039-3.031.719-2.251-.845-4.888-2.043-5.907a6.3,6.3,0,0,0-4.261-1.42c-3.621.1-8.744,1.232-10.356.335-2.712-1.508-6.147-.731-6.893,1.744-.8,2.645-.687,7.041-.2,9.967a14.524,14.524,0,0,0,1.72,4.809h0Z" transform="translate(-1287.717 -1021.815)" fill="#212b53"/>
        <path id="Trazado_21768" data-name="Trazado 21768" d="M1299.608,1087.2a2.338,2.338,0,0,1,2.678,1.126c.634.994.462,2.1-.383,2.472a2.338,2.338,0,0,1-2.678-1.126C1298.591,1088.677,1298.763,1087.57,1299.608,1087.2Z" transform="translate(-1293.237 -1075.26)" fill="#f7b58e"/>
      </g>
      <path id="Trazado_21769" data-name="Trazado 21769" d="M1189.869,1180.352c-18.476-1.033-20.041,15.4-21.592,33.259a336.888,336.888,0,0,0-.405,42.864h43s-.01-19.042-.46-38.084C1209.972,1199.918,1209.406,1181.445,1189.869,1180.352Z" transform="translate(-1160.625 -1151.609)" fill="#00666b"/>
      <path id="Trazado_21770" data-name="Trazado 21770" d="M1394.891,1534.885s4.222-2.915,5.79-2.22.333,3.629.333,3.629Z" transform="translate(-1346.955 -1440.083)" fill="#f39f85"/>
      <path id="Trazado_21771" data-name="Trazado 21771" d="M1414.305,1366.337c7.538-2.663,2.937-28.592,2.937-28.592l-4.456-.043S1406.767,1369,1414.305,1366.337Z" transform="translate(-1359.746 -1280.507)" fill="#f39f85"/>
      <path id="Trazado_21772" data-name="Trazado 21772" d="M1365.851,1225.407l-5.264,3.161s-22.208-35.928-11.229-26.467C1360.812,1211.971,1365.851,1225.407,1365.851,1225.407Z" transform="translate(-1307.17 -1168.158)" fill="#00666b"/>
      <g id="Grupo_11618" data-name="Grupo 11618" transform="translate(23.382 218.995)">
        <path id="Trazado_21773" data-name="Trazado 21773" d="M1268.453,2258.37s.022,5.148,10.363,8.239c2.121.634,1.431,1.261,1.83,2.153h-11.9l-4.659-5.238-1.449,1.245-3.36-3.3s1.569-4.777,4.127-4.819Z" transform="translate(-1259.278 -2252.066)" fill="#212b53"/>
        <path id="Trazado_21774" data-name="Trazado 21774" d="M1289.054,2233.18l-1.933,4.458h0a4.664,4.664,0,0,1-4.835-1.469l-.213-.252,1.562-4.584Z" transform="translate(-1277.945 -2231.333)" fill="#f7b58e"/>
      </g>
      <path id="Trazado_21775" data-name="Trazado 21775" d="M1136.872,1219.068s7.052-32.8,23.72-32.043-7.245,34.4-7.245,34.4Z" transform="translate(-1135.653 -1157.102)" fill="#00666b"/>
      <path id="Trazado_21776" data-name="Trazado 21776" d="M1362.87,1261.275c10.448-8.438-10.076-52.537-10.076-52.537l-4.973.5S1348.2,1267.713,1362.87,1261.275Z" transform="translate(-1308.407 -1174.894)" fill="#f7b58e"/>
      <path id="Trazado_21777" data-name="Trazado 21777" d="M1279.8,1167.23l-.631-3.231-8.537-1.7-2.748,3.413Z" transform="translate(-1242.941 -1136.864)" fill="#01888b"/>
      <path id="Trazado_21778" data-name="Trazado 21778" d="M1340.2,1148.086l.633-8.408s-4.195-6.434-8.163-4.707c-.729,1.761.539,5.314.539,5.314l2.019,8.3Z" transform="translate(-1295.815 -1114.241)" fill="#f7b58e"/>
      <path id="Trazado_21779" data-name="Trazado 21779" d="M1290.312,1600.992s5.99,37.571,4.582,54.951-20.454,62.787-20.454,62.787l-8.291-2.411s-.628-30.376,7.512-50.318a18.558,18.558,0,0,0,.005-13.688,229.885,229.885,0,0,1-9.292-28.817l.635-22.5Z" transform="translate(-1240.069 -1496.126)" fill="#212b53"/>
      <g id="Grupo_11619" data-name="Grupo 11619" transform="translate(36.229 20.032)">
        <path id="Trazado_21780" data-name="Trazado 21780" d="M1337.867,1145.912l.148-.015.6-7.933c-.557-.81-4.13-5.75-7.437-4.511-.437,1.373.278,3.962.615,4.915l.023.1a5.2,5.2,0,0,0-.885-.145c-.285-.882-1.108-3.714-.442-5.326l.063-.149.149-.066c4.224-1.83,8.483,4.582,8.66,4.857l.075.115-.669,8.88-.492.049A5.454,5.454,0,0,0,1337.867,1145.912Z" transform="translate(-1330.232 -1132.45)" fill="#f39f85"/>
      </g>
      <g id="Grupo_11620" data-name="Grupo 11620" transform="translate(8.732 222.603)">
        <path id="Trazado_21781" data-name="Trazado 21781" d="M1186.049,2281.185s3.711,3.442,12.172,5.6c1.863.475,3.871-.159,3.871,2.914h-10.268l-8.54-1.477v1.477h-4.613s-1.284-7.543,1.41-8.511Z" transform="translate(-1178.366 -2275.767)" fill="#212b53"/>
        <path id="Trazado_21782" data-name="Trazado 21782" d="M1192.9,2251.26l.907,5.418h0a5.217,5.217,0,0,1-5.651.189l-.317-.189.459-5.418Z" transform="translate(-1186.126 -2251.26)" fill="#f7b58e"/>
      </g>
      <path id="Trazado_21783" data-name="Trazado 21783" d="M1194.14,1600.992l-19.947,119.345h-7.982s-6.875-32.15-1.565-58.112a39.2,39.2,0,0,0,.354-13.69c-5.056-33.523-1.2-47.543-1.2-47.543Z" transform="translate(-1156.554 -1496.126)" fill="#053c5e"/>
      <g id="Grupo_11621" data-name="Grupo 11621" transform="translate(46.008 77.3)">
        <path id="Trazado_21784" data-name="Trazado 21784" d="M1434.136,1448.743h-37.019a.934.934,0,0,0-.841.526l-11.937,24.584a.935.935,0,0,0,.841,1.343h37.026a.934.934,0,0,0,.841-.526l11.931-24.584A.934.934,0,0,0,1434.136,1448.743Z" transform="translate(-1384.244 -1448.743)" fill="#212b53"/>
        <path id="Trazado_21785" data-name="Trazado 21785" d="M1533.888,1494.894a1.568,1.568,0,1,0,1.568-1.568A1.568,1.568,0,0,0,1533.888,1494.894Z" transform="translate(-1506.793 -1485.254)" fill="#ededed"/>
      </g>
      <path id="Trazado_21786" data-name="Trazado 21786" d="M1147.832,1366.414l-2.009,13.62,32.924,16.411-3.59,3.567s-36.969-6.655-42.193-11.54-1.607-24.415-1.607-24.415Z" transform="translate(-1130.138 -1302.091)" fill="#f7b58e"/>
      <path id="Trazado_21787" data-name="Trazado 21787" d="M1367.684,1542.53l7.754,4.982c3.121,1.433,5.884-.807,8.133-3.97a2.918,2.918,0,0,0-2.434-4.615c-2.789.042-6.173.608-7.854.726Z" transform="translate(-1324.674 -1445.299)" fill="#f7b58e"/>
    </g>
    <g id="Grupo_11632" data-name="Grupo 11632" transform="translate(293.995 411.218)">
      <g id="Grupo_11631" data-name="Grupo 11631" transform="translate(0 1.039)">
        <g id="Grupo_11625" data-name="Grupo 11625" transform="translate(24.987 5.973)">
          <g id="Grupo_11624" data-name="Grupo 11624">
            <path id="Trazado_21788" data-name="Trazado 21788" d="M861.844,1185.422l-3.977,8.885-6.473-5.833,4.566-12.943Z" transform="translate(-851.393 -1164.175)" fill="#f39f85"/>
            <g id="Grupo_11623" data-name="Grupo 11623" transform="translate(4.409)">
              <path id="Trazado_21789" data-name="Trazado 21789" d="M884.088,1134.619a4.416,4.416,0,0,0,2.719-.25c3.936-4.458,2.585-17.59,2.585-17.59l-4.607-3.971-7.046,3.288-1.836,7.216c-.49,2.381.182,6.557,1.81,8.362h0A12.258,12.258,0,0,0,884.088,1134.619Z" transform="translate(-875.747 -1112.808)" fill="#f39f85"/>
            </g>
          </g>
        </g>
        <path id="Trazado_21790" data-name="Trazado 21790" d="M902.27,1387.76a10.185,10.185,0,0,0,4.775,3.4c3.183,1.094,26.887-3.88,26.887-3.88l4.761.5a12.1,12.1,0,0,0,7.54-.39l6.971-2.7-40.9-.853L896.655,1364.4Z" transform="translate(-863.473 -1312.877)" fill="#f7b58e"/>
        <path id="Trazado_21791" data-name="Trazado 21791" d="M785.089,1247.016s-9.45,12.1-11.656,20.06-3,29.894-3,29.894h19.884s5.709-10.349,10.141-19.738a10.737,10.737,0,0,0,.123-8.921c-3.246-7.352-8.12-17.466-8.12-17.466Z" transform="translate(-760.102 -1216.743)" fill="#00666b"/>
        <g id="Grupo_11627" data-name="Grupo 11627" transform="translate(28.247 212.629)">
          <g id="Grupo_11626" data-name="Grupo 11626" transform="translate(1.451)">
            <path id="Trazado_21792" data-name="Trazado 21792" d="M882.8,2254.176l1.577,4.1a5.27,5.27,0,0,0,2.148,2.727,20.639,20.639,0,0,0,5.43,2.465c-3.16,2.7-8.19-.12-11.067-2.112a7.041,7.041,0,0,1-2.812-4.074l-.659-3.109Z" transform="translate(-877.412 -2254.176)" fill="#f39f85"/>
          </g>
          <path id="Trazado_21793" data-name="Trazado 21793" d="M871.191,2265.964s-2.138,1.68-1.746,3.822.947,7.158.947,7.158h2.2l-.068-4.678c.006-.306,4.714,4.678,5.511,4.678h11.631s.773-3.156-6.057-4.17S871.191,2265.964,871.191,2265.964Z" transform="translate(-869.397 -2263.83)" fill="#053c5e"/>
        </g>
        <g id="Grupo_11629" data-name="Grupo 11629" transform="translate(5.638 212.629)">
          <g id="Grupo_11628" data-name="Grupo 11628" transform="translate(1.451)">
            <path id="Trazado_21794" data-name="Trazado 21794" d="M757.924,2254.176l1.577,4.1a5.269,5.269,0,0,0,2.148,2.727,20.635,20.635,0,0,0,5.43,2.465c-3.161,2.7-8.19-.12-11.068-2.112a7.04,7.04,0,0,1-2.812-4.074l-.659-3.109Z" transform="translate(-752.54 -2254.176)" fill="#f39f85"/>
          </g>
          <path id="Trazado_21795" data-name="Trazado 21795" d="M746.32,2265.964s-2.138,1.68-1.746,3.822.947,7.158.947,7.158h2.2l-.068-4.678c.006-.306,4.714,4.678,5.511,4.678h11.631s.773-3.156-6.057-4.17S746.32,2265.964,746.32,2265.964Z" transform="translate(-744.526 -2263.83)" fill="#053c5e"/>
        </g>
        <path id="Trazado_21796" data-name="Trazado 21796" d="M815.894,1523.261s9.867,14.789,1.423,73.748c1.326,22.284,3.8,58.959,3.8,58.959h-5.6s-15.526-39.063-10.316-58.521c1.237-19.273-3.537-74.534-3.537-74.534Z" transform="translate(-785.682 -1442.686)" fill="#01888b"/>
        <path id="Trazado_21797" data-name="Trazado 21797" d="M723.718,1522.913s-10.328,8.307-10.328,20.642c0,9.677,4.664,29.721,7.338,42.842.971,4.763-.01,9.683-1.351,14.356-5.461,19.03,1.176,55.214,1.176,55.214h5.571s.305-18.611,7.926-60.333c8.752-47.919,9.553-72.722,9.553-72.722Z" transform="translate(-713.39 -1442.686)" fill="#63c0c4"/>
        <g id="Grupo_11630" data-name="Grupo 11630" transform="translate(58.365 43.212)">
          <path id="Trazado_21798" data-name="Trazado 21798" d="M1068.226,1347.09h-32.485V1344.7h31.042l13.791-26.221,2.112,1.111Z" transform="translate(-1035.741 -1318.481)" fill="#fff"/>
        </g>
        <path id="Trazado_21799" data-name="Trazado 21799" d="M801.665,1335.646s10.374,24.152,15.361,24.152,32.592-11.807,32.592-11.807l-.733-4.121-28.186,4.775a123.6,123.6,0,0,1-4.232-14.294,7.865,7.865,0,0,0-6.08-6.071C803.723,1327.021,801.665,1335.646,801.665,1335.646Z" transform="translate(-785.682 -1283.191)" fill="#f39f85"/>
        <path id="Trazado_21800" data-name="Trazado 21800" d="M757.073,1093.941s3.076,1.86,12.494-4.178c1.443.377-.86-13.2-13.046-9.21-8.53,2.791-8.121,11.049-7.727,15.616.425,4.935-2.144,8.192-5.536,11.8-2.846,3.027-2.8,8.594-4.7,11.589-2.333,3.686-4.806,3.471-6.656,7.21-1.936,3.913-2.2,8.7.391,12.212,1.474,2,4.909,6.813,10.346,5.1,3.052-.963,3.874-6.29,4.007-10.779a13.594,13.594,0,0,1,5.182-10.2c2.933-2.334,6.134-5.533,6.991-8.87C760.5,1107.688,757.073,1093.941,757.073,1093.941Z" transform="translate(-727.321 -1079.818)" fill="#ffd147"/>
        <path id="Trazado_21801" data-name="Trazado 21801" d="M869.075,1158.174a2,2,0,0,1,2.575.687,1.724,1.724,0,0,1-.052,2.508,2,2,0,0,1-2.576-.687A1.724,1.724,0,0,1,869.075,1158.174Z" transform="translate(-840.428 -1143.789)" fill="#f39f85"/>
        <path id="Trazado_21802" data-name="Trazado 21802" d="M1071.849,1407.727a1.353,1.353,0,0,0-.805-1.4l-5.3-2.3a5.808,5.808,0,0,0-4.144-.185l-5.255,1.745-.711.028-.566,4.89c1.051-.386,1.666-.625,1.666-.625l3.326-1.208s7.254,6.149,9.847.565c.776,5.531,2.352,4.917,2.352,4.917Z" transform="translate(-993.202 -1344.932)" fill="#f39f85"/>
      </g>
      <path id="Trazado_21803" data-name="Trazado 21803" d="M851.087,1084.489c1.043,3.778,6.414,5.591,11.994,4.049s8.609-5.732,8.215-9.632c-.517-5.122-6.414-5.591-11.994-4.049S850.044,1080.711,851.087,1084.489Z" transform="translate(-826.011 -1074.081)" fill="#ffd147"/>
    </g>
    <g id="Grupo_11645" data-name="Grupo 11645" transform="translate(201.271 462.277)">
      <g id="Grupo_11633" data-name="Grupo 11633" transform="translate(133.543 163.607)">
        <path id="Trazado_21804" data-name="Trazado 21804" d="M946.5,2288.954s3.7,3.366,12.146,5.474c1.859.464,3.863-.156,3.863,2.85H952.26l-8.521-1.444v1.444h-4.6s-1.281-7.378,1.406-8.324Z" transform="translate(-938.831 -2283.655)" fill="#212b53"/>
        <path id="Trazado_21805" data-name="Trazado 21805" d="M949.4,2259.687l.518,5.3h0a5.294,5.294,0,0,1-5.638.185l-.316-.185-.956-5.3Z" transform="translate(-942.25 -2259.687)" fill="#f7b58e"/>
      </g>
      <g id="Grupo_11634" data-name="Grupo 11634" transform="translate(175.476 163.607)">
        <path id="Trazado_21806" data-name="Trazado 21806" d="M1187.743,2288.954s3.7,3.366,12.145,5.474c1.859.464,3.863-.156,3.863,2.85h-10.246l-8.521-1.444v1.444h-4.6s-1.281-7.378,1.406-8.324Z" transform="translate(-1178.331 -2283.655)" fill="#212b53"/>
        <path id="Trazado_21807" data-name="Trazado 21807" d="M1177.658,2259.687l2.187,5.3h0a5.294,5.294,0,0,1-5.638.185l-.316-.185-3.458-5.3Z" transform="translate(-1170.432 -2259.687)" fill="#f7b58e"/>
      </g>
      <g id="Grupo_11636" data-name="Grupo 11636" transform="translate(31.799 120.305)">
        <g id="Grupo_11635" data-name="Grupo 11635">
          <path id="Trazado_21808" data-name="Trazado 21808" d="M379.515,2077.452l16.425-56.151-2.391-.775L376.9,2077.452Z" transform="translate(-376.897 -2020.526)" fill="#ffda71"/>
        </g>
      </g>
      <g id="Grupo_11638" data-name="Grupo 11638" transform="translate(92.32 120.305)">
        <g id="Grupo_11637" data-name="Grupo 11637">
          <path id="Trazado_21809" data-name="Trazado 21809" d="M730.2,2077.452l-16.651-56.926-2.391.775,16.425,56.151Z" transform="translate(-711.155 -2020.526)" fill="#ffda71"/>
        </g>
      </g>
      <g id="Grupo_11640" data-name="Grupo 11640" transform="translate(36.809)">
        <path id="Trazado_21810" data-name="Trazado 21810" d="M417.407,1460.414l-2.911,9.5-9.926-3.724,7.9-13.3Z" transform="translate(-404.57 -1435.361)" fill="#f39f85"/>
        <g id="Grupo_11639" data-name="Grupo 11639" transform="translate(7.713 6.306)">
          <path id="Trazado_21811" data-name="Trazado 21811" d="M454.591,1412.582a5.319,5.319,0,0,0,3.009.5c5.275-3.38,6.948-17.774,6.948-17.774l-4.3-4.4-8.389,1.346-4,8.435a7.567,7.567,0,0,0,.47,7.177h0A14.767,14.767,0,0,0,454.591,1412.582Z" transform="translate(-447.169 -1390.908)" fill="#f7b58e"/>
        </g>
        <path id="Trazado_21812" data-name="Trazado 21812" d="M445.4,1369.042c.973-1.29,2.185-4.7,3.554-3.842,1,.627,4.61,2.326,5.846,2.847,2.947,1.241,8.685,2.3,10.574-2.185.944-2.242-.417-5.091-1.552-6.245a6.482,6.482,0,0,0-4.239-1.848c-3.723-.232-9.08.458-10.651-.609-2.643-1.8-6.237-1.316-7.229,1.155-1.06,2.639-1.352,7.157-1.119,10.2a14.953,14.953,0,0,0,1.322,5.09h0Z" transform="translate(-433.999 -1356.078)" fill="#212b53"/>
        <path id="Trazado_21813" data-name="Trazado 21813" d="M446.156,1422.176a2.406,2.406,0,0,1,2.642,1.4c.558,1.077.281,2.2-.62,2.5a2.406,2.406,0,0,1-2.642-1.4C444.977,1423.6,445.255,1422.48,446.156,1422.176Z" transform="translate(-437.882 -1410.146)" fill="#f7b58e"/>
      </g>
      <path id="Trazado_21814" data-name="Trazado 21814" d="M231.985,1568.316l-30.714,14.32s23.77,68.525,65.472,75.339,66.6-12.426,68.826-13.486C275.709,1627.674,231.985,1568.316,231.985,1568.316Z" transform="translate(-201.271 -1529.888)" fill="#f6a505"/>
      <path id="Trazado_21815" data-name="Trazado 21815" d="M231.985,1568.316l-30.714,14.32s27.106,61.852,68.809,68.666,64.047-5.846,65.49-6.813C273.207,1627.257,231.985,1568.316,231.985,1568.316Z" transform="translate(-201.271 -1529.888)" fill="#ffda71"/>
      <path id="Trazado_21816" data-name="Trazado 21816" d="M534.9,1823.8l46.253-.719a8.22,8.22,0,0,1,8.289,7.236l7.991,73.273h-6.93s-16.5-35.076-13.813-53.361-64.27-15.308-64.27-15.308Z" transform="translate(-456.087 -1738.525)" fill="#212b53"/>
      <path id="Trazado_21817" data-name="Trazado 21817" d="M358.289,1511.041c-27.758,28.352,7.787,77.629,7.787,77.629L400,1566.707c-12.841-22.6-13.629-24-31.618-54.386A6.423,6.423,0,0,0,358.289,1511.041Z" transform="translate(-321.181 -1481.432)" fill="#afd8c8"/>
      <path id="Trazado_21818" data-name="Trazado 21818" d="M680.328,1723.509a1.418,1.418,0,0,0-1.006-1.357l-5.8-1.76a6.087,6.087,0,0,0-4.337.306l-5.261,2.45-.737.114v5.159c1.047-.528,1.659-.851,1.659-.851l3.317-1.659s8.292,5.528,10.319-.6c1.474,5.664,3.041,4.835,3.041,4.835Z" transform="translate(-579.556 -1654.215)" fill="#f7b58e"/>
      <path id="Trazado_21819" data-name="Trazado 21819" d="M359.489,1551.525c-15.153,0-14.125,33.783-12.534,49.922a8.493,8.493,0,0,0,9.775,7.582c22.266-3.591,49.465-19.293,49.465-19.293l-1.946-4.726-39.481,7.784S378.95,1551.525,359.489,1551.525Z" transform="translate(-319.872 -1516.137)" fill="#afd8c8"/>
      <g id="Grupo_11641" data-name="Grupo 11641" transform="translate(25.827 50.575)">
        <path id="Trazado_21820" data-name="Trazado 21820" d="M402.719,1653.227l-39.114,7.711c1-3.049,4.753-15.212,4.8-25.534q-.427.269-.868.518c-.215,11.471-4.879,25.234-4.946,25.428l-.235.684,39.855-7.858,1.676,4.07c-3.111,1.755-28.354,15.732-49.006,19.062a7.948,7.948,0,0,1-6.166-1.568,8.052,8.052,0,0,1-3.127-5.643,167.691,167.691,0,0,1-.712-22.849q-.414.131-.832.248a167.934,167.934,0,0,0,.715,22.682,9,9,0,0,0,3.448,6.222,8.761,8.761,0,0,0,5.376,1.846,8.991,8.991,0,0,0,1.432-.115c22.087-3.561,49.335-19.186,49.608-19.343l.316-.182Z" transform="translate(-343.913 -1635.405)" fill="#fff"/>
      </g>
      <path id="Trazado_21821" data-name="Trazado 21821" d="M449.233,1875.4s7.422,16.4,38.647,16.4,52.545-11.121,52.545-11.121,9.292,23.631,40.3,52.545h7.418l-31.366-65.06a15.99,15.99,0,0,0-15.2-8.874l-73.669,4.016Z" transform="translate(-404.337 -1768.16)" fill="#053c5e"/>
      <path id="Trazado_21822" data-name="Trazado 21822" d="M412.8,1484.955l7.035,6.117-.5,2.451-10.155-2.742Z" transform="translate(-371.534 -1461.621)" fill="#fff"/>
      <g id="Grupo_11642" data-name="Grupo 11642" transform="translate(77.149 45.647)">
        <path id="Trazado_21823" data-name="Trazado 21823" d="M663.683,1649.483H627.366v-2.5h34.751l18.849-38.794,2.251,1.094Z" transform="translate(-627.366 -1608.187)" fill="#fff"/>
      </g>
      <g id="Grupo_11643" data-name="Grupo 11643" transform="translate(34.568 128.853)">
        <rect id="Rectángulo_2585" data-name="Rectángulo 2585" width="73.347" height="1.668" transform="translate(0 40.258) rotate(-33.29)" fill="#ffda71"/>
      </g>
      <g id="Grupo_11644" data-name="Grupo 11644" transform="translate(46.868 128.856)">
        <rect id="Rectángulo_2586" data-name="Rectángulo 2586" width="1.668" height="73.347" transform="matrix(0.549, -0.836, 0.836, 0.549, 0, 1.394)" fill="#ffda71"/>
      </g>
    </g>
    <g id="Grupo_11658" data-name="Grupo 11658" transform="translate(722.876 399.358)">
      <g id="Grupo_11646" data-name="Grupo 11646" transform="translate(46.238 224.519)">
        <path id="Trazado_21824" data-name="Trazado 21824" d="M3352.051,2275.766s-3.369,3.125-11.05,5.081c-1.691.431-3.514-.145-3.514,2.645h9.321l7.752-1.34v1.34h4.187s1.166-6.848-1.279-7.726Z" transform="translate(-3337.487 -2270.848)" fill="#212b53"/>
        <path id="Trazado_21825" data-name="Trazado 21825" d="M3418.395,2248.6l-.471,4.918h0a4.736,4.736,0,0,0,5.129.172l.288-.172,1.739-4.918Z" transform="translate(-3403.359 -2248.601)" fill="#f7b58e"/>
      </g>
      <g id="Grupo_11647" data-name="Grupo 11647" transform="translate(83.492 224.519)">
        <path id="Trazado_21826" data-name="Trazado 21826" d="M3557.809,2275.766s-3.369,3.125-11.05,5.081c-1.691.431-3.514-.145-3.514,2.645h9.321l7.752-1.34v1.34h4.187s1.166-6.848-1.28-7.726Z" transform="translate(-3543.245 -2270.848)" fill="#212b53"/>
        <path id="Trazado_21827" data-name="Trazado 21827" d="M3624.153,2248.6l-.472,4.918h0a4.737,4.737,0,0,0,5.13.172l.288-.172,1.739-4.918Z" transform="translate(-3609.118 -2248.601)" fill="#f7b58e"/>
      </g>
      <path id="Trazado_21828" data-name="Trazado 21828" d="M3434.378,1568.668h-10.724l-3.768,124.284h7.246l21.288-101.155Z" transform="translate(-3358.73 -1467.258)" fill="#212b53"/>
      <path id="Trazado_21829" data-name="Trazado 21829" d="M3480.716,1568.668l25.065,124.284h7.976l-3.271-124.284Z" transform="translate(-3408.546 -1467.258)" fill="#053c5e"/>
      <g id="Grupo_11653" data-name="Grupo 11653" transform="translate(83.689 121.897)">
        <g id="Grupo_11648" data-name="Grupo 11648" transform="translate(10.251)">
          <path id="Trazado_21830" data-name="Trazado 21830" d="M3600.955,1688.659l2.4-.17a4.229,4.229,0,0,1,1.117-2.928,6.037,6.037,0,0,1,4.445-1.429c2.211,0,3.869.489,4.8,1.414a2.9,2.9,0,0,1,.877,2.024l2.406.136a5.092,5.092,0,0,0-1.5-3.712c-1.409-1.444-3.624-2.176-6.584-2.176-2.729,0-4.824.735-6.228,2.186A6.467,6.467,0,0,0,3600.955,1688.659Z" transform="translate(-3600.948 -1681.819)" fill="#212b53"/>
        </g>
        <g id="Grupo_11651" data-name="Grupo 11651" transform="translate(0 4.679)">
          <rect id="Rectángulo_2587" data-name="Rectángulo 2587" width="35.89" height="23.093" transform="translate(35.89 28.046) rotate(180)" fill="#212b53"/>
          <g id="Grupo_11650" data-name="Grupo 11650" transform="translate(0)">
            <g id="Grupo_11649" data-name="Grupo 11649">
              <path id="Trazado_21831" data-name="Trazado 21831" d="M3560.965,1785.667c0,1.408.67,1.569,1.5,1.569s1.5-.161,1.5-1.569v-4.9a92.994,92.994,0,0,0,16.262-2.912v18.216c0,1.627-.63,2.946-1.585,2.946h-32.72c-.955,0-1.585-1.319-1.585-2.946v-18.155a107.566,107.566,0,0,0,16.632,2.817Z" transform="translate(-3544.333 -1765.146)" fill="#ffda71"/>
              <path id="Trazado_21832" data-name="Trazado 21832" d="M3551.568,1779.747a68.889,68.889,0,0,0,5.568,9.408,102.29,102.29,0,0,0,8.6,10.135h-19.817c-.955,0-1.585-1.319-1.585-2.946v-18.155C3547.7,1778.969,3549.653,1779.407,3551.568,1779.747Z" transform="translate(-3544.333 -1765.419)" fill="#f6a505"/>
              <path id="Trazado_21833" data-name="Trazado 21833" d="M3545.918,1707.662h32.72c.955,0,1.585,1.319,1.585,2.946v8.835a55.6,55.6,0,0,1-16.262,2.764v-1.2c0-1.408-.67-1.569-1.5-1.569s-1.5.16-1.5,1.569v1.191a57.319,57.319,0,0,1-16.632-2.759v-8.835C3544.333,1708.981,3544.963,1707.662,3545.918,1707.662Z" transform="translate(-3544.333 -1707.662)" fill="#63c0c4"/>
            </g>
          </g>
        </g>
        <g id="Grupo_11652" data-name="Grupo 11652" transform="translate(16.165 19.878)">
          <path id="Trazado_21834" data-name="Trazado 21834" d="M3633.61,1799.508v-1.517a.65.65,0,0,1,.65-.649h2.6a.65.65,0,0,1,.649.649v1.517a.65.65,0,0,1-.649.649h-2.6A.65.65,0,0,1,3633.61,1799.508Zm.65-1.981a.464.464,0,0,0-.464.464v1.517a.464.464,0,0,0,.464.464h2.6a.465.465,0,0,0,.464-.464v-1.517a.465.465,0,0,0-.464-.464Z" transform="translate(-3633.61 -1796.303)" fill="#fff"/>
          <path id="Trazado_21835" data-name="Trazado 21835" d="M3643.445,1793.878a.162.162,0,0,0,.167.156h0a.162.162,0,0,0,.167-.156v-2.118a.162.162,0,0,0-.167-.156h0a.162.162,0,0,0-.167.156Z" transform="translate(-3641.665 -1791.604)" fill="#fff"/>
        </g>
      </g>
      <g id="Grupo_11654" data-name="Grupo 11654" transform="translate(0 80.65)">
        <path id="Trazado_21836" data-name="Trazado 21836" d="M3095.455,1461.937c-.371.3-1.742,1.19-5.065,1.467-2.982.249-9.335-1.051-8.124,1.9,2.856,1.542,6.025,3.694,6.025,3.694,1.82.763,5.045-.029,6.96-.9l5.564-3.4s.478-3.128.527-3.271l-1.275-.519A15.326,15.326,0,0,1,3095.455,1461.937Z" transform="translate(-3082.115 -1459.655)" fill="#f7b58e"/>
        <path id="Trazado_21837" data-name="Trazado 21837" d="M3127.33,1457.6a2.391,2.391,0,0,1-.331.357c.4.16.778.339,1.152.529,1.562.042,3.122.133,4.683.192-.1-.9-.229-2.165-.222-2.256l-10.147-2.416s-.821,1.069,1.034,2.219A10.377,10.377,0,0,0,3127.33,1457.6Z" transform="translate(-3115.011 -1454.009)" fill="#f7b58e"/>
      </g>
      <path id="Trazado_21838" data-name="Trazado 21838" d="M3620.549,1641.689l-3.373,7.416s.726,4.076,2.217,5.665a1.59,1.59,0,0,0,1.767.357c1.4-.582,4.647-1.985,5.184-2.755a1.52,1.52,0,0,0,.165-1.321l-.982-3.266-.121-7.614Z" transform="translate(-3520.299 -1525.814)" fill="#f7b58e"/>
      <g id="Grupo_11656" data-name="Grupo 11656" transform="translate(70.972)">
        <path id="Trazado_21839" data-name="Trazado 21839" d="M3525.612,1129.216l-.112,9.937,8.853-.476.559-15.4Z" transform="translate(-3516.193 -1102.506)" fill="#f39f85"/>
        <g id="Grupo_11655" data-name="Grupo 11655" transform="translate(3.493 5.345)">
          <path id="Trazado_21840" data-name="Trazado 21840" d="M3497.841,1060.377a5.347,5.347,0,0,1-2.983-.708c-3.568-5.189.5-19.176.5-19.176l5.7-2.4,7.245,4.519.413,9.373a7.6,7.6,0,0,1-3.235,6.465h0A14.844,14.844,0,0,1,3497.841,1060.377Z" transform="translate(-3493.392 -1038.093)" fill="#f7b58e"/>
        </g>
        <path id="Trazado_21841" data-name="Trazado 21841" d="M3490.491,1023.751c-.4-1.575.679-5.208-.924-4.945-1.17.191-5.178.356-6.526.356-3.213,0-8.943-1.258-8.943-6.148a4.45,4.45,0,0,1,3-4.311c1.474-.615,3.139,1.153,4.647,1.68,3.54,1.237,10.844,2.239,12.713,1.851,2.123-.44,4.343,1.725,4.507,3.02.359,2.836-1.539,7.157-2.943,9.888a15.029,15.029,0,0,1-3.21,4.2h0Z" transform="translate(-3474.098 -1008.575)" fill="#212b53"/>
        <path id="Trazado_21842" data-name="Trazado 21842" d="M3570.095,1092.509a2.419,2.419,0,0,0-2.995.267c-.937.78-1.117,1.925-.4,2.558a2.419,2.419,0,0,0,2.994-.267C3570.632,1094.286,3570.811,1093.141,3570.095,1092.509Z" transform="translate(-3549.574 -1076.979)" fill="#f7b58e"/>
      </g>
      <path id="Trazado_21843" data-name="Trazado 21843" d="M3245.759,1193.758a25.5,25.5,0,0,1,10.39,2.129,24.992,24.992,0,0,1,14,17.292c2.816,11.96,7.537,40.338-3.289,65.213a53.84,53.84,0,0,1-7.246,0l-1.159-58.641.821,41.888H3225.7v-27.013s-.869,6.1-8.985,11.734-38.549,1.888-38.549,1.888V1241.9s26.665-5.606,31.013-8.9,13.737-27.069,13.737-27.069a21.449,21.449,0,0,1,14.686-11.4A40.39,40.39,0,0,1,3245.759,1193.758Z" transform="translate(-3160.773 -1160.229)" fill="#fff"/>
      <g id="Grupo_11657" data-name="Grupo 11657" transform="translate(97.242 61.253)">
        <path id="Trazado_21844" data-name="Trazado 21844" d="M3619.979,1387.267l-.791-40.364.869-.025.8,40.39Z" transform="translate(-3619.188 -1346.877)" fill="#afd8c8"/>
      </g>
      <path id="Trazado_21845" data-name="Trazado 21845" d="M3531.767,1178.128l.546,3.264-10.174-.019.666-3.245Z" transform="translate(-3442.468 -1147.428)" fill="#fff"/>
    </g>
    <g id="Grupo_11663" data-name="Grupo 11663" transform="translate(631.834 415.956)">
      <g id="Grupo_11659" data-name="Grupo 11659" transform="translate(0 151.532)">
        <path id="Trazado_21846" data-name="Trazado 21846" d="M2581.917,2262.035s-2.306,1.221-2.3,3.311-.33,6.922-.33,6.922l2.076.376.737-4.43c.058-.288,3.723,4.68,6.216,7.174l9.172.177s1.27-2.848-5.007-4.974S2581.917,2262.035,2581.917,2262.035Z" transform="translate(-2579.284 -2203.214)" fill="#00666b"/>
        <path id="Trazado_21847" data-name="Trazado 21847" d="M2601.281,1959.365a39.777,39.777,0,0,1,.539-5.6,34.507,34.507,0,0,1,4.582-11.512c2.25-.834,4.4-1.875,6.7-2.783a60.429,60.429,0,0,1,8.126-2.305q-.17.464-.346.93c-13.435,35.447-20.946,51.545-22.118,55.356a4.406,4.406,0,0,0-.28,1.765c.194,1.84,1.05,5.772,6.436,9.515-5.718,1.425-11.093-8.744-11.093-8.744S2601,1971.564,2601.281,1959.365Z" transform="translate(-2591.194 -1937.166)" fill="#f39f85"/>
      </g>
      <path id="Trazado_21848" data-name="Trazado 21848" d="M2742.6,1243.536l-.609,9.633-9.407-1.945,1.13-13.093Z" transform="translate(-2704.825 -1213.165)" fill="#f39f85"/>
      <path id="Trazado_21849" data-name="Trazado 21849" d="M2745.2,1159.022a5.534,5.534,0,0,0,3.315-.862c3.965-6.318-.551-23.351-.551-23.351l-14.388,2.58-.458,11.414a9.584,9.584,0,0,0,3.6,7.873h0A15.375,15.375,0,0,0,2745.2,1159.022Z" transform="translate(-2705.256 -1128.551)" fill="#f7b58e"/>
      <path id="Trazado_21850" data-name="Trazado 21850" d="M2741.22,2280.591s-1.979,1.557-1.617,3.541.877,6.63.877,6.63h2.035l-.063-4.333c.006-.283,4.366,4.333,5.1,4.333h10.773s.716-2.923-5.61-3.863S2741.22,2280.591,2741.22,2280.591Z" transform="translate(-2710.539 -2066.878)" fill="#00666b"/>
      <g id="Grupo_11660" data-name="Grupo 11660" transform="translate(23.039 149.381)">
        <path id="Trazado_21851" data-name="Trazado 21851" d="M2708.708,1953.023a39.654,39.654,0,0,1-1.436-5.438c-.861-5.364-.936-12.879-.419-15.31,1.82-1.562,4.2-.361,6.044-2.01a60.4,60.4,0,0,1,6.822-4.98q0,.493,0,.992c-.311,37.906-1.774,55.61-1.552,59.591.034.608,1.83,8.441,8.18,10.084-4.87,3.319-12.174-6.336-12.174-6.336S2712.671,1964.564,2708.708,1953.023Z" transform="translate(-2706.53 -1925.285)" fill="#f7b58e"/>
      </g>
      <path id="Trazado_21852" data-name="Trazado 21852" d="M2664.572,1284.6l9.038,14.767a11.56,11.56,0,0,1,.828,7.525l-5.741,25.2a22.107,22.107,0,0,0-.548,4.453l-1.372,66.063h-28.855a204.607,204.607,0,0,0,5.492-29.872c1.831-16.834-3.528-24.157-2.035-31.524a36.259,36.259,0,0,1,7.1-14.381,13.977,13.977,0,0,0,2.991-8.417c.307-12.5-12.78-46.992-.29-38.6S2664.572,1284.6,2664.572,1284.6Z" transform="translate(-2627.305 -1246.238)" fill="#00666b"/>
      <path id="Trazado_21853" data-name="Trazado 21853" d="M2748.3,1518.5l.678,2.423c.377,1.346.855,1.854,1.946,3.658,3.18,5.305,13.9,18.3,13.9,18.3l8.663,4.912s-.179,1.25-2.143.893a8.9,8.9,0,0,1-3.394-1.429s-.359,1.424,1.429,4.287c1.335,2.138,5.619,5.781,2.679,6.43a49.587,49.587,0,0,1-5.966-3.3,5.771,5.771,0,0,1-2.9-4.079l-.783-4.587-18.394-15.036a13.919,13.919,0,0,1-4.4-6.391l-.061-.184Z" transform="translate(-2710.54 -1442.775)" fill="#f7b58e"/>
      <path id="Trazado_21854" data-name="Trazado 21854" d="M3043.558,1411.106c.436.029,1.935-.013,4.489-1.574,2.292-1.4,6.129-5.8,6.939-2.877-1.179,2.714-2.234,6.065-2.234,6.065-.876,1.56-3.653,2.672-5.533,3.02l-5.951.353s-2.131-2.156-2.248-2.24l.623-1.081A13.021,13.021,0,0,0,3043.558,1411.106Z" transform="translate(-2955.779 -1350.375)" fill="#f7b58e"/>
      <g id="Grupo_11661" data-name="Grupo 11661" transform="translate(22.511 50.661)">
        <path id="Trazado_21855" data-name="Trazado 21855" d="M2709.864,1411.727l9.487-6.393-3.611-25.284-.888.127,3.532,24.727-8,5.394-5.906-20.13-.86.252Z" transform="translate(-2703.613 -1380.05)" fill="#00666b"/>
      </g>
      <path id="Trazado_21856" data-name="Trazado 21856" d="M2675.53,1113.286a14.655,14.655,0,0,0,7.765,1.8,9.859,9.859,0,0,0,7.6-5.01c1.011-2.176,1.232-4.437-2.122-6.966-2.3-1.708-5.153-.638-6.384.469a2.411,2.411,0,0,1-3.2.087,14.78,14.78,0,0,0-9.739-3.414c-5,0-4.866,4.853-4.1,8.378a5.066,5.066,0,0,1-2.243,5.4c-2.971,1.839-6.753,4.838-5.975,7.838a17.761,17.761,0,0,0,3.326,6.241,4.434,4.434,0,0,1,.042,5.408c-1.846,2.435-4.009,5.974-3.369,8.534a30.1,30.1,0,0,0,3.868,7.781,4.821,4.821,0,0,1,0,5.223,6.424,6.424,0,0,0-1.015,4.857,11.219,11.219,0,0,0,1.826,3.929,3.137,3.137,0,0,0,5.376-.414c3.277-6.616,9.015-20.157,7.012-30.485-1-5.179-2.374-14.318-2.374-14.318S2670.35,1111.082,2675.53,1113.286Z" transform="translate(-2642.944 -1100.248)" fill="#212b53"/>
      <path id="Trazado_21857" data-name="Trazado 21857" d="M2800.554,1442.405l11.016,5.708a6.033,6.033,0,0,0,4.459.436l30.3-9.568v-3.824l-29.527,3.584-9.236-4.91Z" transform="translate(-2760.49 -1373.432)" fill="#f7b58e"/>
      <path id="Trazado_21858" data-name="Trazado 21858" d="M2726.2,1184.926a2.509,2.509,0,0,1,3.327.326c1.042.95,1.241,2.345.445,3.115a2.509,2.509,0,0,1-3.327-.326C2725.6,1187.091,2725.4,1185.7,2726.2,1184.926Z" transform="translate(-2699.2 -1169.19)" fill="#f7b58e"/>
      <path id="Trazado_21859" data-name="Trazado 21859" d="M2787.863,1389.968l3.052-18.839L2804,1386.164l-3.587,11.7-12.466-6.448C2788.317,1389.976,2787.944,1391.414,2787.863,1389.968Z" transform="translate(-2750.097 -1322.083)" fill="#00666b"/>
      <g id="Grupo_11662" data-name="Grupo 11662" transform="translate(36.924 38.275)">
        <path id="Trazado_21860" data-name="Trazado 21860" d="M2789.49,1351.3c-.349-.254-.349-.254-.7-.494l4.117-16.9a11.048,11.048,0,0,0-.763-7.125l-8.923-14.609c.291-.207.2-.177.343-.437.032-.058.4-.074.495-.089l9.028,14.626a12.148,12.148,0,0,1,.865,7.873" transform="translate(-2783.217 -1311.64)" fill="#01888b"/>
      </g>
      <path id="Trazado_21861" data-name="Trazado 21861" d="M3052.023,1413.963a2.271,2.271,0,0,0,.442.1c-.194.334-.367.677-.528,1.023-1.1.867-2.175,1.77-3.267,2.649-.445-.746-1.072-1.791-1.129-1.858l5.936-7.281s1.2.385.522,2.262A8.9,8.9,0,0,1,3052.023,1413.963Z" transform="translate(-2962.759 -1352.765)" fill="#f7b58e"/>
    </g>
  </g>
</svg>
