<svg xmlns="http://www.w3.org/2000/svg" width="419.174" height="326.885" viewBox="0 0 419.174 326.885">
  <g id="Grupo_11561" data-name="Grupo 11561" transform="translate(-431.495 -505.849)">
    <g id="Grupo_11551" data-name="Grupo 11551" transform="translate(684.19 614.447)">
      <path id="Trazado_21547" data-name="Trazado 21547" d="M1777.091,1094.769l-8.119-4.6-4.091,1.023-1.406.7,10.484,9.4Z" transform="translate(-1760.716 -1086.702)" fill="#f39f85"/>
      <path id="Trazado_21548" data-name="Trazado 21548" d="M1749.141,1081.036s-.638-3.244,2.709-6.1,8.407-3.41,9.536-2.3-.709,5.083-3.125,7.013S1752.5,1084.075,1749.141,1081.036Z" transform="translate(-1749.093 -1072.1)" fill="#f6b590"/>
      <path id="Trazado_21549" data-name="Trazado 21549" d="M1875.36,1078.753l-37.783,25.97-30.2-20.019a1.626,1.626,0,0,0-2.047.2h0l-5.289,5.278-.4.4a1.626,1.626,0,0,0,.091,2.385l36.7,31.437,37.964-15.6Z" transform="translate(-1789.558 -1077.477)" fill="#f6a948"/>
      <path id="Trazado_21550" data-name="Trazado 21550" d="M1794.629,1109.7l-2.233-1.515,5.767-5.262,1.7,1.568Z" transform="translate(-1784.091 -1097.01)" fill="#fdd148"/>
    </g>
    <g id="Grupo_11552" data-name="Grupo 11552" transform="translate(477.319 597.868)">
      <path id="Trazado_21551" data-name="Trazado 21551" d="M683.6,1019.261l-6.712-6.9s-6.457.32-6.457,1.023,4.411,7.544,9.973,13.745S683.6,1019.261,683.6,1019.261Z" transform="translate(-670.428 -1007.235)" fill="#f6b590"/>
      <path id="Trazado_21552" data-name="Trazado 21552" d="M726.487,1013.1c-10-6.285-23.984-16.93-23.984-16.93l-8.551,9.491,4.1,1.283s25.094,22.082,28.944,21.884,26.093-22.057,26.17-22.1l.79-21.077A264.388,264.388,0,0,0,726.487,1013.1Z" transform="translate(-689.44 -985.652)" fill="#fdd148"/>
    </g>
    <path id="Trazado_21553" data-name="Trazado 21553" d="M1469.74,1177.948c.2-1.976-13.419-1.633-13.706-2.618s3.333.336,3.6-2.171c-2.118.221-3.344-.548-4.507-.3s-1.879,1.968-2.995,2.219-9.869-.973-9.869-.973l-4.814,5.549,14.035,2.055s5.693,3.885,7.887,4.048S1469.021,1184.914,1469.74,1177.948Z" transform="translate(-813.03 -539.046)" fill="#f6b590"/>
    <path id="Trazado_21554" data-name="Trazado 21554" d="M1174.3,981.809a21.934,21.934,0,0,1,8.948,5.9c3.976,4.4,20.862,27.634,20.862,27.634l25.181,3.933-1.838,10.89-6.413-2.041-23.386-2.266-26.335-23.1Z" transform="translate(-597.933 -384.678)" fill="#fdd148"/>
    <path id="Trazado_21555" data-name="Trazado 21555" d="M1496.487,1044.7l-40.687,20.373-38.944-24.492-3.956,5.015,41.4,33.11,38.584-8.422Z" transform="translate(-793.186 -432.178)" fill="#f6b590"/>
    <g id="Grupo_11553" data-name="Grupo 11553" transform="translate(512.726 505.849)">
      <path id="Trazado_21556" data-name="Trazado 21556" d="M1411.563,2067.929l1.87,11.411,9.206,2.062,2.877-2.4-.671-17.836Z" transform="translate(-1304.832 -1762.882)" fill="#f39f85"/>
      <path id="Trazado_21557" data-name="Trazado 21557" d="M1552.063,2077.843V2092.9l13.808-3.644v-14.336Z" transform="translate(-1418.386 -1773.995)" fill="#f39f85"/>
      <path id="Trazado_21558" data-name="Trazado 21558" d="M1329.933,2148.373v-11.517a1.159,1.159,0,0,0-1.158-1.159h0s-3.409,2.747-5.3,2.747-5-4.667-7.546-4.667-8.539,4.932-8.539,4.932-10.094.529-12.775,3.806-2.515,5.858-2.515,5.858Z" transform="translate(-1208.282 -1821.566)" fill="#0c496d"/>
      <path id="Trazado_21559" data-name="Trazado 21559" d="M1545.5,2148.373v-11.517a1.158,1.158,0,0,1,1.158-1.159h.1s1.805,2.747,3.07,2.747,5.358-4.667,8.9-4.667,3.74,4,5.626,4.932,6.245.529,8.043,3.806a12.281,12.281,0,0,1,1.687,5.858Z" transform="translate(-1413.083 -1821.566)" fill="#0c496d"/>
      <path id="Trazado_21560" data-name="Trazado 21560" d="M1293.015,2192.169a7.41,7.41,0,0,0-.91,3.4h37.829v-3.4Z" transform="translate(-1208.283 -1868.759)" fill="#222c53"/>
      <path id="Trazado_21561" data-name="Trazado 21561" d="M1545.5,2192.169v3.4h28.584a10.514,10.514,0,0,0-.61-3.4Z" transform="translate(-1413.083 -1868.759)" fill="#222c53"/>
      <path id="Trazado_21562" data-name="Trazado 21562" d="M1336.138,1295.683s-8.566,56-9.269,76.842c-.377,11.177,13.872,77.353,13.872,77.353l17.388-1.151-3.216-73.262,17.685-81.381Z" transform="translate(-1236.375 -1142.913)" fill="#f6a948"/>
      <path id="Trazado_21563" data-name="Trazado 21563" d="M1501.57,1448.727l-6.463-74.412s-4.552-60.53-3.391-79.618c10.348-.454,30.7-.612,30.7-.612a174.547,174.547,0,0,1,2.741,24.613c.455,13.041-1.334,61.243-1.334,61.243l-3.836,68.787Z" transform="translate(-1369.459 -1142.913)" fill="#fdd148"/>
      <path id="Trazado_21564" data-name="Trazado 21564" d="M1457.264,906.712s-1.352-.765-1.794.113a2.432,2.432,0,0,0,.714,2.831c.671.5.245,2.008,1.7,1.24S1457.264,906.712,1457.264,906.712Z" transform="translate(-1340.158 -829.583)" fill="#f39f85"/>
      <path id="Trazado_21565" data-name="Trazado 21565" d="M1547.5,906.754s1.365-.74,1.792.145a2.432,2.432,0,0,1-.766,2.817c-.68.483-.282,2-1.72,1.209S1547.5,906.754,1547.5,906.754Z" transform="translate(-1413.737 -829.632)" fill="#f39f85"/>
      <path id="Trazado_21566" data-name="Trazado 21566" d="M1478.428,943.15v8.5H1490v-11.73Z" transform="translate(-1358.874 -856.671)" fill="#f39f85"/>
      <path id="Trazado_21567" data-name="Trazado 21567" d="M875.332,867.436l-4.089-2.284a54.532,54.532,0,0,1-7.1-1.218c-2.1-.666-7.955-3.966-8.927-7.4s2.517-12.746,5.132-12.409,9.761,11.207,12.186,11.523-1.333-5.405,2.8-5.673c-.157,2.732.106,8.212,4.519,11.5S875.332,867.436,875.332,867.436Z" transform="translate(-855.049 -779.24)" fill="#f6b590"/>
      <path id="Trazado_21568" data-name="Trazado 21568" d="M1806.51,533.273l1.065-4.562a54.51,54.51,0,0,0,3.881-6.07c.92-2,2.425-8.552.539-11.583s-11.118-6.722-12.63-4.561,1.713,14.763.314,16.769-3.1-4.625-6.077-1.752c2.126,1.724,6,5.609,5.457,11.083S1806.51,533.273,1806.51,533.273Z" transform="translate(-1613.601 -505.849)" fill="#f6b590"/>
      <path id="Trazado_21569" data-name="Trazado 21569" d="M1801.872,645.166l.933-5.029,13.637.163-.249,5.688Z" transform="translate(-1620.286 -614.383)" fill="#c0e2e3"/>
      <path id="Trazado_21570" data-name="Trazado 21570" d="M964.386,928.294l-2.632-1.691-5.427,7.825,2.469,2.152Z" transform="translate(-936.903 -845.909)" fill="#c0e2e3"/>
      <path id="Trazado_21571" data-name="Trazado 21571" d="M1464.051,879.216c0,3.752,2.351,12.43,8.43,12.43s9.4-10.961,9.266-14.645-3.887-5.786-3.887-5.786l-12.52,1.04A20.9,20.9,0,0,0,1464.051,879.216Z" transform="translate(-1347.253 -801.144)" fill="#f6b590"/>
      <path id="Trazado_21572" data-name="Trazado 21572" d="M1471.872,992.146l-.3-5.106,14.807-.565V991.2Z" transform="translate(-1353.335 -894.298)" fill="#d3eaec"/>
      <path id="Trazado_21573" data-name="Trazado 21573" d="M1386.231,1012.044l14.509-.949,18.927,40.968,4.092,23.534-58.148,3.857,1.108-18.4Z" transform="translate(-1267.693 -914.197)" fill="#c0e2e3"/>
      <path id="Trazado_21574" data-name="Trazado 21574" d="M1609.646,725.042l28.281-25.393,8.019-41.979,16.354-.113-6.409,47.274-37.63,46.578Z" transform="translate(-1464.926 -628.461)" fill="#0c496d"/>
      <path id="Trazado_21575" data-name="Trazado 21575" d="M1037.187,972.282l-40.558-1.67L959.621,937.3s7.406-9.282,7.211-9.3,36.655,24.237,36.655,24.237l42.17-6.132Z" transform="translate(-939.566 -847.033)" fill="#0c496d"/>
      <path id="Trazado_21576" data-name="Trazado 21576" d="M1541.93,875.759s1.461-4.182.715-7.053c-.536-2.064-1.017-1.785-1.017-1.785l-2.87,2.373A8.091,8.091,0,0,0,1541.93,875.759Z" transform="translate(-1407.632 -797.663)" fill="#222a53"/>
      <path id="Trazado_21577" data-name="Trazado 21577" d="M1457.315,880.054s-.588,4.452,1.266,7.119a13.7,13.7,0,0,0,1.831-6.215Z" transform="translate(-1341.738 -808.287)" fill="#222a53"/>
      <path id="Trazado_21578" data-name="Trazado 21578" d="M1448.025,843.123s.769,3.842,9.515,3.842,10.758-4.927,10.758-4.927.52-3.887-2.667-4.723-3.684.949-3.684.949-.158-2.712-4.836-2.034S1452.071,842.625,1448.025,843.123Z" transform="translate(-1334.301 -772.78)" fill="#0a3c5e"/>
      <path id="Trazado_21579" data-name="Trazado 21579" d="M1384.872,1053.834l-3.265,24.8-17.449.959-.1-36.152,8.471-26.182,12.445-1.219Z" transform="translate(-1266.442 -918.197)" fill="#222c53"/>
      <path id="Trazado_21580" data-name="Trazado 21580" d="M1548.78,1010.363l11.806-.174,8.482,26.223,2.357,33.53-14.951,2.3-5.224-25.06Z" transform="translate(-1415.733 -913.465)" fill="#222c53"/>
      <path id="Trazado_21581" data-name="Trazado 21581" d="M1444.423,1001.079l2.041,26.787-1.981,13.873-6.265-22.5,3.708-6.776-4.106-7.847Z" transform="translate(-1326.052 -906.101)" fill="#0c496d"/>
      <path id="Trazado_21582" data-name="Trazado 21582" d="M1548.78,996.277l5.332,2.763-2.863,8.387,3.882,5.242-3.882,23.27-2.469-12.977Z" transform="translate(-1415.733 -902.221)" fill="#0c496d"/>
    </g>
    <g id="Grupo_11554" data-name="Grupo 11554" transform="translate(431.495 514.163)">
      <path id="Trazado_21583" data-name="Trazado 21583" d="M610.793,2079l-.284,9.583,11.428,2.839,1.136-4.33v-12.883Z" transform="translate(-576.177 -1781.738)" fill="#f39f85"/>
      <path id="Trazado_21584" data-name="Trazado 21584" d="M762.764,2075.611l-.142,11.073,6.282,1.739,4.578-4.614-.284-11.818Z" transform="translate(-699.117 -1779.943)" fill="#f39f85"/>
      <path id="Trazado_21585" data-name="Trazado 21585" d="M747.377,2124.665c1.526-.071,2.271,4.188,3.762,4.188s4.456-4.723,7.942-4.686,8.171,5.928,8.171,5.928,10.612,1.7,12.1,2.378,3.939,5.288,3.939,7.879H744.857a21.507,21.507,0,0,1,1.6-5.323C746.1,2131.8,745.851,2124.735,747.377,2124.665Z" transform="translate(-684.759 -1822.112)" fill="#62c0c3"/>
      <path id="Trazado_21586" data-name="Trazado 21586" d="M746.447,2180.431l.008.071a21.5,21.5,0,0,0-1.6,5.323h38.436a6.8,6.8,0,0,0-.958-4.153Z" transform="translate(-684.759 -1867.586)" fill="#11858a"/>
      <path id="Trazado_21587" data-name="Trazado 21587" d="M566.6,2127.475c1.255,0,1.472,8.8,1.472,8.8a11.016,11.016,0,0,1,1.509,4.826H540.723s-1.668-6.495,9.121-8.73c2.023-3.762,4.33-7.346,7.2-7.275s5,5.252,6.53,5.252S565,2127.475,566.6,2127.475Z" transform="translate(-519.699 -1822.863)" fill="#62c0c3"/>
      <path id="Trazado_21588" data-name="Trazado 21588" d="M539.575,2185a3.306,3.306,0,0,0-.213,3.514h28.853a9.755,9.755,0,0,0-1.455-4.756Z" transform="translate(-518.339 -1870.278)" fill="#11858a"/>
      <path id="Trazado_21589" data-name="Trazado 21589" d="M643.928,1314.7s8.621,49,9.676,54.464.479,7.384,0,11.411-5.753,83.33-5.753,83.33l-17.357-.671s0-16.781-.863-26.179-1.438-43.343-.575-55.042c-7.48-17.836-31.356-43.1-28.863-67.77C619.083,1312.3,643.928,1314.7,643.928,1314.7Z" transform="translate(-567.693 -1166.906)" fill="#222a53"/>
      <path id="Trazado_21590" data-name="Trazado 21590" d="M1182.163,996.722l5.654-2.231a10.418,10.418,0,0,1,6.04-.789c2.97.688,4.641,5.006,3.6,7.774s-1.728,2.7-1.728,2.7l-5.43-5.476-6.527,2.668Z" transform="translate(-1038.196 -908.306)" fill="#f39f85"/>
      <path id="Trazado_21591" data-name="Trazado 21591" d="M608.691,1314.309l-11.7,150.743-19.2,1.055-.839-79.686s-3.26-47.179-1.726-58.4,2.565-13.069,2.565-13.069Z" transform="translate(-547.328 -1167.573)" fill="#0a3c5e"/>
      <path id="Trazado_21592" data-name="Trazado 21592" d="M593.378,550.262c1.858.983-6.46,12.762-5.762,13.595s1.666-3.128,4.029-1.891c-1.44,1.733-1.486,3.264-2.386,4.142s-2.836.5-3.714,1.328a17.857,17.857,0,0,0-2.093,2.9l-5.47-3.039,1.351-3.2s-.067-7.292,1.08-9.318S586.829,546.8,593.378,550.262Z" transform="translate(-549.889 -549.202)" fill="#f6b590"/>
      <path id="Trazado_21593" data-name="Trazado 21593" d="M565.343,642.407l1.8-2.706,6.122,3.174-1.023,2.217-2.443,2.825-5.2-1.621Z" transform="translate(-539.076 -622.345)" fill="#11858a"/>
      <path id="Trazado_21594" data-name="Trazado 21594" d="M710.013,909.356v9.451h9.859v-7.6s-.667-9.007-.89-9.007-6.116-.778-6.116-.778Z" transform="translate(-656.597 -833.873)" fill="#f39f85"/>
      <path id="Trazado_21595" data-name="Trazado 21595" d="M792.362,883.493s.482,3.039-.7,4.818-2.409-4-2.409-4l3.039-1.631Z" transform="translate(-720.637 -818.721)" fill="#0a3c5e"/>
      <path id="Trazado_21596" data-name="Trazado 21596" d="M738.247,888.388s1.52,7.561,5.448,7.45,4.705-.96,5.634-3.27a22.728,22.728,0,0,0,.333-12.556c-1.3-4.633-11.23-.482-11.23-.482S737.23,885.154,738.247,888.388Z" transform="translate(-679.086 -814.796)" fill="#f6b590"/>
      <path id="Trazado_21597" data-name="Trazado 21597" d="M688.5,872.317s-2,4.374-4.411,4.225-1.557-4.151-3.706-6-4.559-8.265.815-10.563,12.021,3.557,12.417,5.56c.556,2.817-1.223,3.669-1.483,5.337s-.259,2.372-2.075,1.557S688.5,872.317,688.5,872.317Z" transform="translate(-630.677 -799.948)" fill="#0a3c5e"/>
      <path id="Trazado_21598" data-name="Trazado 21598" d="M696.874,840.7c2.261,1.557,11.453,5.448,14.047,5.893s8.672-1.28,8.117-6.3c-.778-7.042-7.6-3.076-10.452-4.114-1.62-.589-2.389-1.617-5.037-2.025C697.051,833.154,694.613,839.145,696.874,840.7Z" transform="translate(-645.311 -779.415)" fill="#222a53"/>
      <path id="Trazado_21599" data-name="Trazado 21599" d="M700.363,980.6l-.593-4.188,13.574.334-1.083,3.855Z" transform="translate(-648.319 -894.477)" fill="#62c0c3"/>
      <path id="Trazado_21600" data-name="Trazado 21600" d="M824.918,999.037l35.1,6.435,30.958-9.249a3.918,3.918,0,0,1,4.6,1.96l1.98,3.845a3.917,3.917,0,0,1-1.653,5.257c-8.813,4.653-31.725,16.673-33.783,16.982-2.554.384-36.052-1.215-36.052-1.215Z" transform="translate(-749.465 -910.358)" fill="#62c0c3"/>
      <path id="Trazado_21601" data-name="Trazado 21601" d="M590.327,1297.622v3.844l45.774.414v-3.933Z" transform="translate(-559.865 -1154.087)" fill="#62c0c3"/>
      <path id="Trazado_21602" data-name="Trazado 21602" d="M732.406,909.869s-.445-2.15-1.779-2.076-1.164,5.462,1.112,5.486C733.036,913.292,732.406,909.869,732.406,909.869Z" transform="translate(-672.578 -839.019)" fill="#f6b590"/>
      <path id="Trazado_21603" data-name="Trazado 21603" d="M602.982,998.247l-10.722,1.706-11.461,22.5s1.1,20.073.913,23.27-2.365,6.457-2.429,8.5a1.926,1.926,0,0,0,1.854,2.11l45.9,1.087s3.644-.895,3.388-3.2S628,1047.26,628,1047.26s2.365-36.375,2.173-40.978-2.429-5.37-6.649-6.137c-3.28-.6-8.641-1.9-8.641-1.9Z" transform="translate(-550.938 -912.127)" fill="#11858a"/>
      <path id="Trazado_21604" data-name="Trazado 21604" d="M1183.651,1000.077l4.379-1.493s2.466,5.218,2.416,5.268-4.564,2.315-4.564,2.315Z" transform="translate(-1039.399 -912.399)" fill="#11858a"/>
      <path id="Trazado_21605" data-name="Trazado 21605" d="M472.817,719.016,451.461,694.6a4.32,4.32,0,0,1-.666-4.664s14.063-30.151,15.118-32.548a2.552,2.552,0,0,0-1.247-3.452s-4.6,2.877-6.9-2.685c-2.3-2.014-4.123,1.63-4.123,1.63l-21.48,37.808s-1.918,2.99.767,8.05,28.43,42.778,28.43,42.778,3.283.045,10.118-8.183C479.015,724.258,472.817,719.016,472.817,719.016Z" transform="translate(-431.495 -631.19)" fill="#62c0c3"/>
    </g>
    <g id="Grupo_11557" data-name="Grupo 11557" transform="translate(472.715 566.461)">
      <path id="Trazado_21606" data-name="Trazado 21606" d="M1206.714,1015.746l-2.609-.408s-16.886-23.23-20.862-27.634a21.934,21.934,0,0,0-8.948-5.9l-2.982,20.945,26.335,23.1,9.065.878Z" transform="translate(-1070.648 -951.139)" fill="#fdd148"/>
      <path id="Trazado_21607" data-name="Trazado 21607" d="M1018.123,840.894a17.957,17.957,0,0,1,.982,5.812c-.092,2.858-1.905,3.626-1.537,5.378s2.028,3.012,2.121,4.856a6.311,6.311,0,0,1-.953,3.411s5.563,1.721,6.3,9.343-27.444,14.168-32.208,8.636-1.413-10.875-.308-12.723a10.761,10.761,0,0,1,4.641-4.149s-1.02-3.376.031-5.593c1.106-2.336,5.081-3.447,2.771-7.87s8.139-8.172,8.139-8.172l7.991,1.352Z" transform="translate(-924.385 -836.383)" fill="#222a53"/>
      <path id="Trazado_21608" data-name="Trazado 21608" d="M659.126,988.006c-.575-1.278-2.173-3.288-6.009-2.987s-7.352,1.644-6.585,2.987,2.941,4.475,7.863,2.685S659.126,988.006,659.126,988.006Z" transform="translate(-646.426 -953.71)" fill="#f39f85"/>
      <path id="Trazado_21609" data-name="Trazado 21609" d="M1055.569,901.1s-1.027-.782-1.428.1c-.641,1.4,1.847,2.3,1.847,2.3Z" transform="translate(-975.862 -885.651)" fill="#f39f85"/>
      <path id="Trazado_21610" data-name="Trazado 21610" d="M1118.338,900.2s1.027-.782,1.428.1c.641,1.4-1.847,2.3-1.847,2.3Z" transform="translate(-1027.494 -884.925)" fill="#f39f85"/>
      <path id="Trazado_21611" data-name="Trazado 21611" d="M1085.206,2051.175l2.237,13.041,8.311.7,2.046-4.347-1.342-2.109-2.174-11.571Z" transform="translate(-1001.054 -1811.956)" fill="#f39f85"/>
      <path id="Trazado_21612" data-name="Trazado 21612" d="M997.039,2132.081h19.754l6.872-7.7v7.7h4.987v-10.2s-.025-6.856-2.633-7.951c-1.074,2.2-1.746,3.508-2.929,3.668s-5.007-2.708-7.474-2.521a70.276,70.276,0,0,1-4.321,9.329C1010.3,2125.944,997.039,2129.012,997.039,2132.081Z" transform="translate(-929.797 -1866.14)" fill="#222a53"/>
      <path id="Trazado_21613" data-name="Trazado 21613" d="M949.973,1200.836s-3.164,3.5-6.425,12.61-2.781,24.165,0,36.823,10.055,35.96,10.055,35.96l14.176,76.624s7.567.889,12.17-3.138c-1.11-25.6-10.03-77.225-10.03-77.225l3.068-88.7-19.178-.064Z" transform="translate(-884.731 -1122.412)" fill="#11858a"/>
      <path id="Trazado_21614" data-name="Trazado 21614" d="M1143.944,2051.175l2.238,13.041,8.311.7,2.046-4.347-1.343-2.109-2.174-11.571Z" transform="translate(-1048.527 -1811.956)" fill="#f6b590"/>
      <path id="Trazado_21615" data-name="Trazado 21615" d="M1055.777,2132.081h19.754l6.872-7.7v7.7h4.986v-10.2s-.025-6.856-2.633-7.951c-1.074,2.2-1.745,3.508-2.928,3.668s-5.007-2.708-7.474-2.521a70.229,70.229,0,0,1-4.321,9.329C1069.042,2125.944,1055.777,2129.012,1055.777,2132.081Z" transform="translate(-977.27 -1866.14)" fill="#0a3c5e"/>
      <path id="Trazado_21616" data-name="Trazado 21616" d="M1062.746,1359.278s7.1,1.63,12.754-1.918c-.767-30.3-7.531-73.846-7.767-77.1,4.329-27.833,15.63-51.111,11.6-65.494s-6.377-16.158-6.377-16.158l-4.459-9.3-6.286.847s-6.6,3.009-9.181,3.488c-7.391,23.494-8.1,82-8.1,82a11.677,11.677,0,0,0,.2,3.827Z" transform="translate(-968.448 -1118.844)" fill="#62c0c3"/>
      <path id="Trazado_21617" data-name="Trazado 21617" d="M1008.286,1017.574l25.555-.863,5.657-41.282s-17.308-3.5-28.192-.431S1008.286,1017.574,1008.286,1017.574Z" transform="translate(-936.667 -944.616)" fill="#fff"/>
      <path id="Trazado_21618" data-name="Trazado 21618" d="M1047.217,1190.278l-27.857.607v3.536l27.857-.636Z" transform="translate(-947.837 -1119.627)" fill="#222a53"/>
      <path id="Trazado_21619" data-name="Trazado 21619" d="M998.228,1001.8l-2.78,13.7-8.838.527,3.836-7.112c-.24-2.861-6.041-35.032-.767-39.3s14.432-4.555,17.4-4.555,13.617,1.055,17.932,3.212-4.171,36.679-3.6,39.8l4.459,9.3-8.87-1.1-2.931-15.295-.331-32.6-12.9-.048.291,13.074Z" transform="translate(-921.368 -937.602)" fill="#f6a948"/>
      <path id="Trazado_21620" data-name="Trazado 21620" d="M1073.595,948.215c-.7-.7-2.485-.776-4.832-.568a7.184,7.184,0,0,0-4.307,1.518l-1.144,4.54c.041-.158.648-2.129,5.321-2.129,4.868,0,6.484,1.5,6.484,1.5S1075.116,949.719,1073.595,948.215Z" transform="translate(-983.359 -923.448)" fill="#f6a948"/>
      <path id="Trazado_21621" data-name="Trazado 21621" d="M1060.366,968.559c3.492,0,7.422.479,7.93,1.055s-4.817,9.733-7.79,9.733-9.106-8.678-8.243-9.445S1056.873,968.559,1060.366,968.559Z" transform="translate(-974.363 -940.431)" fill="#f6b590"/>
      <path id="Trazado_21622" data-name="Trazado 21622" d="M1073.65,925.885v6.976a6,6,0,0,0,3.78.983,4.648,4.648,0,0,0,3.78-1.609l-.276-9.086Z" transform="translate(-991.715 -903.73)" fill="#f39f85"/>
      <path id="Trazado_21623" data-name="Trazado 21623" d="M1058.2,865.318s1.333,10.964,6.053,10.964,7.233-8.261,6.015-14.885S1057.12,860.375,1058.2,865.318Z" transform="translate(-979.174 -851.375)" fill="#f6b590"/>
      <path id="Trazado_21624" data-name="Trazado 21624" d="M1048.259,825.544a5.991,5.991,0,0,0-7.983-3.116c-6.135,2.352-5.226,9.493-2.948,12.346,1.825,2.286.623,3.308.623,3.308s7.552.168,8.558-6.617c.408,2.493,7.528,2.973,8.319-2.709S1049.194,822.572,1048.259,825.544Z" transform="translate(-960.961 -821.893)" fill="#0a3c5e"/>
      <g id="Grupo_11555" data-name="Grupo 11555" transform="translate(74.08 25.717)">
        <path id="Trazado_21625" data-name="Trazado 21625" d="M1039.536,960.384c-.051-3.375.089-4.2.175-4.4l-7.016,6.55a102.128,102.128,0,0,1,4.477,9.458l-4.477.343c.74,2.383,2.78,22.13,2.78,22.13l5.722-22.509A68.965,68.965,0,0,1,1039.536,960.384Z" transform="translate(-1032.695 -955.987)" fill="#fdd148"/>
      </g>
      <path id="Trazado_21626" data-name="Trazado 21626" d="M1110.771,951.033a52.271,52.271,0,0,1,8.52,8.836c-1.9,3-4.585,8.773-4.585,8.773l3.43,1.967s-4.061,12.762-4.892,19.025c-1.5-7.527-3.935-20.524-3.935-20.524s2.2-9.815,2.292-12.365A13.843,13.843,0,0,0,1110.771,951.033Z" transform="translate(-1020.535 -926.266)" fill="#fdd148"/>
      <g id="Grupo_11556" data-name="Grupo 11556" transform="translate(79.949 30.258)">
        <path id="Trazado_21627" data-name="Trazado 21627" d="M1063.3,979.661l0,.011Z" transform="translate(-1063.296 -979.661)" fill="#fdd148"/>
      </g>
    </g>
    <g id="Grupo_11558" data-name="Grupo 11558" transform="translate(727.729 614.434)">
      <path id="Trazado_21628" data-name="Trazado 21628" d="M2392.11,1156.582l.542,5.447,6.573-1.162s7.523.56,9.168-1.47,5.525-13.717,3.18-13.309-9.9,6.689-10.844,6.3,3.346-3.1,1.795-5.05C2398.75,1150.761,2397.965,1154.823,2392.11,1156.582Z" transform="translate(-2312.328 -1131.877)" fill="#f6b590"/>
      <path id="Trazado_21629" data-name="Trazado 21629" d="M1984.5,1072.033l37.015,24.345,36.578-.27,4.911,4.916-44.906,8.664-41.99-16.18Z" transform="translate(-1976.112 -1072.033)" fill="#f6b590"/>
    </g>
    <g id="Grupo_11559" data-name="Grupo 11559" transform="translate(680.01 574.612)">
      <path id="Trazado_21630" data-name="Trazado 21630" d="M1782.96,1259.266s-6.605,9.5-9.578,29.345-1.865,65.461-1.865,65.461,2.623,33.37,8.247,68.084c4.091,2.749,7.288,3.548,9.589,3.452.479-7.576,2.493-69.138,2.493-69.138s14.594-81.6,14.767-98.577C1795.682,1255.11,1782.96,1259.266,1782.96,1259.266Z" transform="translate(-1762.874 -1181.65)" fill="#11858a"/>
      <path id="Trazado_21631" data-name="Trazado 21631" d="M1877.368,1219.889l.923,30.033,8.038,69.832c.7,15.888,9.833,67.563,9.833,67.563l9.11-2.206s-1.822-25.891.575-65.3c1.438-37.494,3.448-75.016-8.64-96.819C1884.648,1200.334,1877.368,1219.889,1877.368,1219.889Z" transform="translate(-1848.587 -1145.374)" fill="#62c0c3"/>
      <path id="Trazado_21632" data-name="Trazado 21632" d="M1964.871,2108.941l5.881-.592,4.976-2.575,7.273,14.442,8.491,1.322s2.541.452,2.541,4.28H1975s-2.61-9.57-5.916-9.57v9.57h-4.628l.8-14.685Z" transform="translate(-1918.971 -1867.696)" fill="#222c53"/>
      <path id="Trazado_21633" data-name="Trazado 21633" d="M1755.035,2123.031V2105.18l-3.967,1.357-8.143-4.211-4.976,15.277s-7.412,1.635-8.665,2.192a3.785,3.785,0,0,0-1.984,3.236h16.669s3.689-10.962,6.821-10.962v10.962Z" transform="translate(-1727.3 -1864.909)" fill="#222c53"/>
      <path id="Trazado_21634" data-name="Trazado 21634" d="M1898.516,987.521v7.624h9.067l.253-13.932-2.545-3.054Z" transform="translate(-1865.68 -956.341)" fill="#f39f85"/>
      <path id="Trazado_21635" data-name="Trazado 21635" d="M1865.581,925.95s-.357,14.727,3.072,15.331,9.133-3.209,11.217-7.3a52.781,52.781,0,0,0,3.4-9.133l-6.938-6.418Z" transform="translate(-1839.052 -908.07)" fill="#f6b590"/>
      <path id="Trazado_21636" data-name="Trazado 21636" d="M1900.746,873.447a15.6,15.6,0,0,1-1.207-5.7c.164-2.441,2.194-3.812,5.183-3.209s3.949,2.9,3.785,4.386-2.989,5.35-2.989,5.35Z" transform="translate(-1866.495 -864.392)" fill="#222c53"/>
      <path id="Trazado_21637" data-name="Trazado 21637" d="M1859.8,907.492s1.563,3.483,8.283,2.605c.027,1.481-.686,2.66.631,4.032a2.626,2.626,0,0,1,.192,3.126l1.231,1.646a11.1,11.1,0,0,1,1.375-4.306c1.16-1.845,3.867-3.7,3.291-9.133s-5.4-10.093-10.86-5.65c-3.126-4.169-8.447-2.333-10.778,1.947-2.145,3.939-1.438,8.032,1.81,8.474C1857.988,910.646,1859.8,907.492,1859.8,907.492Z" transform="translate(-1828.031 -891.122)" fill="#222c53"/>
      <path id="Trazado_21638" data-name="Trazado 21638" d="M1799.422,1059.749c5.881-.575,26.083-.639,31.772,2.11s4.542,12.86,1.665,18.677c-1.658,3.354-9.122,19.1-9.122,19.1H1795.2s-10.18-20.172-8.566-29.279C1788.427,1060.26,1799.422,1059.749,1799.422,1059.749Z" transform="translate(-1775.117 -1022.024)" fill="#c0e2e3"/>
      <path id="Trazado_21639" data-name="Trazado 21639" d="M1935.956,977.845a1.327,1.327,0,0,1,1.736-.7c1.166.52-.329,5.276-1.634,5.482S1935.956,977.845,1935.956,977.845Z" transform="translate(-1895.53 -955.413)" fill="#f6b590"/>
    </g>
    <path id="Trazado_21640" data-name="Trazado 21640" d="M1364.374,1004.638c-2.716-.755-13.387-1.645-13.969,5.494s14.551-.687,14.809-2.5A3.85,3.85,0,0,0,1364.374,1004.638Z" transform="translate(-742.664 -402.726)" fill="#f39f85"/>
    <path id="Trazado_21641" data-name="Trazado 21641" d="M842.075,1013.1c-1.344-.844-2.759-1.767-4.2-2.732-.277,5.1-.612,10.723-.9,15.492,2.642,1.832,4.717,3.015,5.619,2.969,3.85-.2,26.093-22.057,26.17-22.1l.789-21.077A264.392,264.392,0,0,0,842.075,1013.1Z" transform="translate(-327.71 -387.784)" fill="#fdd148"/>
    <path id="Trazado_21642" data-name="Trazado 21642" d="M1240.029,1000.539c.261,2.224-.275,6.353-1.121,6.728s-4.07-.718-4.795-2.543-3.127-7.2-2.523-8.346C1233.959,991.895,1239.768,998.316,1240.029,1000.539Z" transform="translate(-646.571 -395.197)" fill="#f6b590"/>
    <g id="Grupo_11560" data-name="Grupo 11560" transform="translate(757.144 520.777)">
      <path id="Trazado_21643" data-name="Trazado 21643" d="M2233.384,1992.5l2.4,27.941-.37,4.98-11.032-2.089.429-.964-3.053-29.227Z" transform="translate(-2204.065 -1722.311)" fill="#f39f85"/>
      <path id="Trazado_21644" data-name="Trazado 21644" d="M2129.566,2147.4s-1.071-4.606,4.766-6.427,8.408-.8,12-3.909,4.338-3.749,6.373-2.946,3.267,3.106,5.195,2.624,2.57-3.7,4.124-3.856c.9,2.515,2.827,8.634,3.9,12.07a1.883,1.883,0,0,1-1.8,2.444Z" transform="translate(-2129.489 -1835.771)" fill="#11858a"/>
      <path id="Trazado_21645" data-name="Trazado 21645" d="M2129.75,2195.583a5.094,5.094,0,0,0-.181,2.489h34.555a1.883,1.883,0,0,0,1.8-2.444l-.014-.045Z" transform="translate(-2129.491 -1886.446)" fill="#62c0c3"/>
      <path id="Trazado_21646" data-name="Trazado 21646" d="M2521.294,2097.42l2.4,7.819-.37,4.98-11.032-2.089.428-.964-3.053-9.1Z" transform="translate(-2436.759 -1807.109)" fill="#f39f85"/>
      <path id="Trazado_21647" data-name="Trazado 21647" d="M2417.476,2147.4s-1.072-4.606,4.766-6.427,8.408-.8,12-3.909,4.338-3.749,6.373-2.946,3.267,3.106,5.2,2.624,2.571-3.7,4.124-3.856c.9,2.515,2.828,8.634,3.9,12.07a1.883,1.883,0,0,1-1.8,2.444Z" transform="translate(-2362.182 -1835.771)" fill="#11858a"/>
      <path id="Trazado_21648" data-name="Trazado 21648" d="M2417.659,2195.583a5.1,5.1,0,0,0-.181,2.489h34.555a1.883,1.883,0,0,0,1.8-2.444l-.014-.045Z" transform="translate(-2362.184 -1886.446)" fill="#62c0c3"/>
      <path id="Trazado_21649" data-name="Trazado 21649" d="M2158.771,1247.279s-10.74,40.072-13.3,68.238c4.731,38.394,14.32,82.377,14.32,82.377l17-4.219-4.73-74.924s31.964-49.352,23.781-81.445S2158.771,1247.279,2158.771,1247.279Z" transform="translate(-2142.408 -1102.198)" fill="#222a53"/>
      <path id="Trazado_21650" data-name="Trazado 21650" d="M2315.875,1271.52s-3.708,38.485,3.069,74.54c14.448,38.74,33.37,83.49,33.37,83.49l13.937-5.114-19.051-76.842s6.776-59.2,3.452-69.937-8.842-13.884-8.842-13.884Z" transform="translate(-2279.311 -1133.342)" fill="#0a3c5e"/>
      <path id="Trazado_21651" data-name="Trazado 21651" d="M2480.986,605.9l-.959-3s-.256-11.187-1.087-13.489-10.337-6.9-11.434-5.434,4.146,15.6,3.89,17.325-2.877-5.178-4.922-1.982c.934.788,3.066,4.811,4.606,5.963,1.618,1.21,3.135,1.927,4.216,3.5C2477.406,611.842,2480.986,605.9,2480.986,605.9Z" transform="translate(-2401.846 -583.685)" fill="#f6b590"/>
      <path id="Trazado_21652" data-name="Trazado 21652" d="M2248.637,966.052l2.658,9.4a1.729,1.729,0,0,1-.312,1.561,7.432,7.432,0,0,1-4.262,2.445,11.029,11.029,0,0,1-4.858.094,1.749,1.749,0,0,1-1.329-1.35l-2.353-11.271,2.684-7.456,5.557-.251Z" transform="translate(-2217.337 -887.201)" fill="#f39f85"/>
      <path id="Trazado_21653" data-name="Trazado 21653" d="M2207.807,1258.372l1.343,4.475,49.3-11.891-1.8-6.457Z" transform="translate(-2192.787 -1117.766)" fill="#f6a948"/>
      <path id="Trazado_21654" data-name="Trazado 21654" d="M2358.474,768.059l30.558-23.245-2.429-30.941a4.283,4.283,0,0,1,1.854-4.219c2.365-1.534,6.456-4.091,6.456-4.091s3.2-.767,5.242,3,7.927,45.069,7.927,45.069l-35.353,39.7Z" transform="translate(-2314.558 -682.136)" fill="#f6a948"/>
      <path id="Trazado_21655" data-name="Trazado 21655" d="M2509.689,699.687l-1.215-2.365,6.648-4.155,1.023,3.772Z" transform="translate(-2435.791 -672.169)" fill="#fdd148"/>
      <path id="Trazado_21656" data-name="Trazado 21656" d="M2193.494,1035.227s-9.205,2.349-13.568,4.651-6.042,6.76-5.514,12.178,4.651,26.322,4.651,26.322-2.11,9.014,1.726,8.822,44.877-10.212,48.617-11.315,1.247-5.178,0-7.527-10.74-37.734-20.569-36.631S2193.494,1035.227,2193.494,1035.227Z" transform="translate(-2165.72 -945.779)" fill="#fdd148"/>
      <path id="Trazado_21657" data-name="Trazado 21657" d="M2206.9,948.438s.282,2.873-.314,3.736-4.788,4.851-7.755,4.427-4.945-7.691-4.741-15.6c1.915-4.364,13.027-1.821,13.027-1.821Z" transform="translate(-2181.687 -870.404)" fill="#f6b590"/>
      <path id="Trazado_21658" data-name="Trazado 21658" d="M2194.267,903.355s-4.913,1.083-6.656-3.752c-2.951,3.077-9.528,2.731-10.078-1.428,4.113-3,4.424-9.809,11.912-10.955s8.948,3.814,8.948,3.814a3.406,3.406,0,0,1,3.673,2.041c2.354,5.337-2.367,8.538-1.755,14.989C2198.458,908.142,2196.386,906.981,2194.267,903.355Z" transform="translate(-2168.319 -828.868)" fill="#0a3c5e"/>
      <path id="Trazado_21659" data-name="Trazado 21659" d="M2253.438,965.944c.018-1.359.581-3.134,2.341-2.451,2.077.805.35,5.685-.824,5.729S2253.418,967.381,2253.438,965.944Z" transform="translate(-2229.666 -890.529)" fill="#f6b590"/>
    </g>
    <path id="Trazado_21660" data-name="Trazado 21660" d="M1749.141,1081.036s-.638-3.244,2.709-6.1,8.407-3.41,9.536-2.3-.709,5.083-3.125,7.013S1752.5,1084.075,1749.141,1081.036Z" transform="translate(-1064.903 -457.653)" fill="#f39f85"/>
  </g>
</svg>
